<?xml version="1.0" encoding="utf-8"?>
<!-- Generator: Adobe Illustrator 16.0.0, SVG Export Plug-In . SVG Version: 6.00 Build 0)  -->
<!DOCTYPE svg PUBLIC "-//W3C//DTD SVG 1.1//EN" "http://www.w3.org/Graphics/SVG/1.1/DTD/svg11.dtd">
<svg version="1.1" id="圖層_1" xmlns="http://www.w3.org/2000/svg" xmlns:xlink="http://www.w3.org/1999/xlink" x="0px" y="0px"
	 width="841.891px" height="595.28px" viewBox="0 0 841.891 595.28" enable-background="new 0 0 841.891 595.28"
	 xml:space="preserve">
<g>
	<path fill="#0F809D" d="M542.081,449.295c0,21.765-17.636,39.401-39.396,39.401H297.939c-21.758,0-39.4-17.637-39.4-39.401V244.548
		c0-21.758,17.643-39.4,39.4-39.4h204.746c21.76,0,39.396,17.643,39.396,39.4V449.295z"/>
	<g>
		<path fill="#FFFFFF" d="M400.297,313.366v77.553h-36.025h-0.229v-77.553h0.229v-34.74c-12.006,0.208-20.117,2.348-24.254,6.497
			c-4.492,5.064-6.739,15.45-6.739,31.182v77.157c0,12.074,2.313,20.42,6.955,25.055c4.634,4.648,12.362,6.969,23.178,6.969h27.401
			c10.815,0,18.477-2.247,22.969-6.754c4.783-4.91,7.157-13.411,7.157-25.49v-79.875h31.827v104.323h30.779V311.456
			c0-12.773-2.12-21.49-6.337-26.131c-4.353-4.486-12.651-6.733-24.865-6.733h-74.605l0.396,34.774H400.297z"/>
		<path fill="#FFFFFF" d="M437.135,363.68c0,12.679-7.264,19.021-21.785,19.021h-29.548v-12.08h29.548
			c3.994,0,6.745-0.519,8.26-1.547c1.593-1.022,2.4-2.825,2.4-5.395c0-4.547-2.993-6.82-8.979-6.82h-11.966
			c-14.44,0-21.658-5.905-21.658-17.736c0-6.604,2.429-11.401,7.298-14.401c3.511-2.226,7.896-3.349,13.163-3.349h29.675v12.093
			h-29.675c-6.142,0-9.215,1.891-9.215,5.657c0,2.737,1.196,4.499,3.592,5.267c1.036,0.262,3.302,0.383,6.82,0.383h11.966
			c6.141,0,11.051,1.628,14.723,4.89C435.332,352.925,437.135,357.599,437.135,363.68z"/>
	</g>
</g>
</svg>
