<?xml version="1.0" encoding="utf-8"?>
<!-- Generator: Adobe Illustrator 16.0.0, SVG Export Plug-In . SVG Version: 6.00 Build 0)  -->
<!DOCTYPE svg PUBLIC "-//W3C//DTD SVG 1.1//EN" "http://www.w3.org/Graphics/SVG/1.1/DTD/svg11.dtd">
<svg version="1.1" id="圖層_1" xmlns="http://www.w3.org/2000/svg" xmlns:xlink="http://www.w3.org/1999/xlink" x="0px" y="0px"
	 width="841.891px" height="595.28px" viewBox="0 0 841.891 595.28" enable-background="new 0 0 841.891 595.28"
	 xml:space="preserve">
<g>
	<path fill="#3886BE" d="M542.081,400.298c0,21.766-17.636,39.4-39.396,39.4H297.939c-21.758,0-39.4-17.635-39.4-39.4V195.552
		c0-21.76,17.643-39.401,39.4-39.401h204.746c21.76,0,39.396,17.642,39.396,39.401V400.298z"/>
	<g>
		<path fill="#FFFFFF" d="M400.297,253.503v77.551h-36.025h-0.229v-77.551h0.229v-34.74c-12.006,0.209-20.117,2.348-24.254,6.498
			c-4.492,5.064-6.739,15.449-6.739,31.182v77.154c0,12.072,2.313,20.42,6.955,25.054c4.634,4.647,12.362,6.968,23.178,6.968h27.401
			c10.815,0,18.477-2.246,22.969-6.752c4.783-4.91,7.157-13.412,7.157-25.492v-79.871h31.827v104.32h30.779v-106.23
			c0-12.773-2.12-21.489-6.337-26.131c-4.353-4.486-12.651-6.732-24.865-6.732h-74.605l0.396,34.773H400.297z"/>
		<path fill="#FFFFFF" d="M437.135,303.813c0,12.679-7.264,19.021-21.785,19.021h-29.548v-12.08h29.548
			c3.994,0,6.745-0.518,8.26-1.547c1.593-1.023,2.4-2.825,2.4-5.395c0-4.547-2.993-6.82-8.979-6.82h-11.966
			c-14.44,0-21.658-5.905-21.658-17.736c0-6.605,2.429-11.4,7.298-14.4c3.511-2.227,7.896-3.35,13.163-3.35h29.675v12.094h-29.675
			c-6.142,0-9.215,1.891-9.215,5.656c0,2.737,1.196,4.5,3.592,5.266c1.036,0.263,3.302,0.385,6.82,0.385h11.966
			c6.141,0,11.051,1.627,14.723,4.89C435.332,293.059,437.135,297.733,437.135,303.813z"/>
	</g>
</g>
</svg>
