<?xml version="1.0" encoding="utf-8"?>
<!-- Generator: Adobe Illustrator 16.0.0, SVG Export Plug-In . SVG Version: 6.00 Build 0)  -->
<!DOCTYPE svg PUBLIC "-//W3C//DTD SVG 1.1//EN" "http://www.w3.org/Graphics/SVG/1.1/DTD/svg11.dtd">
<svg version="1.1" id="圖層_1" xmlns="http://www.w3.org/2000/svg" xmlns:xlink="http://www.w3.org/1999/xlink" x="0px" y="0px"
	 width="841.89px" height="595.28px" viewBox="0 0 841.89 595.28" enable-background="new 0 0 841.89 595.28" xml:space="preserve">
<g>
	<polygon fill="#0D3E59" points="199.205,249.278 203.19,249.278 199.205,249.028 	"/>
	<polygon fill="#0D3E59" points="199.205,249.028 283.375,249.069 283.375,249.028 	"/>
	<path fill="#0D3E59" d="M283.375,249.028v0.041l37.686,0.02c-0.239-12.914-2.569-21.668-7.042-26.131
		c-5.485-4.883-16.771-7.324-33.846-7.324h-83.715c-13.116,0-22.183,2.521-27.21,7.547c-5.038,5.031-7.554,13.418-7.554,25.162
		v29.736c0,11.736,2.441,20.05,7.328,24.92c5.323,5.191,14.552,7.781,27.667,7.781h86.686v34.538h-113.22v33.395h115.271
		c13.879,0,23.333-2.287,28.367-6.867c4.88-4.722,7.321-13.721,7.321-26.985v-87.102l-37.739-2.631v33.241h-84.17v-39.091v-0.25
		H283.375z"/>
	<polygon fill="#0D3E59" points="489.685,215.634 347.877,215.634 347.877,249.103 489.685,249.179 	"/>
	<path fill="#0D3E59" d="M468.407,285.626h-82.104v-23.334l-38.426-2.678v48.422h110.929v35.91H347.877v34.767h117.796
		c20.729,0,31.101-8.776,31.101-26.306v-41.398c0-9.907-1.906-16.693-5.717-20.353C487.236,287.3,479.693,285.626,468.407,285.626z"
		/>
	<polygon fill="#0D3E59" points="526.039,215.634 526.039,249.028 637.656,249.028 637.532,249.257 680.195,249.278 
		680.195,215.634 	"/>
	<polygon fill="#0D3E59" points="621.892,278.677 621.764,278.671 568.127,378.713 615.696,378.713 667.46,278.677 623.388,275.886 
			"/>
</g>
</svg>
