<?xml version="1.0" encoding="utf-8"?>
<!-- Generator: Adobe Illustrator 16.0.0, SVG Export Plug-In . SVG Version: 6.00 Build 0)  -->
<!DOCTYPE svg PUBLIC "-//W3C//DTD SVG 1.1//EN" "http://www.w3.org/Graphics/SVG/1.1/DTD/svg11.dtd">
<svg version="1.1" id="圖層_1" xmlns="http://www.w3.org/2000/svg" xmlns:xlink="http://www.w3.org/1999/xlink" x="0px" y="0px"
	 width="841.891px" height="595.28px" viewBox="0 0 841.891 595.28" enable-background="new 0 0 841.891 595.28"
	 xml:space="preserve">
<g>
	<polygon fill="#3399C9" points="199.206,236.786 203.191,236.786 199.206,236.538 	"/>
	<polygon fill="#3399C9" points="199.206,236.538 283.375,236.578 283.375,236.538 	"/>
	<path fill="#3399C9" d="M283.375,236.538v0.04l37.686,0.021c-0.239-12.914-2.569-21.664-7.042-26.131
		c-5.485-4.883-16.771-7.324-33.846-7.324h-83.715c-13.116,0-22.183,2.521-27.21,7.547c-5.038,5.03-7.554,13.418-7.554,25.161
		v29.735c0,11.737,2.441,20.051,7.328,24.921c5.323,5.192,14.552,7.781,27.667,7.781h86.686v34.538h-113.22v33.395h115.271
		c13.879,0,23.333-2.287,28.367-6.867c4.88-4.722,7.321-13.721,7.321-26.984v-87.103l-37.739-2.63v33.24h-84.17v-39.092v-0.248
		H283.375z"/>
	<polygon fill="#3399C9" points="489.685,203.144 347.877,203.144 347.877,236.612 489.685,236.692 	"/>
	<path fill="#3399C9" d="M468.408,273.134h-82.104v-23.332l-38.426-2.678v48.421h110.929v35.911H347.877v34.766h117.796
		c20.729,0,31.101-8.777,31.101-26.305v-41.398c0-9.908-1.906-16.694-5.717-20.354C487.237,274.809,479.694,273.134,468.408,273.134
		z"/>
	<polygon fill="#3399C9" points="526.04,203.144 526.04,236.538 637.657,236.538 637.533,236.767 680.196,236.786 680.196,203.144 	
		"/>
	<polygon fill="#3399C9" points="621.892,266.187 621.764,266.179 568.127,366.222 615.697,366.222 667.46,266.187 623.388,263.395 
			"/>
</g>
</svg>
