<?xml version="1.0" encoding="utf-8"?>
<!-- Generator: Adobe Illustrator 16.0.0, SVG Export Plug-In . SVG Version: 6.00 Build 0)  -->
<!DOCTYPE svg PUBLIC "-//W3C//DTD SVG 1.1//EN" "http://www.w3.org/Graphics/SVG/1.1/DTD/svg11.dtd">
<svg version="1.1" xmlns="http://www.w3.org/2000/svg" xmlns:xlink="http://www.w3.org/1999/xlink" x="0px" y="0px"
	 width="595.28px" height="841.89px" viewBox="0 0 595.28 841.89" enable-background="new 0 0 595.28 841.89" xml:space="preserve">
<g id="圖層_1">
	<rect x="91" y="39" fill="#FFFFFF" width="415" height="502"/>
	<rect x="158.64" y="171" fill="#FFFFFF" stroke="#43668B" stroke-width="2" stroke-miterlimit="10" width="288.86" height="36"/>
	<text transform="matrix(1.05 0 0 1 237.8472 112.1992)" fill="#43668B" font-family="'DFHei-W5-WIN-BF'" font-size="29">結帳流程</text>
	<rect x="158.64" y="171" opacity="0.2" fill="#43668B" width="64.36" height="36"/>
	<g>
		<path fill="#43668B" d="M179.954,193.91c0,1.173-0.413,2.086-1.237,2.739c-0.756,0.586-1.714,0.88-2.876,0.88
			c-1.116,0-2.004-0.31-2.667-0.93c-0.523-0.487-0.924-1.223-1.203-2.208l1.098-0.432c0.255,0.797,0.569,1.389,0.941,1.776
			c0.464,0.454,1.075,0.681,1.83,0.681c0.895,0,1.592-0.227,2.092-0.681c0.511-0.442,0.767-1.051,0.767-1.826
			c0-0.608-0.366-1.151-1.098-1.627c-0.314-0.188-1.052-0.537-2.214-1.046c-1.034-0.442-1.755-0.841-2.162-1.195
			c-0.639-0.531-0.958-1.195-0.958-1.992c0-0.974,0.325-1.749,0.976-2.324c0.663-0.575,1.586-0.863,2.771-0.863
			c1.859,0,3.103,0.886,3.73,2.656l-1.168,0.415c-0.546-1.317-1.4-1.976-2.563-1.976c-1.662,0-2.493,0.697-2.493,2.092
			c0,0.509,0.302,0.963,0.907,1.361c0.255,0.188,0.848,0.481,1.778,0.88c1.22,0.542,2.057,0.985,2.51,1.328
			C179.542,192.261,179.954,193.025,179.954,193.91z"/>
		<path fill="#43668B" d="M187.328,190.092h-2.214v5.215c0,0.629,0.262,0.944,0.785,0.944h1.359v1.129h-1.464
			c-0.697,0-1.191-0.166-1.482-0.498c-0.279-0.343-0.418-0.907-0.418-1.693v-5.097h-1.447v-1.129h1.447v-2.225h1.22v2.225h2.214
			V190.092z"/>
		<path fill="#43668B" d="M197.299,192.748v0.531h-5.717c0.116,2.07,0.865,3.104,2.249,3.104c0.976,0,1.743-0.525,2.301-1.577
			l1.081,0.548c-0.418,0.687-0.819,1.179-1.203,1.478c-0.569,0.454-1.296,0.681-2.179,0.681c-1.081,0-1.929-0.41-2.545-1.229
			c-0.639-0.819-0.959-1.887-0.959-3.204c0-1.35,0.36-2.413,1.081-3.188c0.65-0.719,1.476-1.079,2.475-1.079
			c0.964,0,1.761,0.338,2.388,1.013C196.956,190.546,197.299,191.52,197.299,192.748z M196.061,192.15
			c-0.313-1.472-1.04-2.208-2.179-2.208c-1.116,0-1.854,0.736-2.214,2.208H196.061z"/>
		<path fill="#43668B" d="M206.538,193.113c0,1.395-0.366,2.49-1.098,3.287c-0.686,0.73-1.528,1.096-2.528,1.096
			c-1.116,0-2.016-0.465-2.702-1.395v3.785h-1.272v-10.924h1.272v1.378c0.546-1.018,1.417-1.527,2.615-1.527
			c1.139,0,2.045,0.404,2.719,1.212C206.206,190.822,206.538,191.852,206.538,193.113z M205.248,193.113
			c0-2.114-0.808-3.171-2.423-3.171c-0.779,0-1.412,0.31-1.9,0.93c-0.477,0.642-0.714,1.472-0.714,2.49
			c0,0.908,0.279,1.649,0.836,2.225c0.523,0.531,1.145,0.797,1.865,0.797c0.663,0,1.197-0.243,1.604-0.73
			C205.003,195.078,205.248,194.231,205.248,193.113z"/>
		<path fill="#43668B" d="M212.517,197.363h-1.272v-10.011h-1.9v-0.631c1.104-0.055,1.848-0.631,2.231-1.727h0.941V197.363z"/>
		<path fill="#43668B" d="M221.651,190.557h-2.127v-2.042h2.127V190.557z M221.651,197.363h-2.127v-2.025h2.127V197.363z"/>
		<path fill="#43668B" d="M235.161,186.456h2.702v-1.129c0-0.254-0.023-0.719-0.07-1.395c0-0.088,0.099-0.133,0.296-0.133
			l1.325,0.166c0.186,0.033,0.279,0.094,0.279,0.183c0,0.133-0.059,0.216-0.174,0.249c-0.221,0.066-0.332,0.205-0.332,0.415
			c0,0.587-0.006,1.135-0.017,1.644h3.782c0.14,0,0.209,0.087,0.209,0.262c-0.023,3.256-0.093,5.593-0.209,7.01
			c-0.128,1.716-0.319,2.982-0.575,3.802c-0.209,0.896-0.802,1.345-1.778,1.345c-0.849,0-1.284-0.111-1.308-0.332
			c-0.069-0.244-0.244-0.531-0.523-0.863v-0.133c0.663,0.044,1.273,0.066,1.831,0.066c0.453,0,0.738-0.327,0.854-0.979
			c0.151-0.52,0.279-1.521,0.384-3.005c0.104-1.195,0.174-3.209,0.209-6.043h-2.894c-0.046,1.926-0.146,3.42-0.296,4.482
			c-0.256,1.705-0.686,3.182-1.29,4.433c-0.43,0.874-0.947,1.688-1.551,2.44h-0.244c-0.407-0.133-0.791-0.266-1.15-0.398
			c-0.058-0.044-0.087-0.111-0.087-0.199c0.744-0.753,1.342-1.572,1.795-2.457c0.488-0.874,0.854-1.992,1.099-3.354
			c0.22-1.084,0.36-2.733,0.418-4.947h-2.684c-0.151,0-0.227-0.093-0.227-0.278v-0.654
			C234.934,186.521,235.009,186.456,235.161,186.456z M244.922,185.543h5.229c0.174,0,0.261,0.061,0.261,0.183v12.816
			c0,0.133-0.087,0.199-0.261,0.199h-0.697c-0.198,0-0.296-0.066-0.296-0.199v-1.046h-3.277v1.112c0,0.133-0.087,0.199-0.261,0.199
			h-0.697c-0.198,0-0.296-0.066-0.296-0.199v-12.816C244.626,185.626,244.725,185.543,244.922,185.543z M245.881,196.417h3.277
			v-9.828h-3.277V196.417z"/>
		<path fill="#43668B" d="M260.506,186.34c0.011-0.221,0.029-0.448,0.052-0.681h-3.783c-0.151,0-0.227-0.087-0.227-0.262v-0.654
			c0-0.142,0.075-0.213,0.227-0.213h4.793c0.186,0,0.279,0.115,0.279,0.344c-0.093,1.011-0.139,1.781-0.139,2.313
			c0,1.007,0.099,1.965,0.296,2.872c0.186,0.764,0.552,1.583,1.098,2.457c0.627,1.063,1.348,1.976,2.162,2.739
			c1.127,1.063,2.429,1.87,3.904,2.424c0,0.088-0.029,0.171-0.087,0.249c-0.256,0.232-0.488,0.476-0.697,0.73
			c-0.07,0.088-0.174,0.133-0.314,0.133c-1.278-0.664-2.499-1.522-3.661-2.573c-0.964-0.907-1.784-1.953-2.458-3.138
			c-0.546-1.051-0.93-2.014-1.151-2.889c-0.174,0.642-0.383,1.212-0.627,1.71c-0.337,0.786-0.773,1.594-1.307,2.424
			c-0.5,0.841-1.075,1.555-1.726,2.142c-0.639,0.642-1.255,1.14-1.848,1.494c-0.558,0.332-1.162,0.636-1.813,0.913
			c-0.093,0-0.174-0.044-0.244-0.133c-0.209-0.244-0.413-0.476-0.61-0.697c-0.07-0.066-0.104-0.127-0.104-0.183
			c0-0.066,0.035-0.127,0.104-0.183c0.721-0.21,1.36-0.481,1.917-0.813c0.569-0.376,1.081-0.78,1.534-1.212
			c0.662-0.608,1.255-1.339,1.778-2.191c0.488-0.675,0.918-1.494,1.29-2.457c0.337-0.697,0.61-1.444,0.819-2.241
			C260.163,188.022,260.343,187.214,260.506,186.34z"/>
		<path fill="#43668B" d="M278.321,183.418c0.918,0,1.377,0.061,1.377,0.183c0,0.155-0.058,0.238-0.174,0.249
			c-0.116,0.022-0.174,0.144-0.174,0.365v1.112h6.694c0.186,0,0.279,0.072,0.279,0.216v3.304c0,0.144-0.093,0.216-0.279,0.216
			h-0.697c-0.174,0-0.261-0.072-0.261-0.216v-2.44h-12.917v2.523c0,0.133-0.087,0.199-0.261,0.199h-0.715
			c-0.174,0-0.262-0.066-0.262-0.199v-3.32c0-0.188,0.087-0.282,0.262-0.282h6.833v-1.727
			C278.024,183.479,278.123,183.418,278.321,183.418z M274.259,187.983h8.855c0.186,0,0.279,0.066,0.279,0.199v3.735
			c0,0.166-0.093,0.249-0.279,0.249h-7.879v1.594h8.716c0.198,0,0.296,0.072,0.296,0.216v4.565c0,0.133-0.099,0.199-0.296,0.199
			h-0.697c-0.174,0-0.261-0.066-0.261-0.199v-0.598h-7.757v1.079c0,0.122-0.093,0.183-0.279,0.183h-0.697
			c-0.174,0-0.261-0.061-0.261-0.183v-10.758C273.998,188.078,274.085,187.983,274.259,187.983z M275.235,191.121h6.92v-2.059h-6.92
			V191.121z M275.235,196.898h7.757v-2.059h-7.757V196.898z"/>
		<path fill="#43668B" d="M296.311,183.551c0.93,0,1.395,0.061,1.395,0.183c0,0.155-0.064,0.244-0.192,0.266
			c-0.116,0.011-0.174,0.122-0.174,0.332v1.876h6.833c0.151,0,0.227,0.067,0.227,0.202v0.674c0,0.168-0.075,0.252-0.227,0.252
			h-9.012c-0.035,1.045-0.087,1.947-0.157,2.706h7.565c0.15,0,0.227,0.089,0.227,0.266c-0.035,2.347-0.139,4.04-0.313,5.08
			c-0.175,1.229-0.431,2.142-0.767,2.739c-0.314,0.642-1.14,0.963-2.477,0.963c-0.94,0-1.423-0.133-1.446-0.398
			c-0.07-0.277-0.267-0.609-0.593-0.996v-0.133c0.732,0.088,1.412,0.133,2.039,0.133c0.721,0,1.191-0.222,1.412-0.664
			c0.232-0.365,0.425-1.057,0.576-2.075c0.174-0.786,0.29-2.064,0.348-3.835h-6.693c-0.046,0.332-0.099,0.631-0.157,0.896
			c-0.314,1.406-0.744,2.573-1.29,3.503c-0.488,0.742-1.075,1.378-1.76,1.909c-0.628,0.531-1.436,1.018-2.423,1.461
			c-0.337-0.343-0.639-0.659-0.906-0.946c0.511-0.166,1.121-0.509,1.83-1.029c0.791-0.575,1.43-1.206,1.917-1.893
			c0.604-0.985,1.034-2.075,1.29-3.271c0.244-1.004,0.395-2.477,0.453-4.416h-5.125c-0.151,0-0.227-0.084-0.227-0.252v-0.674
			c0-0.135,0.076-0.202,0.227-0.202h7.304v-2.474C296.014,183.612,296.113,183.551,296.311,183.551z"/>
		<path fill="#43668B" d="M313.376,197.38h-7.077v-12.385h1.255v11.256h5.822V197.38z"/>
		<path fill="#43668B" d="M319.407,197.363h-1.29v-12.368h1.29V197.363z"/>
		<path fill="#43668B" d="M331.4,197.363h-1.359l-4.794-9.961v9.961h-1.272v-12.368h1.412l4.759,9.928v-9.928h1.255V197.363z"/>
		<path fill="#43668B" d="M340.168,197.363h-7.111v-12.368h7.111v1.129h-5.84v4.366h5.057v1.129h-5.057v4.648h5.84V197.363z"/>
	</g>
	<rect x="158.64" y="240" fill="#FFFFFF" stroke="#43668B" stroke-width="2" stroke-miterlimit="10" width="288.86" height="36"/>
	<rect x="158.64" y="240" opacity="0.2" fill="#43668B" width="119.36" height="36"/>
	<rect x="158.64" y="309" fill="#FFFFFF" stroke="#43668B" stroke-width="2" stroke-miterlimit="10" width="288.86" height="36"/>
	<rect x="158.64" y="309" opacity="0.2" fill="#43668B" width="179.36" height="36"/>
	<rect x="158.64" y="378" fill="#FFFFFF" stroke="#43668B" stroke-width="2" stroke-miterlimit="10" width="288.86" height="36"/>
	<rect x="158.64" y="378" opacity="0.2" fill="#43668B" width="227.36" height="36"/>
	<rect x="158.64" y="447" fill="#FFFFFF" stroke="#43668B" stroke-width="2" stroke-miterlimit="10" width="288.86" height="36"/>
	<rect x="158.64" y="447" opacity="0.2" fill="#43668B" width="288.86" height="36"/>
	<g>
		<path fill="#43668B" d="M179.954,262.91c0,1.173-0.413,2.086-1.237,2.739c-0.756,0.586-1.714,0.88-2.876,0.88
			c-1.116,0-2.004-0.31-2.667-0.93c-0.523-0.487-0.924-1.223-1.203-2.208l1.098-0.432c0.255,0.797,0.569,1.389,0.941,1.776
			c0.464,0.454,1.075,0.681,1.83,0.681c0.895,0,1.592-0.227,2.092-0.681c0.511-0.442,0.767-1.051,0.767-1.826
			c0-0.608-0.366-1.151-1.098-1.627c-0.314-0.188-1.052-0.537-2.214-1.046c-1.034-0.442-1.755-0.841-2.162-1.195
			c-0.639-0.531-0.958-1.195-0.958-1.992c0-0.974,0.325-1.749,0.976-2.324c0.663-0.575,1.586-0.863,2.771-0.863
			c1.859,0,3.103,0.886,3.73,2.656l-1.168,0.415c-0.546-1.317-1.4-1.976-2.563-1.976c-1.662,0-2.493,0.697-2.493,2.092
			c0,0.509,0.302,0.963,0.907,1.361c0.255,0.188,0.848,0.481,1.778,0.88c1.22,0.542,2.057,0.985,2.51,1.328
			C179.542,261.261,179.954,262.025,179.954,262.91z"/>
		<path fill="#43668B" d="M187.328,259.092h-2.214v5.215c0,0.629,0.262,0.944,0.785,0.944h1.359v1.129h-1.464
			c-0.697,0-1.191-0.166-1.482-0.498c-0.279-0.343-0.418-0.907-0.418-1.693v-5.097h-1.447v-1.129h1.447v-2.225h1.22v2.225h2.214
			V259.092z"/>
		<path fill="#43668B" d="M197.299,261.748v0.531h-5.717c0.116,2.07,0.865,3.104,2.249,3.104c0.976,0,1.743-0.525,2.301-1.577
			l1.081,0.548c-0.418,0.687-0.819,1.179-1.203,1.478c-0.569,0.454-1.296,0.681-2.179,0.681c-1.081,0-1.929-0.41-2.545-1.229
			c-0.639-0.819-0.959-1.887-0.959-3.204c0-1.35,0.36-2.413,1.081-3.188c0.65-0.719,1.476-1.079,2.475-1.079
			c0.964,0,1.761,0.338,2.388,1.013C196.956,259.546,197.299,260.52,197.299,261.748z M196.061,261.15
			c-0.313-1.472-1.04-2.208-2.179-2.208c-1.116,0-1.854,0.736-2.214,2.208H196.061z"/>
		<path fill="#43668B" d="M206.538,262.113c0,1.395-0.366,2.49-1.098,3.287c-0.686,0.73-1.528,1.096-2.528,1.096
			c-1.116,0-2.016-0.465-2.702-1.395v3.785h-1.272v-10.924h1.272v1.378c0.546-1.018,1.417-1.527,2.615-1.527
			c1.139,0,2.045,0.404,2.719,1.212C206.206,259.822,206.538,260.852,206.538,262.113z M205.248,262.113
			c0-2.114-0.808-3.171-2.423-3.171c-0.779,0-1.412,0.31-1.9,0.93c-0.477,0.642-0.714,1.472-0.714,2.49
			c0,0.908,0.279,1.649,0.836,2.225c0.523,0.531,1.145,0.797,1.865,0.797c0.663,0,1.197-0.243,1.604-0.73
			C205.003,264.078,205.248,263.231,205.248,262.113z"/>
		<path fill="#43668B" d="M215.114,266.347h-6.833c0.232-1.096,0.645-2.114,1.238-3.055c0.5-0.764,1.232-1.638,2.196-2.623
			c0.779-0.774,1.313-1.438,1.604-1.992c0.29-0.531,0.436-1.101,0.436-1.71c0-1.339-0.726-2.009-2.179-2.009
			c-0.593,0-1.104,0.31-1.534,0.93c-0.407,0.564-0.639,1.256-0.697,2.075l-1.116-0.398c0.128-1.118,0.482-2.014,1.063-2.689
			c0.581-0.675,1.342-1.013,2.284-1.013c1.046,0,1.876,0.271,2.493,0.813c0.616,0.542,0.924,1.306,0.924,2.291
			c0,0.786-0.238,1.566-0.715,2.341c-0.349,0.587-0.941,1.312-1.778,2.175c-1.43,1.483-2.29,2.745-2.58,3.785h5.195V266.347z"/>
		<path fill="#43668B" d="M221.651,259.557h-2.127v-2.042h2.127V259.557z M221.651,266.363h-2.127v-2.025h2.127V266.363z"/>
		<path fill="#43668B" d="M235.021,253.746h2.789v-1.013c0-0.088,0.069-0.133,0.206-0.133c0.827,0,1.241,0.066,1.241,0.199
			c0,0.144-0.041,0.222-0.122,0.232c-0.093,0.011-0.139,0.111-0.139,0.299v0.415h2.702c0.104,0,0.157,0.066,0.157,0.199v0.531
			c0,0.166-0.052,0.249-0.157,0.249h-2.702v1.212h2.301c0.174,0,0.261,0.066,0.261,0.199v6.425c0,0.133-0.087,0.199-0.261,0.199
			h-2.301v1.328h2.632c0.151,0,0.227,0.094,0.227,0.282v0.515c0,0.188-0.076,0.282-0.227,0.282h-2.632v2.64
			c0,0.144-0.098,0.216-0.292,0.216h-0.688c-0.137,0-0.206-0.072-0.206-0.216v-2.64h-2.719c-0.14,0-0.209-0.094-0.209-0.282v-0.515
			c0-0.188,0.07-0.282,0.209-0.282h2.719v-1.328h-2.333c-0.177,0-0.265-0.066-0.265-0.199v-6.425c0-0.133,0.088-0.199,0.265-0.199
			h2.333v-1.212h-2.789c-0.093,0-0.14-0.083-0.14-0.249v-0.531C234.881,253.813,234.928,253.746,235.021,253.746z M236.398,258.793
			h1.412v-1.81h-1.412V258.793z M237.81,261.715v-2.009h-1.412v2.009H237.81z M238.996,256.983v1.81h1.377v-1.81H238.996z
			 M240.373,261.715v-2.009h-1.377v2.009H240.373z M242.848,253.597h3.26v-0.863c0-0.088,0.074-0.133,0.224-0.133
			c0.815,0,1.223,0.066,1.223,0.199c0,0.144-0.046,0.222-0.139,0.232c-0.082,0.011-0.122,0.111-0.122,0.299v0.266h3.486
			c0.093,0,0.139,0.072,0.139,0.216v0.515c0,0.188-0.046,0.282-0.139,0.282h-3.486v1.262h2.928c0.174,0,0.262,0.066,0.262,0.199
			v4.366c0,0.133-0.087,0.199-0.26,0.199h-0.018c0.22,0.31,0.411,0.592,0.574,0.847c0.244,0.376,0.447,0.78,0.61,1.212
			c0,0.033-0.325,0.127-0.976,0.282c-0.035-0.199-0.11-0.415-0.226-0.647c-0.452,0.022-0.909,0.05-1.372,0.083
			c-1.771,0.133-3.598,0.271-5.48,0.415c-0.104,0.288-0.204,0.443-0.296,0.465c-0.058,0-0.11-0.027-0.157-0.083l-0.401-1.312
			c0.523-0.022,1.731-0.094,3.625-0.216v-1.046h-2.859c-0.186,0-0.279-0.066-0.279-0.199v-4.366c0-0.133,0.093-0.199,0.279-0.199
			h2.859v-1.262h-3.26c-0.093,0-0.139-0.094-0.139-0.282v-0.515C242.708,253.669,242.755,253.597,242.848,253.597z M242.761,263.707
			h4.933c0-0.266-0.012-0.47-0.035-0.614c-0.023-0.133-0.035-0.243-0.035-0.332c0-0.044,0.099-0.066,0.296-0.066l1.342,0.183
			c0.128,0.066,0.192,0.122,0.192,0.166c0,0.089-0.07,0.133-0.209,0.133c-0.209,0.066-0.325,0.244-0.349,0.531h1.953
			c0.093,0,0.139,0.066,0.139,0.199v0.531c0,0.166-0.046,0.249-0.139,0.249h-1.97v2.391c0,0.752-0.575,1.129-1.726,1.129h-0.505
			c-0.07,0-0.104-0.089-0.104-0.266c-0.047-0.21-0.151-0.448-0.314-0.714c0-0.1,0.052-0.149,0.157-0.149
			c0.221,0.1,0.43,0.149,0.628,0.149c0.453,0,0.68-0.177,0.68-0.531v-2.009h-4.933c-0.093,0-0.14-0.083-0.14-0.249v-0.531
			C242.621,263.773,242.667,263.707,242.761,263.707z M243.929,265.035c0.349,0.232,0.639,0.459,0.872,0.681
			c0.255,0.254,0.476,0.492,0.662,0.714c0,0.011-0.029,0.05-0.087,0.116c-0.337,0.454-0.512,0.681-0.523,0.681
			c-0.291-0.343-0.593-0.653-0.907-0.93c-0.255-0.222-0.465-0.376-0.627-0.465c0-0.066,0.157-0.299,0.471-0.697
			C243.847,265.068,243.894,265.035,243.929,265.035z M244.155,257.847h1.952v-1.046h-1.952V257.847z M246.107,259.706v-0.979
			h-1.952v0.979H246.107z M247.293,256.801v1.046h2.004v-1.046H247.293z M249.297,259.706v-0.979h-2.004v0.979H249.297z
			 M249.664,261.433c-0.174-0.276-0.372-0.542-0.593-0.797h-1.778v0.963c0.581-0.033,1.185-0.072,1.813-0.116
			C249.326,261.472,249.512,261.455,249.664,261.433z"/>
		<path fill="#43668B" d="M253.08,255.406h2.301v-2.54c0-0.133,0.087-0.199,0.261-0.199c0.895,0,1.342,0.066,1.342,0.199
			c0,0.155-0.058,0.244-0.174,0.266c-0.128,0.011-0.192,0.122-0.192,0.332v1.942h2.319c0.22,0,0.331,0.083,0.331,0.249v7.803
			c0,0.321-0.157,0.57-0.471,0.747c-0.279,0.144-0.651,0.244-1.116,0.299c-0.128,0-0.203-0.066-0.227-0.199
			c-0.023-0.243-0.163-0.603-0.418-1.079c0-0.033,0.023-0.05,0.07-0.05c0.441,0,0.697-0.033,0.767-0.1
			c0.093-0.066,0.139-0.183,0.139-0.349v-6.275h-1.395v11.438c0,0.133-0.093,0.199-0.279,0.199h-0.697
			c-0.174,0-0.261-0.066-0.261-0.199v-11.438h-1.325v7.853c0,0.133-0.093,0.199-0.279,0.199h-0.697
			c-0.198,0-0.296-0.066-0.296-0.199v-8.649C252.784,255.489,252.882,255.406,253.08,255.406z M262.075,254.194v1.328h5.561
			c0.151,0,0.227,0.094,0.227,0.282v0.515c0,0.188-0.076,0.282-0.227,0.282h-5.561v1.328h5.561c0.151,0,0.227,0.089,0.227,0.266
			v0.531c0,0.166-0.076,0.249-0.227,0.249h-5.561v1.212h6.693c0.128,0,0.192,0.083,0.192,0.249v0.548
			c0,0.166-0.064,0.249-0.192,0.249h-4.131c0.174,0.697,0.366,1.306,0.576,1.826c0.104,0.255,0.215,0.498,0.331,0.73
			c0.313-0.133,0.586-0.271,0.819-0.415c0.441-0.243,0.883-0.575,1.325-0.996c0.07-0.044,0.128-0.066,0.174-0.066
			c0.732,0.576,1.098,0.902,1.098,0.979c0,0.078-0.07,0.116-0.209,0.116c-0.256,0-0.396,0.028-0.418,0.083
			c-0.686,0.521-1.4,0.952-2.144,1.295c0.046,0.066,0.099,0.127,0.157,0.183c0.5,0.675,1.075,1.195,1.726,1.561
			c0.314,0.199,0.61,0.337,0.889,0.415c0.093,0.055,0.14,0.1,0.14,0.133c0,0.122-0.035,0.205-0.105,0.249
			c-0.186,0.221-0.36,0.426-0.523,0.614c-0.046,0.1-0.116,0.149-0.209,0.149c-0.058,0-0.273-0.105-0.645-0.315
			c-0.941-0.609-1.691-1.278-2.249-2.009c-0.43-0.586-0.813-1.262-1.15-2.025c-0.291-0.708-0.546-1.544-0.767-2.507h-1.517v4.814
			c0.86-0.177,1.667-0.376,2.423-0.598c0.023-0.022,0.052-0.033,0.087-0.033c0.081,0,0.122,0.044,0.122,0.133
			c0,0.564-0.023,0.88-0.07,0.946c-1.464,0.387-2.952,0.736-4.462,1.046c-0.163,0.321-0.302,0.481-0.418,0.481
			c-0.104,0-0.331-0.465-0.68-1.395c0.511-0.066,1.092-0.177,1.743-0.332v-5.063h-0.977c-0.151,0-0.227-0.083-0.227-0.249v-0.548
			c0-0.166,0.076-0.249,0.227-0.249h1.098v-6.79c0-0.166,0.093-0.249,0.279-0.249h6.99c0.128,0,0.192,0.083,0.192,0.249v0.548
			c0,0.166-0.064,0.249-0.192,0.249H262.075z"/>
		<path fill="#43668B" d="M272.237,262.097h5.648v-2.042c0-0.144,0.093-0.216,0.279-0.216c0.883,0,1.325,0.072,1.325,0.216
			c0,0.144-0.052,0.227-0.157,0.249c-0.116,0.011-0.174,0.122-0.174,0.332v1.461h5.63c0.151,0,0.227,0.094,0.227,0.282v0.531
			c0,0.177-0.076,0.266-0.227,0.266h-5.63v3.038h7.164c0.151,0,0.227,0.094,0.227,0.282v0.515c0,0.188-0.076,0.282-0.227,0.282
			H270.86c-0.151,0-0.227-0.094-0.227-0.282v-0.515c0-0.188,0.076-0.282,0.227-0.282h7.025v-3.038h-5.648
			c-0.14,0-0.209-0.088-0.209-0.266v-0.531C272.028,262.191,272.098,262.097,272.237,262.097z M271.331,253.464h14.451
			c0.139,0,0.209,0.094,0.209,0.282v0.515c0,0.188-0.07,0.282-0.209,0.282h-8.019c-1.209,1.837-2.075,3.127-2.598,3.868
			c2.592-0.188,5.288-0.432,8.088-0.73l-0.017-0.017c-0.686-0.653-1.255-1.123-1.708-1.411c0-0.055,0.18-0.304,0.541-0.747
			c0.058-0.066,0.11-0.1,0.157-0.1c0.941,0.708,1.708,1.373,2.301,1.992c0.709,0.753,1.308,1.439,1.795,2.059
			c0,0.011-0.029,0.061-0.087,0.149c-0.395,0.521-0.599,0.78-0.61,0.78c-0.441-0.608-0.9-1.167-1.377-1.677
			c-4.114,0.465-7.978,0.819-11.592,1.063c-0.105,0-0.186,0.094-0.244,0.282c-0.035,0.299-0.14,0.448-0.314,0.448
			c-0.163,0-0.465-0.614-0.906-1.843c0.372,0,1.086-0.044,2.144-0.133c0.104-0.011,0.209-0.017,0.314-0.017
			c0.139-0.177,0.267-0.354,0.383-0.531c0.872-1.262,1.627-2.407,2.266-3.437h-4.968c-0.128,0-0.191-0.094-0.191-0.282v-0.515
			C271.139,253.558,271.203,253.464,271.331,253.464z"/>
		<path fill="#43668B" d="M288.623,253.397h15.619c0.15,0,0.227,0.065,0.227,0.196v0.654c0,0.186-0.076,0.278-0.227,0.278h-7.304
			v3.337c1.243,0.62,2.272,1.19,3.085,1.71c1,0.675,1.848,1.29,2.545,1.843c0,0.022-0.035,0.078-0.104,0.166
			c-0.419,0.564-0.64,0.847-0.663,0.847c-1.08-0.885-2.225-1.693-3.434-2.424c-0.523-0.31-1-0.57-1.429-0.78v8.716
			c0,0.133-0.122,0.199-0.366,0.199h-0.697c-0.221,0-0.331-0.066-0.331-0.199v-13.414h-6.92c-0.14,0-0.209-0.093-0.209-0.278v-0.654
			C288.414,253.463,288.483,253.397,288.623,253.397z"/>
		<path fill="#43668B" d="M314.16,252.551c0.93,0,1.395,0.061,1.395,0.183c0,0.155-0.063,0.244-0.191,0.266
			c-0.116,0.011-0.174,0.122-0.174,0.332v1.876h6.832c0.152,0,0.228,0.067,0.228,0.202v0.674c0,0.168-0.075,0.252-0.228,0.252
			h-9.012c-0.035,1.045-0.087,1.947-0.156,2.706h7.564c0.151,0,0.227,0.089,0.227,0.266c-0.034,2.347-0.139,4.04-0.313,5.08
			c-0.175,1.229-0.431,2.142-0.768,2.739c-0.314,0.642-1.139,0.963-2.476,0.963c-0.94,0-1.423-0.133-1.446-0.398
			c-0.07-0.277-0.268-0.609-0.594-0.996v-0.133c0.732,0.088,1.412,0.133,2.04,0.133c0.721,0,1.191-0.222,1.412-0.664
			c0.232-0.365,0.425-1.057,0.575-2.075c0.174-0.786,0.291-2.064,0.349-3.835h-6.694c-0.046,0.332-0.098,0.631-0.156,0.896
			c-0.314,1.406-0.744,2.573-1.29,3.503c-0.487,0.742-1.075,1.378-1.761,1.909c-0.627,0.531-1.436,1.018-2.423,1.461
			c-0.337-0.343-0.64-0.659-0.906-0.946c0.511-0.166,1.121-0.509,1.83-1.029c0.79-0.575,1.43-1.206,1.917-1.893
			c0.605-0.985,1.035-2.075,1.291-3.271c0.244-1.004,0.395-2.477,0.453-4.416h-5.125c-0.151,0-0.227-0.084-0.227-0.252v-0.674
			c0-0.135,0.075-0.202,0.227-0.202h7.304v-2.474C313.864,252.612,313.963,252.551,314.16,252.551z"/>
		<path fill="#43668B" d="M331.871,252.418c0.918,0,1.377,0.061,1.377,0.183c0,0.155-0.059,0.238-0.174,0.249
			c-0.117,0.022-0.175,0.144-0.175,0.365v1.112h6.694c0.186,0,0.279,0.072,0.279,0.216v3.304c0,0.144-0.094,0.216-0.279,0.216
			h-0.697c-0.174,0-0.262-0.072-0.262-0.216v-2.44h-12.917v2.523c0,0.133-0.087,0.199-0.261,0.199h-0.715
			c-0.175,0-0.262-0.066-0.262-0.199v-3.32c0-0.188,0.087-0.282,0.262-0.282h6.832v-1.727
			C331.574,252.479,331.674,252.418,331.871,252.418z M327.81,256.983h8.854c0.188,0,0.279,0.066,0.279,0.199v3.735
			c0,0.166-0.092,0.249-0.279,0.249h-7.879v1.594h8.717c0.197,0,0.297,0.072,0.297,0.216v4.565c0,0.133-0.1,0.199-0.297,0.199
			h-0.697c-0.174,0-0.262-0.066-0.262-0.199v-0.598h-7.758v1.079c0,0.122-0.092,0.183-0.278,0.183h-0.697
			c-0.175,0-0.261-0.061-0.261-0.183v-10.758C327.549,257.078,327.635,256.983,327.81,256.983z M328.785,260.121h6.921v-2.059
			h-6.921V260.121z M328.785,265.898h7.758v-2.059h-7.758V265.898z"/>
		<path fill="#43668B" d="M349.86,252.551c0.93,0,1.395,0.061,1.395,0.183c0,0.155-0.063,0.244-0.191,0.266
			c-0.116,0.011-0.174,0.122-0.174,0.332v1.876h6.833c0.15,0,0.227,0.067,0.227,0.202v0.674c0,0.168-0.076,0.252-0.227,0.252h-9.013
			c-0.034,1.045-0.087,1.947-0.156,2.706h7.565c0.15,0,0.227,0.089,0.227,0.266c-0.035,2.347-0.14,4.04-0.314,5.08
			c-0.174,1.229-0.43,2.142-0.767,2.739c-0.313,0.642-1.139,0.963-2.476,0.963c-0.941,0-1.424-0.133-1.446-0.398
			c-0.07-0.277-0.268-0.609-0.593-0.996v-0.133c0.731,0.088,1.412,0.133,2.039,0.133c0.721,0,1.191-0.222,1.412-0.664
			c0.232-0.365,0.424-1.057,0.575-2.075c0.175-0.786,0.29-2.064,0.349-3.835h-6.693c-0.047,0.332-0.1,0.631-0.157,0.896
			c-0.313,1.406-0.744,2.573-1.29,3.503c-0.488,0.742-1.075,1.378-1.761,1.909c-0.627,0.531-1.436,1.018-2.423,1.461
			c-0.337-0.343-0.639-0.659-0.906-0.946c0.511-0.166,1.121-0.509,1.83-1.029c0.79-0.575,1.43-1.206,1.918-1.893
			c0.604-0.985,1.034-2.075,1.29-3.271c0.243-1.004,0.395-2.477,0.453-4.416h-5.125c-0.151,0-0.227-0.084-0.227-0.252v-0.674
			c0-0.135,0.075-0.202,0.227-0.202h7.304v-2.474C349.564,252.612,349.663,252.551,349.86,252.551z"/>
		<path fill="#43668B" d="M360.18,255.406h2.301v-2.54c0-0.133,0.088-0.199,0.262-0.199c0.895,0,1.343,0.066,1.343,0.199
			c0,0.155-0.059,0.244-0.175,0.266c-0.128,0.011-0.191,0.122-0.191,0.332v1.942h2.318c0.221,0,0.331,0.083,0.331,0.249v7.803
			c0,0.321-0.157,0.57-0.471,0.747c-0.279,0.144-0.651,0.244-1.115,0.299c-0.128,0-0.204-0.066-0.227-0.199
			c-0.023-0.243-0.163-0.603-0.419-1.079c0-0.033,0.023-0.05,0.07-0.05c0.441,0,0.697-0.033,0.767-0.1
			c0.093-0.066,0.14-0.183,0.14-0.349v-6.275h-1.395v11.438c0,0.133-0.094,0.199-0.279,0.199h-0.697
			c-0.174,0-0.262-0.066-0.262-0.199v-11.438h-1.324v7.853c0,0.133-0.094,0.199-0.279,0.199h-0.697
			c-0.197,0-0.296-0.066-0.296-0.199v-8.649C359.884,255.489,359.982,255.406,360.18,255.406z M369.175,254.194v1.328h5.561
			c0.15,0,0.227,0.094,0.227,0.282v0.515c0,0.188-0.076,0.282-0.227,0.282h-5.561v1.328h5.561c0.15,0,0.227,0.089,0.227,0.266v0.531
			c0,0.166-0.076,0.249-0.227,0.249h-5.561v1.212h6.693c0.128,0,0.192,0.083,0.192,0.249v0.548c0,0.166-0.064,0.249-0.192,0.249
			h-4.131c0.174,0.697,0.366,1.306,0.575,1.826c0.104,0.255,0.215,0.498,0.331,0.73c0.313-0.133,0.587-0.271,0.819-0.415
			c0.441-0.243,0.883-0.575,1.324-0.996c0.07-0.044,0.128-0.066,0.175-0.066c0.732,0.576,1.099,0.902,1.099,0.979
			c0,0.078-0.07,0.116-0.21,0.116c-0.256,0-0.395,0.028-0.418,0.083c-0.686,0.521-1.4,0.952-2.145,1.295
			c0.047,0.066,0.099,0.127,0.157,0.183c0.5,0.675,1.075,1.195,1.726,1.561c0.313,0.199,0.61,0.337,0.89,0.415
			c0.093,0.055,0.139,0.1,0.139,0.133c0,0.122-0.034,0.205-0.104,0.249c-0.186,0.221-0.36,0.426-0.522,0.614
			c-0.047,0.1-0.116,0.149-0.209,0.149c-0.059,0-0.273-0.105-0.646-0.315c-0.941-0.609-1.69-1.278-2.249-2.009
			c-0.43-0.586-0.813-1.262-1.15-2.025c-0.29-0.708-0.546-1.544-0.767-2.507h-1.517v4.814c0.86-0.177,1.667-0.376,2.423-0.598
			c0.023-0.022,0.053-0.033,0.087-0.033c0.082,0,0.122,0.044,0.122,0.133c0,0.564-0.023,0.88-0.069,0.946
			c-1.464,0.387-2.952,0.736-4.463,1.046c-0.162,0.321-0.302,0.481-0.418,0.481c-0.104,0-0.331-0.465-0.68-1.395
			c0.511-0.066,1.092-0.177,1.743-0.332v-5.063h-0.977c-0.151,0-0.227-0.083-0.227-0.249v-0.548c0-0.166,0.075-0.249,0.227-0.249
			h1.099v-6.79c0-0.166,0.093-0.249,0.278-0.249h6.99c0.128,0,0.192,0.083,0.192,0.249v0.548c0,0.166-0.064,0.249-0.192,0.249
			H369.175z"/>
		<path fill="#43668B" d="M392.115,253.68c-0.175,0-0.331,0.011-0.471,0.033c-1.29,0.332-2.731,0.581-4.323,0.747
			c-1.801,0.177-3.666,0.266-5.596,0.266v1.727h10.599c0.175,0,0.262,0.072,0.262,0.216v6.159c0,0.144-0.087,0.216-0.262,0.216
			h-0.697c-0.186,0-0.278-0.072-0.278-0.216v-0.93h-9.64c-0.059,1.096-0.222,2.003-0.488,2.723c-0.221,0.764-0.651,1.521-1.29,2.274
			c-0.325,0.454-0.802,0.891-1.43,1.312c-0.081,0-0.14-0.011-0.174-0.033c-0.187-0.166-0.401-0.321-0.646-0.465
			c-0.058-0.056-0.087-0.133-0.087-0.232c0.581-0.376,1.104-0.886,1.568-1.527c0.454-0.697,0.785-1.417,0.994-2.158
			c0.209-0.797,0.313-1.754,0.313-2.872v-6.973c0-0.177,0.087-0.266,0.262-0.266h0.157c2.451-0.033,4.375-0.116,5.77-0.249
			c1.685-0.144,3.195-0.409,4.532-0.797c0.174-0.055,0.319-0.083,0.436-0.083c0.059,0,0.128,0.028,0.209,0.083
			c0.593,0.465,0.89,0.764,0.89,0.896c0,0.232-0.07,0.349-0.209,0.349L392.115,253.68z M381.726,257.531v3.32h9.623v-3.32H381.726z"
			/>
	</g>
	<g>
		<path fill="#43668B" d="M179.954,329.91c0,1.173-0.413,2.086-1.237,2.739c-0.756,0.586-1.714,0.88-2.876,0.88
			c-1.116,0-2.004-0.31-2.667-0.93c-0.523-0.487-0.924-1.223-1.203-2.208l1.098-0.432c0.255,0.797,0.569,1.389,0.941,1.776
			c0.464,0.454,1.075,0.681,1.83,0.681c0.895,0,1.592-0.227,2.092-0.681c0.511-0.442,0.767-1.051,0.767-1.826
			c0-0.608-0.366-1.151-1.098-1.627c-0.314-0.188-1.052-0.537-2.214-1.046c-1.034-0.442-1.755-0.841-2.162-1.195
			c-0.639-0.531-0.958-1.195-0.958-1.992c0-0.974,0.325-1.749,0.976-2.324c0.663-0.575,1.586-0.863,2.771-0.863
			c1.859,0,3.103,0.886,3.73,2.656l-1.168,0.415c-0.546-1.317-1.4-1.976-2.563-1.976c-1.662,0-2.493,0.697-2.493,2.092
			c0,0.509,0.302,0.963,0.907,1.361c0.255,0.188,0.848,0.481,1.778,0.88c1.22,0.542,2.057,0.985,2.51,1.328
			C179.542,328.261,179.954,329.025,179.954,329.91z"/>
		<path fill="#43668B" d="M187.328,326.092h-2.214v5.215c0,0.629,0.262,0.944,0.785,0.944h1.359v1.129h-1.464
			c-0.697,0-1.191-0.166-1.482-0.498c-0.279-0.343-0.418-0.907-0.418-1.693v-5.097h-1.447v-1.129h1.447v-2.225h1.22v2.225h2.214
			V326.092z"/>
		<path fill="#43668B" d="M197.299,328.748v0.531h-5.717c0.116,2.07,0.865,3.104,2.249,3.104c0.976,0,1.743-0.525,2.301-1.577
			l1.081,0.548c-0.418,0.687-0.819,1.179-1.203,1.478c-0.569,0.454-1.296,0.681-2.179,0.681c-1.081,0-1.929-0.41-2.545-1.229
			c-0.639-0.819-0.959-1.887-0.959-3.204c0-1.35,0.36-2.413,1.081-3.188c0.65-0.719,1.476-1.079,2.475-1.079
			c0.964,0,1.761,0.338,2.388,1.013C196.956,326.546,197.299,327.52,197.299,328.748z M196.061,328.15
			c-0.313-1.472-1.04-2.208-2.179-2.208c-1.116,0-1.854,0.736-2.214,2.208H196.061z"/>
		<path fill="#43668B" d="M206.538,329.113c0,1.395-0.366,2.49-1.098,3.287c-0.686,0.73-1.528,1.096-2.528,1.096
			c-1.116,0-2.016-0.465-2.702-1.395v3.785h-1.272v-10.924h1.272v1.378c0.546-1.018,1.417-1.527,2.615-1.527
			c1.139,0,2.045,0.404,2.719,1.212C206.206,326.822,206.538,327.852,206.538,329.113z M205.248,329.113
			c0-2.114-0.808-3.171-2.423-3.171c-0.779,0-1.412,0.31-1.9,0.93c-0.477,0.642-0.714,1.472-0.714,2.49
			c0,0.908,0.279,1.649,0.836,2.225c0.523,0.531,1.145,0.797,1.865,0.797c0.663,0,1.197-0.243,1.604-0.73
			C205.003,331.078,205.248,330.231,205.248,329.113z"/>
		<path fill="#43668B" d="M215.306,330.093c0,1.007-0.343,1.832-1.028,2.474c-0.709,0.642-1.604,0.963-2.685,0.963
			c-1.894,0-3.08-0.93-3.556-2.789l1.133-0.398c0.314,1.384,1.122,2.075,2.423,2.075c0.767,0,1.377-0.232,1.831-0.697
			c0.407-0.432,0.61-0.974,0.61-1.627c0-0.719-0.203-1.312-0.61-1.776c-0.395-0.465-0.941-0.697-1.639-0.697h-1.36v-1.129h1.099
			c0.523,0,1.011-0.266,1.464-0.797c0.454-0.531,0.68-1.073,0.68-1.627c0-1.405-0.663-2.108-1.987-2.108
			c-0.5,0-0.947,0.188-1.342,0.564c-0.407,0.365-0.668,0.836-0.785,1.411l-1.098-0.349c0.151-0.752,0.482-1.378,0.994-1.876
			c0.593-0.564,1.336-0.847,2.231-0.847c1.011,0,1.801,0.277,2.371,0.83c0.581,0.554,0.872,1.345,0.872,2.374
			c0,0.554-0.151,1.09-0.453,1.61c-0.337,0.554-0.785,0.954-1.342,1.201c0.651,0.146,1.174,0.515,1.569,1.106
			C215.103,328.56,215.306,329.263,215.306,330.093z"/>
		<path fill="#43668B" d="M221.651,326.557h-2.127v-2.042h2.127V326.557z M221.651,333.363h-2.127v-2.025h2.127V333.363z"/>
		<path fill="#43668B" d="M237.392,325.378l1.15,0.548c0.105,0.066,0.157,0.127,0.157,0.183c0,0.133-0.087,0.199-0.262,0.199
			c-0.128,0-0.227,0.05-0.296,0.149c-0.139,0.222-0.261,0.421-0.366,0.598h2.213c0.326-0.52,0.616-1.057,0.872-1.61l1.046,0.614
			c0.151,0.066,0.227,0.149,0.227,0.249c0,0.044-0.059,0.066-0.174,0.066c-0.07,0.011-0.291,0.238-0.663,0.681h2.353
			c0.093,0,0.14,0.066,0.14,0.199v0.531c0,0.133-0.046,0.199-0.14,0.199h-2.493v1.112h2.231c0.093,0,0.14,0.072,0.14,0.216v0.515
			c0,0.144-0.047,0.216-0.14,0.216h-2.231v1.328h2.231c0.093,0,0.14,0.066,0.14,0.199v0.531c0,0.133-0.047,0.199-0.14,0.199h-2.231
			v1.046h2.493c0.093,0,0.14,0.072,0.14,0.216v0.515c0,0.144-0.046,0.216-0.14,0.216h-5.979v0.664c0,0.133-0.093,0.199-0.279,0.199
			h-0.697c-0.198,0-0.296-0.066-0.296-0.199v-6.242c-0.139,0.133-0.261,0.244-0.366,0.332c-0.256,0.21-0.454,0.365-0.593,0.465
			c-0.104,0-0.192-0.05-0.262-0.149c-0.139-0.221-0.302-0.409-0.488-0.564c-0.105-0.055-0.157-0.105-0.157-0.149
			c0-0.022,0.012-0.044,0.035-0.066c0.337-0.188,0.622-0.371,0.854-0.548c0.314-0.266,0.622-0.586,0.924-0.963
			c0.221-0.266,0.395-0.52,0.523-0.764c0.14-0.243,0.273-0.52,0.401-0.83C237.316,325.411,237.357,325.378,237.392,325.378z
			 M236.328,321.726h2.859v-1.859c0-0.133,0.093-0.199,0.279-0.199c0.883,0,1.325,0.066,1.325,0.199
			c0,0.155-0.052,0.244-0.157,0.266c-0.116,0.011-0.174,0.122-0.174,0.332v1.262h2.702c0.104,0,0.157,0.066,0.157,0.199v0.531
			c0,0.177-0.052,0.266-0.157,0.266h-2.702v1.544h4.201c-0.082-1.229-0.14-2.739-0.174-4.532c0-0.122,0.046-0.183,0.14-0.183
			l1.168,0.083c0.197,0,0.296,0.056,0.296,0.166c0,0.133-0.046,0.222-0.139,0.266c-0.082,0.044-0.122,0.177-0.122,0.398
			c0,1.483,0.023,2.75,0.07,3.802h4.445c0.093,0,0.14,0.066,0.14,0.199v0.531c0,0.177-0.046,0.266-0.14,0.266h-4.393
			c0.093,1.173,0.261,2.264,0.505,3.271c0.163,0.786,0.337,1.456,0.523,2.009c0.302-0.498,0.569-1.057,0.802-1.677
			c0.221-0.62,0.424-1.339,0.61-2.158c0.023-0.077,0.046-0.116,0.07-0.116l1.133,0.481c0.128,0.066,0.192,0.149,0.192,0.249
			c0,0.056-0.07,0.083-0.209,0.083c-0.116,0-0.203,0.056-0.261,0.166c-0.291,1.019-0.575,1.849-0.854,2.49
			c-0.268,0.708-0.57,1.334-0.907,1.876c0.198,0.41,0.418,0.78,0.663,1.112c0.255,0.199,0.459,0.299,0.61,0.299
			c0.128,0,0.291-0.172,0.488-0.515c0.221-0.376,0.453-0.957,0.697-1.743c0.058,0,0.122,0.056,0.192,0.166
			c0.127,0.188,0.29,0.371,0.488,0.548c0.151,0.078,0.227,0.199,0.227,0.365c-0.325,0.774-0.622,1.389-0.889,1.843
			c-0.407,0.631-0.791,0.946-1.151,0.946c-0.151,0-0.313-0.05-0.488-0.149c-0.291-0.144-0.599-0.415-0.924-0.813
			c-0.233-0.277-0.459-0.609-0.68-0.996c-0.325,0.42-0.68,0.802-1.063,1.146c-0.36,0.288-0.651,0.509-0.872,0.664
			c-0.186,0-0.291-0.044-0.314-0.133c-0.151-0.288-0.354-0.576-0.61-0.863c0.441-0.255,0.883-0.587,1.325-0.996
			c0.337-0.332,0.645-0.686,0.924-1.063c-0.314-0.808-0.593-1.688-0.837-2.64c-0.244-1.173-0.441-2.396-0.592-3.669
			c-0.012-0.066-0.018-0.127-0.018-0.183h-9.291c-0.093,0-0.14-0.088-0.14-0.266v-0.531c0-0.133,0.046-0.199,0.14-0.199h3.748
			v-1.544h-2.859c-0.081,0-0.122-0.088-0.122-0.266v-0.531C236.207,321.792,236.247,321.726,236.328,321.726z M239.902,329.097
			v-1.112h-2.231v1.112H239.902z M239.902,331.371v-1.328h-2.231v1.328H239.902z M237.67,333.347h2.231v-1.046h-2.231V333.347z
			 M247.554,320.746c0.5,0.332,0.907,0.647,1.22,0.946c0.372,0.354,0.686,0.675,0.941,0.963c0,0.022-0.029,0.061-0.087,0.116
			c-0.337,0.454-0.518,0.681-0.541,0.681c-0.384-0.465-0.802-0.885-1.255-1.262c-0.36-0.31-0.662-0.525-0.906-0.647
			c0-0.066,0.163-0.299,0.488-0.697C247.473,320.779,247.52,320.746,247.554,320.746z"/>
		<path fill="#43668B" d="M253.777,320.016h13.719c0.186,0,0.279,0.066,0.279,0.199v14.742c0,0.133-0.093,0.199-0.279,0.199h-0.697
			c-0.174,0-0.261-0.066-0.261-0.199v-0.481h-11.784v0.481c0,0.133-0.093,0.199-0.279,0.199h-0.697
			c-0.198,0-0.296-0.066-0.296-0.199v-14.742C253.481,320.082,253.58,320.016,253.777,320.016z M254.754,333.496h11.784v-12.484
			h-11.784V333.496z M257.09,321.991h7.616c0.198,0,0.297,0.072,0.297,0.216v2.258c0,0.122-0.099,0.183-0.296,0.183H261.5v0.797
			h4.341c0.081,0,0.122,0.072,0.122,0.216v0.515c0,0.144-0.041,0.216-0.122,0.216h-10.058c-0.093,0-0.14-0.072-0.14-0.216v-0.515
			c0-0.144,0.046-0.216,0.14-0.216h4.532v-0.797h-3.224c-0.175,0-0.263-0.061-0.263-0.183v-2.258
			C256.828,322.063,256.915,321.991,257.09,321.991z M256.271,327.32h8.994c0.186,0,0.279,0.061,0.279,0.183v5.047
			c0,0.144-0.093,0.216-0.279,0.216h-8.994c-0.187,0-0.28-0.072-0.28-0.216v-5.047C255.991,327.381,256.084,327.32,256.271,327.32z
			 M264.358,331.886v-3.719h-7.182v3.719H264.358z M263.818,323.801v-0.93h-5.805v0.93H263.818z M258.571,328.831h4.532
			c0.197,0,0.296,0.044,0.296,0.133v2.125c0,0.089-0.099,0.133-0.296,0.133h-4.532c-0.174,0-0.262-0.044-0.262-0.133v-2.125
			C258.31,328.875,258.397,328.831,258.571,328.831z M262.336,330.425v-0.797h-2.998v0.797H262.336z"/>
		<path fill="#43668B" d="M272.464,321.194v12.086h13.928c0.104,0,0.157,0.072,0.157,0.216v0.515c0,0.188-0.053,0.282-0.157,0.282
			h-13.928v0.515c0,0.144-0.099,0.216-0.296,0.216h-0.697c-0.186,0-0.279-0.072-0.279-0.216v-14.41c0-0.122,0.093-0.183,0.279-0.183
			h14.451c0.082,0,0.122,0.061,0.122,0.183v0.548c0,0.166-0.041,0.249-0.122,0.249H272.464z M273.301,324.78
			c0.476,0.299,0.865,0.57,1.167,0.813c0.349,0.31,0.657,0.598,0.924,0.863c0,0.011-0.029,0.05-0.087,0.116
			c-0.349,0.454-0.529,0.681-0.541,0.681c-0.395-0.398-0.808-0.769-1.237-1.112c-0.349-0.254-0.639-0.442-0.872-0.564
			c0-0.055,0.168-0.282,0.505-0.681C273.208,324.819,273.254,324.78,273.301,324.78z M276.491,328.101
			c0.046,0,0.081,0.044,0.104,0.133c0.267,0.542,0.401,0.83,0.401,0.863c0,0.056-0.029,0.1-0.087,0.133
			c-0.569,0.653-1.104,1.207-1.604,1.66c-0.279,0.255-0.616,0.531-1.011,0.83c-0.069,0.078-0.104,0.183-0.104,0.315
			s-0.041,0.199-0.122,0.199c-0.081,0-0.418-0.321-1.011-0.963c-0.059-0.033-0.099-0.094-0.122-0.183
			c0-0.044,0.023-0.083,0.07-0.116c0.337-0.155,0.68-0.359,1.028-0.614c0.465-0.343,0.918-0.725,1.36-1.146
			c0.383-0.376,0.714-0.725,0.993-1.046C276.421,328.123,276.456,328.101,276.491,328.101z M274.556,321.726
			c0.453,0.31,0.825,0.592,1.116,0.847c0.36,0.332,0.656,0.625,0.889,0.88c0,0.011-0.029,0.056-0.087,0.133
			c-0.337,0.454-0.517,0.681-0.541,0.681c-0.36-0.42-0.75-0.802-1.168-1.146c-0.349-0.276-0.627-0.476-0.836-0.598
			c0-0.055,0.157-0.282,0.471-0.681C274.457,321.765,274.509,321.726,274.556,321.726z M278.778,321.676l1.084,0.415
			c0.164,0.066,0.245,0.149,0.245,0.249c0,0.111-0.099,0.194-0.297,0.249c-0.28,0-0.449,0.094-0.507,0.282
			c-0.187,0.354-0.379,0.681-0.577,0.979h2.764c0.117-0.177,0.205-0.332,0.263-0.465c0.198-0.354,0.367-0.797,0.507-1.328
			c0.023-0.088,0.052-0.133,0.087-0.133c0.942,0.354,1.413,0.554,1.413,0.598c0,0.056-0.07,0.1-0.209,0.133
			c-0.139,0.033-0.238,0.122-0.296,0.266c-0.128,0.299-0.273,0.609-0.436,0.93h2.667c0.093,0,0.139,0.066,0.139,0.199v0.531
			c0,0.177-0.046,0.266-0.139,0.266h-2.859v1.395h2.528c0.093,0,0.139,0.072,0.139,0.216v0.515c0,0.188-0.046,0.282-0.139,0.282
			h-2.528v1.395h2.528c0.093,0,0.139,0.061,0.139,0.183v0.548c0,0.166-0.046,0.249-0.139,0.249h-2.528v1.395h3.155
			c0.093,0,0.139,0.066,0.139,0.199v0.531c0,0.188-0.046,0.282-0.139,0.282h-6.92v0.382c0,0.133-0.088,0.199-0.265,0.199h-0.726
			c-0.13,0-0.195-0.066-0.195-0.199v-7.089c-0.209,0.255-0.407,0.476-0.593,0.664c-0.163,0.166-0.296,0.249-0.401,0.249
			c-0.081,0-0.18-0.033-0.296-0.1c-0.232-0.11-0.459-0.205-0.68-0.282c-0.082-0.033-0.122-0.055-0.122-0.066
			c0-0.044,0.035-0.11,0.104-0.199c0.732-0.653,1.278-1.223,1.639-1.71c0.536-0.642,0.932-1.289,1.188-1.942
			C278.585,321.765,278.673,321.676,278.778,321.676z M281.441,326.241v-1.395h-2.58v1.395H281.441z M281.441,328.648v-1.395h-2.58
			v1.395H281.441z M278.861,331.022h2.58v-1.395h-2.58V331.022z"/>
		<path fill="#43668B" d="M290.018,330.043l1.081,0.398c0.163,0.078,0.244,0.166,0.244,0.266s-0.058,0.172-0.174,0.216
			c-0.163,0-0.273,0.083-0.331,0.249c-0.442,1.218-0.883,2.158-1.325,2.822c-0.116,0.155-0.204,0.232-0.262,0.232
			c-0.081,0-0.186-0.044-0.313-0.133c-0.256-0.122-0.494-0.232-0.715-0.332c-0.093-0.033-0.14-0.056-0.14-0.066
			c0-0.044,0.023-0.1,0.07-0.166c0.441-0.587,0.767-1.096,0.976-1.527c0.337-0.575,0.575-1.151,0.715-1.727
			C289.901,330.121,289.959,330.043,290.018,330.043z M288.78,321.261h3.469v-1.527c0-0.122,0.099-0.183,0.296-0.183
			c0.883,0,1.325,0.061,1.325,0.183c0,0.155-0.064,0.244-0.192,0.266c-0.116,0.011-0.174,0.122-0.174,0.332v0.93h3.434
			c0.14,0,0.209,0.094,0.209,0.282v0.515c0,0.188-0.069,0.282-0.209,0.282h-3.434v1.461h2.807c0.127,0,0.191,0.083,0.191,0.249
			v0.531c0,0.177-0.064,0.266-0.191,0.266h-6.903c-0.151,0-0.227-0.088-0.227-0.266v-0.531c0-0.166,0.076-0.249,0.227-0.249h2.841
			v-1.461h-3.469c-0.151,0-0.227-0.094-0.227-0.282v-0.515C288.553,321.355,288.629,321.261,288.78,321.261z M288.78,328.366h8.298
			c0.127,0,0.191,0.094,0.191,0.282v0.531c0,0.177-0.064,0.266-0.191,0.266h-3.504v4.051c0,0.83-0.721,1.245-2.162,1.245h-0.471
			c-0.093,0-0.139-0.1-0.139-0.299c-0.023-0.255-0.122-0.548-0.296-0.88v-0.066c0.302,0.088,0.581,0.133,0.836,0.133
			c0.651,0,0.976-0.199,0.976-0.598v-3.586h-3.539c-0.151,0-0.227-0.088-0.227-0.266v-0.531
			C288.553,328.46,288.629,328.366,288.78,328.366z M289.756,326.042h6.118c0.151,0,0.227,0.089,0.227,0.266v0.531
			c0,0.188-0.076,0.282-0.227,0.282h-6.118c-0.14,0-0.209-0.094-0.209-0.282v-0.531
			C289.547,326.131,289.617,326.042,289.756,326.042z M295.474,330.176c0.104,0,0.174,0.017,0.209,0.05
			c0.43,0.697,0.825,1.45,1.185,2.258c0,0.166-0.041,0.26-0.122,0.282c-0.418,0.254-0.755,0.382-1.011,0.382
			c-0.36-0.985-0.704-1.798-1.029-2.44C294.707,330.574,294.962,330.397,295.474,330.176z M300.146,324.581
			c1.104,0.111,1.655,0.199,1.655,0.266c0,0.078-0.058,0.144-0.174,0.199c-0.186,0.078-0.285,0.232-0.297,0.465
			c-0.023,1.107-0.086,2.053-0.191,2.839c0,0.044-0.006,0.094-0.018,0.149c0.129,0.521,0.262,0.985,0.401,1.395
			c0.151,0.509,0.337,0.969,0.558,1.378c0.326,0.62,0.721,1.162,1.186,1.627c0.418,0.42,0.889,0.736,1.412,0.946
			c0.035,0.033,0.053,0.066,0.053,0.1c0,0.1-0.047,0.188-0.141,0.266c-0.197,0.188-0.389,0.398-0.574,0.631
			c-0.047,0.122-0.129,0.183-0.244,0.183c-0.047,0-0.181-0.1-0.401-0.299c-0.686-0.542-1.261-1.162-1.726-1.859
			c-0.36-0.553-0.633-1.134-0.819-1.743c-0.046-0.1-0.087-0.221-0.122-0.365c-0.116,0.343-0.227,0.647-0.331,0.913
			c-0.21,0.576-0.482,1.09-0.819,1.544c-0.256,0.321-0.541,0.614-0.854,0.88c-0.384,0.376-0.86,0.708-1.43,0.996
			c-0.07,0-0.139-0.05-0.209-0.149c-0.151-0.188-0.343-0.382-0.575-0.581c-0.07-0.078-0.104-0.122-0.104-0.133
			c0-0.056,0.017-0.083,0.052-0.083c0.534-0.277,0.906-0.509,1.115-0.697c0.302-0.232,0.604-0.531,0.907-0.896
			s0.557-0.808,0.767-1.328c0.209-0.487,0.372-0.996,0.487-1.527c0.129-0.465,0.21-0.974,0.244-1.527
			c0.082-0.598,0.123-1.549,0.123-2.855v-0.598C300.076,324.625,300.099,324.581,300.146,324.581z M298.942,319.484l1.22,0.415
			c0.117,0.1,0.175,0.183,0.175,0.249c0,0.1-0.046,0.161-0.14,0.183c-0.104,0-0.168,0.083-0.191,0.249
			c-0.186,0.886-0.343,1.6-0.471,2.142h4.428c0.174,0,0.291,0.028,0.349,0.083c0.232,0.199,0.349,0.349,0.349,0.448l-1.481,3.818
			c-0.023,0.078-0.059,0.116-0.104,0.116c-0.651-0.188-0.977-0.349-0.977-0.481l1.168-2.905h-4.027
			c-0.186,0.542-0.372,1.063-0.557,1.561c-0.256,0.542-0.512,1.035-0.767,1.478c-0.151,0-0.285-0.017-0.401-0.05
			c-0.221-0.088-0.447-0.166-0.68-0.232c-0.082-0.033-0.122-0.066-0.122-0.1c0-0.077,0.018-0.138,0.052-0.183
			c0.418-0.653,0.796-1.45,1.133-2.391c0.186-0.542,0.354-1.123,0.506-1.743c0.163-0.653,0.313-1.488,0.453-2.507
			C298.878,319.534,298.908,319.484,298.942,319.484z"/>
		<path fill="#43668B" d="M306.473,322.456h5.16c0.15,0,0.227,0.089,0.227,0.266v0.531c0,0.188-0.076,0.282-0.227,0.282h-5.16
			c-0.139,0-0.209-0.094-0.209-0.282v-0.531C306.264,322.545,306.334,322.456,306.473,322.456z M306.822,329.628h4.199
			c0.188,0,0.28,0.066,0.28,0.199v4.98c0,0.144-0.092,0.216-0.274,0.216h-0.688c-0.148,0-0.224-0.072-0.224-0.216v-0.797h-2.318
			v0.797c0,0.144-0.089,0.216-0.265,0.216h-0.709c-0.141,0-0.211-0.072-0.211-0.216v-4.897
			C306.613,329.722,306.683,329.628,306.822,329.628z M306.892,324.847h4.201c0.14,0,0.209,0.094,0.209,0.282v0.531
			c0,0.177-0.069,0.266-0.209,0.266h-4.201c-0.128,0-0.192-0.088-0.192-0.266v-0.531
			C306.699,324.941,306.764,324.847,306.892,324.847z M306.892,327.254h4.201c0.14,0,0.209,0.083,0.209,0.249v0.548
			c0,0.166-0.069,0.249-0.209,0.249h-4.201c-0.128,0-0.192-0.083-0.192-0.249v-0.548
			C306.699,327.337,306.764,327.254,306.892,327.254z M307.101,320.082h3.992c0.14,0,0.209,0.083,0.209,0.249v0.548
			c0,0.166-0.069,0.249-0.209,0.249h-3.992c-0.14,0-0.209-0.083-0.209-0.249v-0.548
			C306.892,320.165,306.961,320.082,307.101,320.082z M307.798,332.965h2.318v-2.258h-2.318V332.965z M313.254,320.016h3.695
			c0.116,0,0.209,0.028,0.279,0.083c0.221,0.232,0.331,0.376,0.331,0.432c-0.209,0.73-0.413,1.295-0.61,1.693
			c-0.232,0.498-0.471,0.908-0.715,1.229c-0.221,0.288-0.477,0.559-0.767,0.813h4.394c-0.164-0.221-0.32-0.442-0.471-0.664
			c-0.408-0.553-0.965-1.577-1.674-3.071l0.767-0.664c0.221,0.454,0.425,0.863,0.61,1.229c0.059-0.033,0.099-0.061,0.122-0.083
			c0.221-0.166,0.424-0.359,0.61-0.581c0.186-0.21,0.336-0.437,0.453-0.681c0.035-0.055,0.058-0.083,0.069-0.083l0.802,0.564
			c0.116,0.056,0.174,0.133,0.174,0.232c0,0.089-0.068,0.133-0.209,0.133c-0.093,0-0.162,0.033-0.209,0.1
			c-0.5,0.531-0.953,0.924-1.359,1.179c0.128,0.222,0.25,0.404,0.366,0.548c0.14,0.188,0.267,0.365,0.384,0.531
			c0.069-0.044,0.127-0.088,0.174-0.133c0.268-0.188,0.512-0.404,0.732-0.647c0.209-0.243,0.383-0.492,0.523-0.747
			c0.034-0.066,0.063-0.1,0.086-0.1l0.803,0.548c0.115,0.066,0.174,0.155,0.174,0.266c0,0.089-0.07,0.133-0.209,0.133
			c-0.104,0-0.186,0.033-0.244,0.1c-0.512,0.542-0.994,0.969-1.447,1.278c0.141,0.155,0.279,0.299,0.419,0.432
			c0.522,0.521,1.046,0.869,1.569,1.046c0,0.078-0.047,0.133-0.141,0.166c-0.336,0.277-0.58,0.498-0.731,0.664
			c-0.047,0.056-0.134,0.083-0.262,0.083c-0.581-0.365-1.133-0.869-1.655-1.511v0.531c0,0.166-0.076,0.249-0.227,0.249h-4.672
			c-0.129,0-0.192-0.083-0.192-0.249v-0.432c-0.337,0.244-0.697,0.448-1.081,0.614c-0.325,0.177-0.755,0.338-1.289,0.481
			c-0.151,0-0.256-0.05-0.314-0.149c-0.128-0.166-0.25-0.332-0.365-0.498c-0.059-0.066-0.088-0.116-0.088-0.149
			c0-0.044,0.023-0.077,0.07-0.1c0.313-0.077,0.627-0.171,0.941-0.282c0.58-0.21,1.063-0.476,1.446-0.797l0.018-0.017
			c-0.21-0.221-0.425-0.415-0.646-0.581c-0.29-0.232-0.534-0.398-0.732-0.498c0-0.055,0.169-0.282,0.506-0.681
			c0.047-0.077,0.088-0.116,0.123-0.116c0.406,0.266,0.731,0.504,0.976,0.714c0.197,0.188,0.366,0.349,0.505,0.481
			c0.094-0.1,0.175-0.205,0.244-0.315c0.256-0.332,0.465-0.719,0.628-1.162c0.081-0.188,0.169-0.398,0.262-0.631h-2.946
			c-0.104,0-0.156-0.066-0.156-0.199v-0.531C313.098,320.082,313.149,320.016,313.254,320.016z M319.512,330.956l1.063,0.432
			c0.187,0.066,0.279,0.149,0.279,0.249c0,0.066-0.047,0.111-0.14,0.133c-0.116,0-0.186,0.056-0.209,0.166
			c-0.291,0.797-0.587,1.405-0.889,1.826h2.475c0.15,0,0.227,0.083,0.227,0.249v0.531c0,0.177-0.076,0.266-0.227,0.266h-9.326
			c-0.139,0-0.209-0.089-0.209-0.266v-0.531c0-0.166,0.07-0.249,0.209-0.249h6.188c-0.175-0.066-0.331-0.133-0.471-0.199
			c-0.104-0.033-0.157-0.056-0.157-0.066c0-0.033,0.018-0.078,0.053-0.133c0.268-0.388,0.465-0.736,0.593-1.046
			c0.209-0.398,0.36-0.791,0.453-1.179C319.448,331.017,319.477,330.956,319.512,330.956z M314.037,326.706h6.748
			c0.174,0,0.261,0.066,0.261,0.199v3.453c0,0.133-0.087,0.199-0.261,0.199h-6.748c-0.197,0-0.295-0.066-0.295-0.199v-3.453
			C313.742,326.772,313.84,326.706,314.037,326.706z M315.398,330.956c0.337,0.465,0.609,0.891,0.818,1.278
			c0.21,0.354,0.379,0.725,0.506,1.112c0,0.033-0.365,0.149-1.098,0.349c-0.059-0.266-0.181-0.576-0.366-0.93
			c-0.187-0.42-0.442-0.841-0.767-1.262C314.492,331.427,314.794,331.244,315.398,330.956z M319.861,329.562v-1.859h-4.934v1.859
			H319.861z"/>
		<path fill="#43668B" d="M325.178,320.813h5.369c0.174,0,0.261,0.066,0.261,0.199v10.011c0,0.133-0.087,0.199-0.261,0.199h-0.697
			c-0.187,0-0.279-0.066-0.279-0.199v-0.531h-3.416v1.926c0,0.133-0.094,0.199-0.279,0.199h-0.697c-0.198,0-0.297-0.066-0.297-0.199
			v-11.355C324.881,320.896,324.979,320.813,325.178,320.813z M326.154,325.063h3.416v-3.204h-3.416V325.063z M326.154,329.445
			h3.416v-3.337h-3.416V329.445z M332.708,320.331h6.327c0.244,0,0.367,0.089,0.367,0.266v12.667c0,0.52-0.285,0.93-0.855,1.229
			c-0.533,0.232-1.225,0.387-2.074,0.465c-0.127,0-0.209-0.072-0.244-0.216c-0.012-0.232-0.139-0.581-0.383-1.046
			c0-0.066,0.053-0.1,0.156-0.1c1.023,0,1.627-0.066,1.813-0.199c0.211-0.133,0.314-0.338,0.314-0.614v-3.088h-4.689
			c-0.069,0.421-0.162,0.797-0.278,1.129c-0.209,0.853-0.634,1.693-1.272,2.523c-0.326,0.52-0.797,1.007-1.412,1.461
			c-0.082,0-0.15-0.011-0.209-0.033c-0.186-0.177-0.396-0.327-0.627-0.448c-0.047-0.066-0.07-0.149-0.07-0.249
			c0.569-0.421,1.086-0.996,1.551-1.727c0.465-0.764,0.797-1.566,0.994-2.407c0.197-0.885,0.297-1.964,0.297-3.237v-6.109
			C332.412,320.42,332.51,320.331,332.708,320.331z M333.58,328.648h4.549v-3.204h-4.463v1.262
			C333.666,327.426,333.638,328.073,333.58,328.648z M333.666,324.398h4.463v-2.988h-4.463V324.398z"/>
	</g>
	<g>
		<path fill="#43668B" d="M179.954,399.91c0,1.173-0.413,2.086-1.237,2.739c-0.756,0.586-1.714,0.88-2.876,0.88
			c-1.116,0-2.004-0.31-2.667-0.93c-0.523-0.487-0.924-1.223-1.203-2.208l1.098-0.432c0.255,0.797,0.569,1.389,0.941,1.776
			c0.464,0.454,1.075,0.681,1.83,0.681c0.895,0,1.592-0.227,2.092-0.681c0.511-0.442,0.767-1.051,0.767-1.826
			c0-0.608-0.366-1.151-1.098-1.627c-0.314-0.188-1.052-0.537-2.214-1.046c-1.034-0.442-1.755-0.841-2.162-1.195
			c-0.639-0.531-0.958-1.195-0.958-1.992c0-0.974,0.325-1.749,0.976-2.324c0.663-0.575,1.586-0.863,2.771-0.863
			c1.859,0,3.103,0.886,3.73,2.656l-1.168,0.415c-0.546-1.317-1.4-1.976-2.563-1.976c-1.662,0-2.493,0.697-2.493,2.092
			c0,0.509,0.302,0.963,0.907,1.361c0.255,0.188,0.848,0.481,1.778,0.88c1.22,0.542,2.057,0.985,2.51,1.328
			C179.542,398.261,179.954,399.025,179.954,399.91z"/>
		<path fill="#43668B" d="M187.328,396.092h-2.214v5.215c0,0.629,0.262,0.944,0.785,0.944h1.359v1.129h-1.464
			c-0.697,0-1.191-0.166-1.482-0.498c-0.279-0.343-0.418-0.907-0.418-1.693v-5.097h-1.447v-1.129h1.447v-2.225h1.22v2.225h2.214
			V396.092z"/>
		<path fill="#43668B" d="M197.299,398.748v0.531h-5.717c0.116,2.07,0.865,3.104,2.249,3.104c0.976,0,1.743-0.525,2.301-1.577
			l1.081,0.548c-0.418,0.687-0.819,1.179-1.203,1.478c-0.569,0.454-1.296,0.681-2.179,0.681c-1.081,0-1.929-0.41-2.545-1.229
			c-0.639-0.819-0.959-1.887-0.959-3.204c0-1.35,0.36-2.413,1.081-3.188c0.65-0.719,1.476-1.079,2.475-1.079
			c0.964,0,1.761,0.338,2.388,1.013C196.956,396.546,197.299,397.52,197.299,398.748z M196.061,398.15
			c-0.313-1.472-1.04-2.208-2.179-2.208c-1.116,0-1.854,0.736-2.214,2.208H196.061z"/>
		<path fill="#43668B" d="M206.538,399.113c0,1.395-0.366,2.49-1.098,3.287c-0.686,0.73-1.528,1.096-2.528,1.096
			c-1.116,0-2.016-0.465-2.702-1.395v3.785h-1.272v-10.924h1.272v1.378c0.546-1.018,1.417-1.527,2.615-1.527
			c1.139,0,2.045,0.404,2.719,1.212C206.206,396.822,206.538,397.852,206.538,399.113z M205.248,399.113
			c0-2.114-0.808-3.171-2.423-3.171c-0.779,0-1.412,0.31-1.9,0.93c-0.477,0.642-0.714,1.472-0.714,2.49
			c0,0.908,0.279,1.649,0.836,2.225c0.523,0.531,1.145,0.797,1.865,0.797c0.663,0,1.197-0.243,1.604-0.73
			C205.003,401.078,205.248,400.231,205.248,399.113z"/>
		<path fill="#43668B" d="M215.515,400.342h-1.412v3.021h-1.22v-3.021h-5.073v-1.262l5.16-8.085h1.133v8.218h1.412V400.342z
			 M212.883,399.213v-5.943l-3.87,5.943H212.883z"/>
		<path fill="#43668B" d="M221.651,396.557h-2.127v-2.042h2.127V396.557z M221.651,403.363h-2.127v-2.025h2.127V403.363z"/>
		<path fill="#43668B" d="M238.769,389.551c0.977,0.487,1.464,0.77,1.464,0.847c0,0.1-0.046,0.149-0.139,0.149
			c-0.198,0.022-0.332,0.089-0.401,0.199c-0.465,1.195-0.93,2.208-1.395,3.038v11.023c0,0.144-0.099,0.216-0.296,0.216h-0.697
			c-0.186,0-0.279-0.072-0.279-0.216v-9.131c-0.418,0.531-0.947,1.162-1.586,1.893c-0.14,0-0.268-0.05-0.384-0.149
			c-0.174-0.144-0.354-0.288-0.54-0.432c-0.082-0.066-0.122-0.138-0.122-0.216c0.5-0.553,1.005-1.14,1.517-1.76
			c0.662-0.819,1.237-1.727,1.726-2.723c0.43-0.896,0.761-1.771,0.994-2.623C238.664,389.59,238.71,389.551,238.769,389.551z
			 M240.32,400.707h6.973v-0.066c0-0.332-0.023-0.581-0.07-0.747c-0.046-0.133-0.07-0.243-0.07-0.332
			c0-0.077,0.11-0.116,0.331-0.116l1.412,0.166c0.128,0.056,0.192,0.105,0.192,0.149c0,0.111-0.07,0.166-0.209,0.166
			c-0.221,0.089-0.331,0.349-0.331,0.78h2.371c0.128,0,0.192,0.083,0.192,0.249v0.548c0,0.166-0.064,0.249-0.192,0.249h-2.371v2.125
			c0,0.808-0.633,1.212-1.9,1.212h-1.098c-0.104,0-0.157-0.1-0.157-0.299c-0.046-0.222-0.157-0.481-0.331-0.78
			c0-0.089,0.041-0.133,0.122-0.133c0.488,0.088,0.936,0.133,1.342,0.133c0.511,0,0.767-0.194,0.767-0.581v-1.677h-6.973
			c-0.151,0-0.227-0.083-0.227-0.249v-0.548C240.094,400.79,240.169,400.707,240.32,400.707z M240.669,390.68h4.323v-0.946
			c0-0.122,0.087-0.183,0.262-0.183c0.895,0,1.342,0.061,1.342,0.183c0,0.155-0.059,0.244-0.174,0.266
			c-0.128,0.011-0.192,0.122-0.192,0.332v0.349h4.462c0.151,0,0.227,0.089,0.227,0.266v0.531c0,0.166-0.076,0.249-0.227,0.249
			h-4.462v0.93h3.783c0.186,0,0.279,0.072,0.279,0.216v4.449c0,0.122-0.093,0.183-0.279,0.183h-0.732
			c0.232,0.232,0.43,0.438,0.592,0.614c0.349,0.421,0.651,0.797,0.907,1.129c0,0.011-0.035,0.05-0.104,0.116
			c-0.337,0.454-0.512,0.681-0.523,0.681c-0.221-0.321-0.442-0.608-0.663-0.863c-0.593,0.022-1.209,0.056-1.848,0.1
			c-2.127,0.133-4.312,0.271-6.554,0.415c-0.105,0.299-0.204,0.459-0.296,0.481c-0.059,0-0.116-0.033-0.174-0.1l-0.454-1.428
			c0.663-0.022,2.272-0.083,4.829-0.183v-0.963h-3.695c-0.198,0-0.296-0.061-0.296-0.183v-4.449c0-0.144,0.099-0.216,0.296-0.216
			h3.695v-0.93h-4.323c-0.14,0-0.209-0.083-0.209-0.249v-0.531C240.459,390.769,240.529,390.68,240.669,390.68z M242.186,402.301
			c0.453,0.254,0.825,0.503,1.115,0.747c0.326,0.288,0.61,0.542,0.854,0.764c0,0.022-0.029,0.066-0.087,0.133
			c-0.349,0.442-0.529,0.664-0.54,0.664c-0.372-0.365-0.756-0.697-1.151-0.996c-0.325-0.255-0.599-0.432-0.819-0.531
			c0-0.056,0.168-0.282,0.506-0.681C242.11,402.334,242.15,402.301,242.186,402.301z M242.255,394.581h2.737v-0.913h-2.737V394.581z
			 M244.992,396.523v-0.946h-2.737v0.946H244.992z M246.229,393.668v0.913h2.789v-0.913H246.229z M249.019,396.523v-0.946h-2.789
			v0.946H249.019z M248.652,398.283c-0.221-0.188-0.401-0.332-0.54-0.432c0-0.044,0.069-0.16,0.209-0.349h-2.092v0.896
			c0.593-0.033,1.208-0.061,1.848-0.083C248.287,398.306,248.478,398.294,248.652,398.283z"/>
		<path fill="#43668B" d="M253.29,393.319c0.627,0.232,1.145,0.438,1.551,0.614c0.477,0.244,0.889,0.459,1.238,0.647
			c0,0.022-0.029,0.072-0.087,0.149c-0.349,0.476-0.529,0.714-0.54,0.714c-0.523-0.299-1.081-0.575-1.674-0.83
			c-0.477-0.199-0.877-0.343-1.203-0.432c0-0.055,0.186-0.304,0.558-0.747C253.19,393.358,253.243,393.319,253.29,393.319z
			 M253.011,397.387h3.138c0.174,0,0.261,0.061,0.261,0.183v3.735c0.012,0.62,0.07,1.079,0.174,1.378
			c0.093,0.332,0.232,0.581,0.418,0.747c0.232,0.232,0.511,0.393,0.836,0.481c0.442,0.11,0.918,0.166,1.43,0.166h3.992
			c1.569,0,3.405-0.155,5.508-0.465c0.093-0.033,0.18-0.05,0.262-0.05c0.093,0,0.139,0.022,0.139,0.066
			c-0.139,0.454-0.244,0.913-0.313,1.378c-0.023,0.177-0.128,0.266-0.314,0.266h-9.273c-0.395,0-0.779-0.039-1.15-0.116
			c-0.36-0.111-0.721-0.255-1.081-0.432c-0.313-0.177-0.604-0.432-0.872-0.764c-0.186-0.255-0.389-0.708-0.61-1.361l-0.035-0.116
			c-0.081,0-0.128,0.022-0.139,0.066c-1.104,1.184-1.714,1.981-1.831,2.391c-0.023,0.1-0.07,0.149-0.139,0.149
			c-0.07,0-0.296-0.288-0.68-0.863c-0.058-0.1-0.087-0.216-0.087-0.349c0.651-0.388,1.464-1.09,2.44-2.108
			c0.046-0.066,0.07-0.221,0.07-0.465v-2.872h-2.144c-0.151,0-0.227-0.088-0.227-0.266v-0.531
			C252.784,397.47,252.859,397.387,253.011,397.387z M254.248,389.667c0.581,0.277,1.052,0.526,1.412,0.747
			c0.43,0.299,0.802,0.559,1.116,0.78c0,0.022-0.029,0.072-0.087,0.149c-0.349,0.476-0.529,0.714-0.54,0.714
			c-0.477-0.365-0.982-0.697-1.517-0.996c-0.43-0.243-0.791-0.42-1.081-0.531c0-0.055,0.186-0.304,0.558-0.747
			C254.167,389.706,254.213,389.667,254.248,389.667z M258.78,392.589h8.664c0.128,0,0.192,0.094,0.192,0.282v0.515
			c0,0.188-0.064,0.282-0.192,0.282h-3.835c-0.046,1.24-0.116,2.236-0.209,2.988h4.532c0.139,0,0.209,0.083,0.209,0.249v0.531
			c0,0.177-0.07,0.266-0.209,0.266h-4.097c0.058,0.266,0.128,0.493,0.209,0.681c0.151,0.432,0.342,0.825,0.575,1.179
			c0.197,0.321,0.43,0.598,0.697,0.83c0.255,0.266,0.581,0.504,0.976,0.714c0.36,0.222,0.825,0.415,1.395,0.581
			c0.058,0.022,0.087,0.044,0.087,0.066c0,0.078-0.029,0.139-0.087,0.183c-0.198,0.177-0.407,0.376-0.627,0.598
			c-0.082,0.1-0.146,0.149-0.192,0.149c-0.023,0-0.082-0.028-0.174-0.083c-0.279-0.11-0.581-0.243-0.906-0.398
			c-0.407-0.232-0.779-0.481-1.116-0.747c-0.372-0.354-0.668-0.691-0.889-1.013c-0.302-0.376-0.511-0.774-0.627-1.195
			c-0.082-0.177-0.151-0.371-0.209-0.581c-0.186,0.62-0.407,1.151-0.663,1.594c-0.349,0.598-0.785,1.107-1.308,1.527
			c-0.453,0.432-1.04,0.824-1.76,1.179c-0.326-0.321-0.604-0.608-0.837-0.863c0.372-0.144,0.808-0.42,1.308-0.83
			c0.569-0.454,1.028-0.952,1.377-1.494c0.36-0.631,0.633-1.322,0.819-2.075h-3.643c-0.151,0-0.227-0.088-0.227-0.266v-0.531
			c0-0.166,0.076-0.249,0.227-0.249h3.852c0.116-0.786,0.192-1.782,0.227-2.988h-3.539c-0.139,0-0.209-0.094-0.209-0.282v-0.515
			C258.571,392.683,258.641,392.589,258.78,392.589z M260.036,389.667c0.464,0.443,0.842,0.858,1.133,1.245
			c0.267,0.343,0.494,0.703,0.68,1.079c0,0.044-0.366,0.161-1.098,0.349c-0.081-0.254-0.255-0.553-0.523-0.896
			c-0.267-0.409-0.627-0.819-1.081-1.229C259.146,390.138,259.443,389.955,260.036,389.667z M265.771,389.667l1.046,0.432
			c0.186,0.066,0.279,0.144,0.279,0.232c0,0.066-0.064,0.111-0.192,0.133c-0.139,0-0.227,0.044-0.261,0.133
			c-0.418,0.697-0.825,1.234-1.22,1.61c-0.093,0.089-0.163,0.133-0.209,0.133c-0.082,0-0.181-0.039-0.296-0.116
			c-0.244-0.11-0.471-0.205-0.68-0.282c-0.104-0.033-0.157-0.061-0.157-0.083c0-0.022,0.023-0.055,0.07-0.1
			c0.372-0.343,0.656-0.642,0.854-0.896c0.279-0.354,0.482-0.703,0.61-1.046C265.66,389.717,265.712,389.667,265.771,389.667z"/>
		<path fill="#43668B" d="M272.464,391.194v12.086h13.928c0.104,0,0.157,0.072,0.157,0.216v0.515c0,0.188-0.053,0.282-0.157,0.282
			h-13.928v0.515c0,0.144-0.099,0.216-0.296,0.216h-0.697c-0.186,0-0.279-0.072-0.279-0.216v-14.41c0-0.122,0.093-0.183,0.279-0.183
			h14.451c0.082,0,0.122,0.061,0.122,0.183v0.548c0,0.166-0.041,0.249-0.122,0.249H272.464z M273.301,394.78
			c0.476,0.299,0.865,0.57,1.167,0.813c0.349,0.31,0.657,0.598,0.924,0.863c0,0.011-0.029,0.05-0.087,0.116
			c-0.349,0.454-0.529,0.681-0.541,0.681c-0.395-0.398-0.808-0.769-1.237-1.112c-0.349-0.254-0.639-0.442-0.872-0.564
			c0-0.055,0.168-0.282,0.505-0.681C273.208,394.819,273.254,394.78,273.301,394.78z M276.491,398.101
			c0.046,0,0.081,0.044,0.104,0.133c0.267,0.542,0.401,0.83,0.401,0.863c0,0.056-0.029,0.1-0.087,0.133
			c-0.569,0.653-1.104,1.207-1.604,1.66c-0.279,0.255-0.616,0.531-1.011,0.83c-0.069,0.078-0.104,0.183-0.104,0.315
			s-0.041,0.199-0.122,0.199c-0.081,0-0.418-0.321-1.011-0.963c-0.059-0.033-0.099-0.094-0.122-0.183
			c0-0.044,0.023-0.083,0.07-0.116c0.337-0.155,0.68-0.359,1.028-0.614c0.465-0.343,0.918-0.725,1.36-1.146
			c0.383-0.376,0.714-0.725,0.993-1.046C276.421,398.123,276.456,398.101,276.491,398.101z M274.556,391.726
			c0.453,0.31,0.825,0.592,1.116,0.847c0.36,0.332,0.656,0.625,0.889,0.88c0,0.011-0.029,0.056-0.087,0.133
			c-0.337,0.454-0.517,0.681-0.541,0.681c-0.36-0.42-0.75-0.802-1.168-1.146c-0.349-0.276-0.627-0.476-0.836-0.598
			c0-0.055,0.157-0.282,0.471-0.681C274.457,391.765,274.509,391.726,274.556,391.726z M278.778,391.676l1.084,0.415
			c0.164,0.066,0.245,0.149,0.245,0.249c0,0.111-0.099,0.194-0.297,0.249c-0.28,0-0.449,0.094-0.507,0.282
			c-0.187,0.354-0.379,0.681-0.577,0.979h2.764c0.117-0.177,0.205-0.332,0.263-0.465c0.198-0.354,0.367-0.797,0.507-1.328
			c0.023-0.088,0.052-0.133,0.087-0.133c0.942,0.354,1.413,0.554,1.413,0.598c0,0.056-0.07,0.1-0.209,0.133
			c-0.139,0.033-0.238,0.122-0.296,0.266c-0.128,0.299-0.273,0.609-0.436,0.93h2.667c0.093,0,0.139,0.066,0.139,0.199v0.531
			c0,0.177-0.046,0.266-0.139,0.266h-2.859v1.395h2.528c0.093,0,0.139,0.072,0.139,0.216v0.515c0,0.188-0.046,0.282-0.139,0.282
			h-2.528v1.395h2.528c0.093,0,0.139,0.061,0.139,0.183v0.548c0,0.166-0.046,0.249-0.139,0.249h-2.528v1.395h3.155
			c0.093,0,0.139,0.066,0.139,0.199v0.531c0,0.188-0.046,0.282-0.139,0.282h-6.92v0.382c0,0.133-0.088,0.199-0.265,0.199h-0.726
			c-0.13,0-0.195-0.066-0.195-0.199v-7.089c-0.209,0.255-0.407,0.476-0.593,0.664c-0.163,0.166-0.296,0.249-0.401,0.249
			c-0.081,0-0.18-0.033-0.296-0.1c-0.232-0.11-0.459-0.205-0.68-0.282c-0.082-0.033-0.122-0.055-0.122-0.066
			c0-0.044,0.035-0.11,0.104-0.199c0.732-0.653,1.278-1.223,1.639-1.71c0.536-0.642,0.932-1.289,1.188-1.942
			C278.585,391.765,278.673,391.676,278.778,391.676z M281.441,396.241v-1.395h-2.58v1.395H281.441z M281.441,398.648v-1.395h-2.58
			v1.395H281.441z M278.861,401.022h2.58v-1.395h-2.58V401.022z"/>
		<path fill="#43668B" d="M290.018,400.043l1.081,0.398c0.163,0.078,0.244,0.166,0.244,0.266s-0.058,0.172-0.174,0.216
			c-0.163,0-0.273,0.083-0.331,0.249c-0.442,1.218-0.883,2.158-1.325,2.822c-0.116,0.155-0.204,0.232-0.262,0.232
			c-0.081,0-0.186-0.044-0.313-0.133c-0.256-0.122-0.494-0.232-0.715-0.332c-0.093-0.033-0.14-0.056-0.14-0.066
			c0-0.044,0.023-0.1,0.07-0.166c0.441-0.587,0.767-1.096,0.976-1.527c0.337-0.575,0.575-1.151,0.715-1.727
			C289.901,400.121,289.959,400.043,290.018,400.043z M288.78,391.261h3.469v-1.527c0-0.122,0.099-0.183,0.296-0.183
			c0.883,0,1.325,0.061,1.325,0.183c0,0.155-0.064,0.244-0.192,0.266c-0.116,0.011-0.174,0.122-0.174,0.332v0.93h3.434
			c0.14,0,0.209,0.094,0.209,0.282v0.515c0,0.188-0.069,0.282-0.209,0.282h-3.434v1.461h2.807c0.127,0,0.191,0.083,0.191,0.249
			v0.531c0,0.177-0.064,0.266-0.191,0.266h-6.903c-0.151,0-0.227-0.088-0.227-0.266v-0.531c0-0.166,0.076-0.249,0.227-0.249h2.841
			v-1.461h-3.469c-0.151,0-0.227-0.094-0.227-0.282v-0.515C288.553,391.355,288.629,391.261,288.78,391.261z M288.78,398.366h8.298
			c0.127,0,0.191,0.094,0.191,0.282v0.531c0,0.177-0.064,0.266-0.191,0.266h-3.504v4.051c0,0.83-0.721,1.245-2.162,1.245h-0.471
			c-0.093,0-0.139-0.1-0.139-0.299c-0.023-0.255-0.122-0.548-0.296-0.88v-0.066c0.302,0.088,0.581,0.133,0.836,0.133
			c0.651,0,0.976-0.199,0.976-0.598v-3.586h-3.539c-0.151,0-0.227-0.088-0.227-0.266v-0.531
			C288.553,398.46,288.629,398.366,288.78,398.366z M289.756,396.042h6.118c0.151,0,0.227,0.089,0.227,0.266v0.531
			c0,0.188-0.076,0.282-0.227,0.282h-6.118c-0.14,0-0.209-0.094-0.209-0.282v-0.531
			C289.547,396.131,289.617,396.042,289.756,396.042z M295.474,400.176c0.104,0,0.174,0.017,0.209,0.05
			c0.43,0.697,0.825,1.45,1.185,2.258c0,0.166-0.041,0.26-0.122,0.282c-0.418,0.254-0.755,0.382-1.011,0.382
			c-0.36-0.985-0.704-1.798-1.029-2.44C294.707,400.574,294.962,400.397,295.474,400.176z M300.146,394.581
			c1.104,0.111,1.655,0.199,1.655,0.266c0,0.078-0.058,0.144-0.174,0.199c-0.186,0.078-0.285,0.232-0.297,0.465
			c-0.023,1.107-0.086,2.053-0.191,2.839c0,0.044-0.006,0.094-0.018,0.149c0.129,0.521,0.262,0.985,0.401,1.395
			c0.151,0.509,0.337,0.969,0.558,1.378c0.326,0.62,0.721,1.162,1.186,1.627c0.418,0.42,0.889,0.736,1.412,0.946
			c0.035,0.033,0.053,0.066,0.053,0.1c0,0.1-0.047,0.188-0.141,0.266c-0.197,0.188-0.389,0.398-0.574,0.631
			c-0.047,0.122-0.129,0.183-0.244,0.183c-0.047,0-0.181-0.1-0.401-0.299c-0.686-0.542-1.261-1.162-1.726-1.859
			c-0.36-0.553-0.633-1.134-0.819-1.743c-0.046-0.1-0.087-0.221-0.122-0.365c-0.116,0.343-0.227,0.647-0.331,0.913
			c-0.21,0.576-0.482,1.09-0.819,1.544c-0.256,0.321-0.541,0.614-0.854,0.88c-0.384,0.376-0.86,0.708-1.43,0.996
			c-0.07,0-0.139-0.05-0.209-0.149c-0.151-0.188-0.343-0.382-0.575-0.581c-0.07-0.078-0.104-0.122-0.104-0.133
			c0-0.056,0.017-0.083,0.052-0.083c0.534-0.277,0.906-0.509,1.115-0.697c0.302-0.232,0.604-0.531,0.907-0.896
			s0.557-0.808,0.767-1.328c0.209-0.487,0.372-0.996,0.487-1.527c0.129-0.465,0.21-0.974,0.244-1.527
			c0.082-0.598,0.123-1.549,0.123-2.855v-0.598C300.076,394.625,300.099,394.581,300.146,394.581z M298.942,389.484l1.22,0.415
			c0.117,0.1,0.175,0.183,0.175,0.249c0,0.1-0.046,0.161-0.14,0.183c-0.104,0-0.168,0.083-0.191,0.249
			c-0.186,0.886-0.343,1.6-0.471,2.142h4.428c0.174,0,0.291,0.028,0.349,0.083c0.232,0.199,0.349,0.349,0.349,0.448l-1.481,3.818
			c-0.023,0.078-0.059,0.116-0.104,0.116c-0.651-0.188-0.977-0.349-0.977-0.481l1.168-2.905h-4.027
			c-0.186,0.542-0.372,1.063-0.557,1.561c-0.256,0.542-0.512,1.035-0.767,1.478c-0.151,0-0.285-0.017-0.401-0.05
			c-0.221-0.088-0.447-0.166-0.68-0.232c-0.082-0.033-0.122-0.066-0.122-0.1c0-0.077,0.018-0.138,0.052-0.183
			c0.418-0.653,0.796-1.45,1.133-2.391c0.186-0.542,0.354-1.123,0.506-1.743c0.163-0.653,0.313-1.488,0.453-2.507
			C298.878,389.534,298.908,389.484,298.942,389.484z"/>
		<path fill="#43668B" d="M306.473,392.456h5.16c0.15,0,0.227,0.089,0.227,0.266v0.531c0,0.188-0.076,0.282-0.227,0.282h-5.16
			c-0.139,0-0.209-0.094-0.209-0.282v-0.531C306.264,392.545,306.334,392.456,306.473,392.456z M306.822,399.628h4.199
			c0.188,0,0.28,0.066,0.28,0.199v4.98c0,0.144-0.092,0.216-0.274,0.216h-0.688c-0.148,0-0.224-0.072-0.224-0.216v-0.797h-2.318
			v0.797c0,0.144-0.089,0.216-0.265,0.216h-0.709c-0.141,0-0.211-0.072-0.211-0.216v-4.897
			C306.613,399.722,306.683,399.628,306.822,399.628z M306.892,394.847h4.201c0.14,0,0.209,0.094,0.209,0.282v0.531
			c0,0.177-0.069,0.266-0.209,0.266h-4.201c-0.128,0-0.192-0.088-0.192-0.266v-0.531
			C306.699,394.941,306.764,394.847,306.892,394.847z M306.892,397.254h4.201c0.14,0,0.209,0.083,0.209,0.249v0.548
			c0,0.166-0.069,0.249-0.209,0.249h-4.201c-0.128,0-0.192-0.083-0.192-0.249v-0.548
			C306.699,397.337,306.764,397.254,306.892,397.254z M307.101,390.082h3.992c0.14,0,0.209,0.083,0.209,0.249v0.548
			c0,0.166-0.069,0.249-0.209,0.249h-3.992c-0.14,0-0.209-0.083-0.209-0.249v-0.548
			C306.892,390.165,306.961,390.082,307.101,390.082z M307.798,402.965h2.318v-2.258h-2.318V402.965z M313.254,390.016h3.695
			c0.116,0,0.209,0.028,0.279,0.083c0.221,0.232,0.331,0.376,0.331,0.432c-0.209,0.73-0.413,1.295-0.61,1.693
			c-0.232,0.498-0.471,0.908-0.715,1.229c-0.221,0.288-0.477,0.559-0.767,0.813h4.394c-0.164-0.221-0.32-0.442-0.471-0.664
			c-0.408-0.553-0.965-1.577-1.674-3.071l0.767-0.664c0.221,0.454,0.425,0.863,0.61,1.229c0.059-0.033,0.099-0.061,0.122-0.083
			c0.221-0.166,0.424-0.359,0.61-0.581c0.186-0.21,0.336-0.437,0.453-0.681c0.035-0.055,0.058-0.083,0.069-0.083l0.802,0.564
			c0.116,0.056,0.174,0.133,0.174,0.232c0,0.089-0.068,0.133-0.209,0.133c-0.093,0-0.162,0.033-0.209,0.1
			c-0.5,0.531-0.953,0.924-1.359,1.179c0.128,0.222,0.25,0.404,0.366,0.548c0.14,0.188,0.267,0.365,0.384,0.531
			c0.069-0.044,0.127-0.088,0.174-0.133c0.268-0.188,0.512-0.404,0.732-0.647c0.209-0.243,0.383-0.492,0.523-0.747
			c0.034-0.066,0.063-0.1,0.086-0.1l0.803,0.548c0.115,0.066,0.174,0.155,0.174,0.266c0,0.089-0.07,0.133-0.209,0.133
			c-0.104,0-0.186,0.033-0.244,0.1c-0.512,0.542-0.994,0.969-1.447,1.278c0.141,0.155,0.279,0.299,0.419,0.432
			c0.522,0.521,1.046,0.869,1.569,1.046c0,0.078-0.047,0.133-0.141,0.166c-0.336,0.277-0.58,0.498-0.731,0.664
			c-0.047,0.056-0.134,0.083-0.262,0.083c-0.581-0.365-1.133-0.869-1.655-1.511v0.531c0,0.166-0.076,0.249-0.227,0.249h-4.672
			c-0.129,0-0.192-0.083-0.192-0.249v-0.432c-0.337,0.244-0.697,0.448-1.081,0.614c-0.325,0.177-0.755,0.338-1.289,0.481
			c-0.151,0-0.256-0.05-0.314-0.149c-0.128-0.166-0.25-0.332-0.365-0.498c-0.059-0.066-0.088-0.116-0.088-0.149
			c0-0.044,0.023-0.077,0.07-0.1c0.313-0.077,0.627-0.171,0.941-0.282c0.58-0.21,1.063-0.476,1.446-0.797l0.018-0.017
			c-0.21-0.221-0.425-0.415-0.646-0.581c-0.29-0.232-0.534-0.398-0.732-0.498c0-0.055,0.169-0.282,0.506-0.681
			c0.047-0.077,0.088-0.116,0.123-0.116c0.406,0.266,0.731,0.504,0.976,0.714c0.197,0.188,0.366,0.349,0.505,0.481
			c0.094-0.1,0.175-0.205,0.244-0.315c0.256-0.332,0.465-0.719,0.628-1.162c0.081-0.188,0.169-0.398,0.262-0.631h-2.946
			c-0.104,0-0.156-0.066-0.156-0.199v-0.531C313.098,390.082,313.149,390.016,313.254,390.016z M319.512,400.956l1.063,0.432
			c0.187,0.066,0.279,0.149,0.279,0.249c0,0.066-0.047,0.111-0.14,0.133c-0.116,0-0.186,0.056-0.209,0.166
			c-0.291,0.797-0.587,1.405-0.889,1.826h2.475c0.15,0,0.227,0.083,0.227,0.249v0.531c0,0.177-0.076,0.266-0.227,0.266h-9.326
			c-0.139,0-0.209-0.089-0.209-0.266v-0.531c0-0.166,0.07-0.249,0.209-0.249h6.188c-0.175-0.066-0.331-0.133-0.471-0.199
			c-0.104-0.033-0.157-0.056-0.157-0.066c0-0.033,0.018-0.078,0.053-0.133c0.268-0.388,0.465-0.736,0.593-1.046
			c0.209-0.398,0.36-0.791,0.453-1.179C319.448,401.017,319.477,400.956,319.512,400.956z M314.037,396.706h6.748
			c0.174,0,0.261,0.066,0.261,0.199v3.453c0,0.133-0.087,0.199-0.261,0.199h-6.748c-0.197,0-0.295-0.066-0.295-0.199v-3.453
			C313.742,396.772,313.84,396.706,314.037,396.706z M315.398,400.956c0.337,0.465,0.609,0.891,0.818,1.278
			c0.21,0.354,0.379,0.725,0.506,1.112c0,0.033-0.365,0.149-1.098,0.349c-0.059-0.266-0.181-0.576-0.366-0.93
			c-0.187-0.42-0.442-0.841-0.767-1.262C314.492,401.427,314.794,401.244,315.398,400.956z M319.861,399.562v-1.859h-4.934v1.859
			H319.861z"/>
		<path fill="#43668B" d="M325.178,390.813h5.369c0.174,0,0.261,0.066,0.261,0.199v10.011c0,0.133-0.087,0.199-0.261,0.199h-0.697
			c-0.187,0-0.279-0.066-0.279-0.199v-0.531h-3.416v1.926c0,0.133-0.094,0.199-0.279,0.199h-0.697c-0.198,0-0.297-0.066-0.297-0.199
			v-11.355C324.881,390.896,324.979,390.813,325.178,390.813z M326.154,395.063h3.416v-3.204h-3.416V395.063z M326.154,399.445
			h3.416v-3.337h-3.416V399.445z M332.708,390.331h6.327c0.244,0,0.367,0.089,0.367,0.266v12.667c0,0.52-0.285,0.93-0.855,1.229
			c-0.533,0.232-1.225,0.387-2.074,0.465c-0.127,0-0.209-0.072-0.244-0.216c-0.012-0.232-0.139-0.581-0.383-1.046
			c0-0.066,0.053-0.1,0.156-0.1c1.023,0,1.627-0.066,1.813-0.199c0.211-0.133,0.314-0.338,0.314-0.614v-3.088h-4.689
			c-0.069,0.421-0.162,0.797-0.278,1.129c-0.209,0.853-0.634,1.693-1.272,2.523c-0.326,0.52-0.797,1.007-1.412,1.461
			c-0.082,0-0.15-0.011-0.209-0.033c-0.186-0.177-0.396-0.327-0.627-0.448c-0.047-0.066-0.07-0.149-0.07-0.249
			c0.569-0.421,1.086-0.996,1.551-1.727c0.465-0.764,0.797-1.566,0.994-2.407c0.197-0.885,0.297-1.964,0.297-3.237v-6.109
			C332.412,390.42,332.51,390.331,332.708,390.331z M333.58,398.648h4.549v-3.204h-4.463v1.262
			C333.666,397.426,333.638,398.073,333.58,398.648z M333.666,394.398h4.463v-2.988h-4.463V394.398z"/>
		<path fill="#43668B" d="M343.638,399.097h5.647v-2.042c0-0.144,0.093-0.216,0.279-0.216c0.883,0,1.325,0.072,1.325,0.216
			c0,0.144-0.053,0.227-0.157,0.249c-0.116,0.011-0.175,0.122-0.175,0.332v1.461h5.631c0.15,0,0.227,0.094,0.227,0.282v0.531
			c0,0.177-0.076,0.266-0.227,0.266h-5.631v3.038h7.165c0.15,0,0.227,0.094,0.227,0.282v0.515c0,0.188-0.076,0.282-0.227,0.282
			h-15.462c-0.151,0-0.227-0.094-0.227-0.282v-0.515c0-0.188,0.075-0.282,0.227-0.282h7.024v-3.038h-5.647
			c-0.14,0-0.209-0.088-0.209-0.266v-0.531C343.429,399.191,343.498,399.097,343.638,399.097z M342.731,390.464h14.45
			c0.14,0,0.21,0.094,0.21,0.282v0.515c0,0.188-0.07,0.282-0.21,0.282h-8.019c-1.208,1.837-2.074,3.127-2.597,3.868
			c2.591-0.188,5.287-0.432,8.088-0.73l-0.018-0.017c-0.686-0.653-1.255-1.123-1.708-1.411c0-0.055,0.18-0.304,0.54-0.747
			c0.059-0.066,0.11-0.1,0.157-0.1c0.941,0.708,1.708,1.373,2.301,1.992c0.709,0.753,1.308,1.439,1.796,2.059
			c0,0.011-0.029,0.061-0.088,0.149c-0.395,0.521-0.599,0.78-0.609,0.78c-0.442-0.608-0.901-1.167-1.377-1.677
			c-4.114,0.465-7.979,0.819-11.593,1.063c-0.104,0-0.186,0.094-0.244,0.282c-0.034,0.299-0.139,0.448-0.313,0.448
			c-0.163,0-0.465-0.614-0.906-1.843c0.372,0,1.087-0.044,2.144-0.133c0.105-0.011,0.21-0.017,0.314-0.017
			c0.14-0.177,0.267-0.354,0.383-0.531c0.872-1.262,1.627-2.407,2.267-3.437h-4.968c-0.128,0-0.192-0.094-0.192-0.282v-0.515
			C342.539,390.558,342.604,390.464,342.731,390.464z"/>
		<path fill="#43668B" d="M367.571,389.418c0.918,0,1.377,0.061,1.377,0.183c0,0.155-0.059,0.238-0.175,0.249
			c-0.116,0.022-0.174,0.144-0.174,0.365v1.112h6.693c0.186,0,0.279,0.072,0.279,0.216v3.304c0,0.144-0.094,0.216-0.279,0.216
			h-0.697c-0.174,0-0.262-0.072-0.262-0.216v-2.44h-12.916v2.523c0,0.133-0.088,0.199-0.262,0.199h-0.715
			c-0.175,0-0.262-0.066-0.262-0.199v-3.32c0-0.188,0.087-0.282,0.262-0.282h6.833v-1.727
			C367.274,389.479,367.373,389.418,367.571,389.418z M363.51,393.983h8.854c0.187,0,0.279,0.066,0.279,0.199v3.735
			c0,0.166-0.093,0.249-0.279,0.249h-7.879v1.594h8.716c0.197,0,0.297,0.072,0.297,0.216v4.565c0,0.133-0.1,0.199-0.297,0.199
			h-0.697c-0.174,0-0.262-0.066-0.262-0.199v-0.598h-7.757v1.079c0,0.122-0.093,0.183-0.278,0.183h-0.697
			c-0.175,0-0.262-0.061-0.262-0.183v-10.758C363.248,394.078,363.335,393.983,363.51,393.983z M364.485,397.121h6.921v-2.059
			h-6.921V397.121z M364.485,402.898h7.757v-2.059h-7.757V402.898z"/>
		<path fill="#43668B" d="M385.561,389.551c0.93,0,1.395,0.061,1.395,0.183c0,0.155-0.063,0.244-0.191,0.266
			c-0.116,0.011-0.174,0.122-0.174,0.332v1.876h6.833c0.15,0,0.227,0.067,0.227,0.202v0.674c0,0.168-0.076,0.252-0.227,0.252h-9.013
			c-0.034,1.045-0.087,1.947-0.156,2.706h7.565c0.15,0,0.227,0.089,0.227,0.266c-0.035,2.347-0.14,4.04-0.314,5.08
			c-0.174,1.229-0.43,2.142-0.767,2.739c-0.313,0.642-1.139,0.963-2.476,0.963c-0.941,0-1.424-0.133-1.446-0.398
			c-0.07-0.277-0.268-0.609-0.593-0.996v-0.133c0.731,0.088,1.412,0.133,2.039,0.133c0.721,0,1.191-0.222,1.412-0.664
			c0.232-0.365,0.424-1.057,0.575-2.075c0.175-0.786,0.29-2.064,0.349-3.835h-6.693c-0.047,0.332-0.1,0.631-0.157,0.896
			c-0.313,1.406-0.744,2.573-1.29,3.503c-0.488,0.742-1.075,1.378-1.761,1.909c-0.627,0.531-1.436,1.018-2.423,1.461
			c-0.337-0.343-0.639-0.659-0.906-0.946c0.511-0.166,1.121-0.509,1.83-1.029c0.79-0.575,1.43-1.206,1.918-1.893
			c0.604-0.985,1.034-2.075,1.29-3.271c0.243-1.004,0.395-2.477,0.453-4.416h-5.125c-0.151,0-0.227-0.084-0.227-0.252v-0.674
			c0-0.135,0.075-0.202,0.227-0.202h7.304v-2.474C385.265,389.612,385.363,389.551,385.561,389.551z"/>
		<path fill="#43668B" d="M402.626,403.38h-7.077v-12.385h1.255v11.256h5.822V403.38z"/>
		<path fill="#43668B" d="M408.657,403.363h-1.29v-12.368h1.29V403.363z"/>
		<path fill="#43668B" d="M420.65,403.363h-1.36l-4.793-9.961v9.961h-1.272v-12.368h1.411l4.759,9.928v-9.928h1.256V403.363z"/>
		<path fill="#43668B" d="M429.419,403.363h-7.112v-12.368h7.112v1.129h-5.84v4.366h5.056v1.129h-5.056v4.648h5.84V403.363z"/>
	</g>
	<g>
		<path fill="#43668B" d="M179.954,469.91c0,1.174-0.413,2.086-1.237,2.739c-0.756,0.587-1.714,0.88-2.876,0.88
			c-1.116,0-2.004-0.311-2.667-0.93c-0.523-0.486-0.924-1.223-1.203-2.208l1.098-0.432c0.255,0.797,0.569,1.39,0.941,1.776
			c0.464,0.454,1.075,0.681,1.83,0.681c0.895,0,1.592-0.227,2.092-0.681c0.511-0.442,0.767-1.051,0.767-1.826
			c0-0.608-0.366-1.15-1.098-1.627c-0.314-0.188-1.052-0.537-2.214-1.046c-1.034-0.442-1.755-0.841-2.162-1.195
			c-0.639-0.531-0.958-1.195-0.958-1.992c0-0.974,0.325-1.749,0.976-2.324c0.663-0.575,1.586-0.863,2.771-0.863
			c1.859,0,3.103,0.886,3.73,2.656l-1.168,0.415c-0.546-1.316-1.4-1.976-2.563-1.976c-1.662,0-2.493,0.697-2.493,2.092
			c0,0.509,0.302,0.963,0.907,1.361c0.255,0.188,0.848,0.481,1.778,0.88c1.22,0.543,2.057,0.985,2.51,1.328
			C179.542,468.262,179.954,469.025,179.954,469.91z"/>
		<path fill="#43668B" d="M187.328,466.092h-2.214v5.215c0,0.63,0.262,0.944,0.785,0.944h1.359v1.129h-1.464
			c-0.697,0-1.191-0.166-1.482-0.498c-0.279-0.343-0.418-0.907-0.418-1.693v-5.097h-1.447v-1.129h1.447v-2.225h1.22v2.225h2.214
			V466.092z"/>
		<path fill="#43668B" d="M197.299,468.748v0.531h-5.717c0.116,2.07,0.865,3.104,2.249,3.104c0.976,0,1.743-0.525,2.301-1.577
			l1.081,0.548c-0.418,0.687-0.819,1.179-1.203,1.478c-0.569,0.453-1.296,0.681-2.179,0.681c-1.081,0-1.929-0.409-2.545-1.229
			c-0.639-0.819-0.959-1.887-0.959-3.204c0-1.35,0.36-2.412,1.081-3.188c0.65-0.719,1.476-1.079,2.475-1.079
			c0.964,0,1.761,0.338,2.388,1.013C196.956,466.546,197.299,467.52,197.299,468.748z M196.061,468.15
			c-0.313-1.472-1.04-2.208-2.179-2.208c-1.116,0-1.854,0.736-2.214,2.208H196.061z"/>
		<path fill="#43668B" d="M206.538,469.113c0,1.395-0.366,2.49-1.098,3.287c-0.686,0.73-1.528,1.096-2.528,1.096
			c-1.116,0-2.016-0.465-2.702-1.395v3.785h-1.272v-10.924h1.272v1.378c0.546-1.019,1.417-1.527,2.615-1.527
			c1.139,0,2.045,0.404,2.719,1.212C206.206,466.822,206.538,467.852,206.538,469.113z M205.248,469.113
			c0-2.113-0.808-3.171-2.423-3.171c-0.779,0-1.412,0.31-1.9,0.93c-0.477,0.642-0.714,1.472-0.714,2.49
			c0,0.907,0.279,1.649,0.836,2.225c0.523,0.531,1.145,0.797,1.865,0.797c0.663,0,1.197-0.243,1.604-0.73
			C205.003,471.078,205.248,470.231,205.248,469.113z"/>
		<path fill="#43668B" d="M215.271,469.097c0,1.405-0.383,2.507-1.15,3.304c-0.697,0.741-1.581,1.112-2.65,1.112
			c-1.58,0-2.719-0.836-3.417-2.507l1.098-0.481c0.221,0.554,0.541,1.002,0.959,1.345c0.418,0.354,0.872,0.531,1.359,0.531
			c0.732,0,1.325-0.266,1.778-0.797c0.5-0.586,0.75-1.422,0.75-2.507c0-2.114-0.715-3.171-2.144-3.171
			c-1.023,0-1.755,0.515-2.196,1.544h-1.168v-6.475h6.275v1.129h-5.021v3.636c0.465-0.631,1.168-0.946,2.109-0.946
			c1.046,0,1.876,0.388,2.493,1.162C214.963,466.75,215.271,467.791,215.271,469.097z"/>
		<path fill="#43668B" d="M221.651,466.557h-2.127v-2.042h2.127V466.557z M221.651,473.363h-2.127v-2.025h2.127V473.363z"/>
		<path fill="#43668B" d="M242.621,459.418c0.918,0,1.377,0.061,1.377,0.183c0,0.155-0.058,0.238-0.174,0.249
			c-0.116,0.022-0.174,0.145-0.174,0.365v1.112h6.694c0.186,0,0.279,0.072,0.279,0.216v3.304c0,0.144-0.093,0.216-0.279,0.216
			h-0.697c-0.174,0-0.261-0.072-0.261-0.216v-2.44h-12.917v2.523c0,0.133-0.087,0.199-0.261,0.199h-0.715
			c-0.174,0-0.262-0.066-0.262-0.199v-3.32c0-0.188,0.087-0.282,0.262-0.282h6.833v-1.727
			C242.325,459.479,242.423,459.418,242.621,459.418z M238.56,463.983h8.855c0.186,0,0.279,0.066,0.279,0.199v3.735
			c0,0.166-0.093,0.249-0.279,0.249h-7.879v1.594h8.716c0.198,0,0.296,0.072,0.296,0.216v4.565c0,0.133-0.099,0.199-0.296,0.199
			h-0.697c-0.174,0-0.261-0.066-0.261-0.199v-0.598h-7.757v1.079c0,0.121-0.093,0.183-0.279,0.183h-0.697
			c-0.174,0-0.261-0.062-0.261-0.183v-10.758C238.298,464.078,238.385,463.983,238.56,463.983z M239.536,467.121h6.92v-2.059h-6.92
			V467.121z M239.536,472.898h7.757v-2.059h-7.757V472.898z"/>
		<path fill="#43668B" d="M260.611,459.551c0.93,0,1.395,0.061,1.395,0.183c0,0.155-0.064,0.243-0.192,0.266
			c-0.116,0.011-0.174,0.122-0.174,0.332v1.876h6.833c0.151,0,0.227,0.067,0.227,0.202v0.675c0,0.168-0.076,0.252-0.227,0.252
			h-9.012c-0.035,1.045-0.087,1.947-0.157,2.706h7.565c0.151,0,0.227,0.089,0.227,0.266c-0.035,2.347-0.139,4.04-0.313,5.08
			c-0.174,1.229-0.43,2.142-0.767,2.739c-0.314,0.642-1.139,0.963-2.476,0.963c-0.941,0-1.423-0.133-1.447-0.398
			c-0.07-0.277-0.267-0.609-0.593-0.996v-0.133c0.732,0.088,1.412,0.133,2.04,0.133c0.721,0,1.191-0.222,1.412-0.664
			c0.232-0.365,0.424-1.057,0.575-2.075c0.174-0.786,0.291-2.063,0.349-3.835h-6.694c-0.046,0.332-0.099,0.631-0.157,0.896
			c-0.314,1.406-0.744,2.573-1.29,3.503c-0.488,0.741-1.075,1.378-1.76,1.909c-0.628,0.531-1.436,1.018-2.423,1.461
			c-0.337-0.344-0.639-0.658-0.906-0.946c0.511-0.166,1.121-0.509,1.83-1.029c0.791-0.575,1.43-1.206,1.917-1.893
			c0.604-0.985,1.034-2.075,1.29-3.271c0.244-1.004,0.395-2.477,0.453-4.416h-5.125c-0.151,0-0.227-0.084-0.227-0.252v-0.675
			c0-0.135,0.076-0.202,0.227-0.202h7.304v-2.474C260.314,459.611,260.413,459.551,260.611,459.551z"/>
		<path fill="#43668B" d="M275.532,459.601c0.883,0,1.325,0.066,1.325,0.199c0,0.155-0.064,0.243-0.191,0.266
			c-0.116,0.011-0.174,0.122-0.174,0.332v14.493c0,0.133-0.087,0.199-0.262,0.199h-0.697c-0.198,0-0.296-0.066-0.296-0.199v-6.309
			h-1.987c-0.011,0.056-0.017,0.1-0.017,0.133c-0.047,1.229-0.128,2.181-0.244,2.855c-0.163,0.863-0.36,1.549-0.593,2.059
			c-0.268,0.586-0.599,1.051-0.994,1.395c-0.128,0-0.209-0.027-0.244-0.083c-0.174-0.155-0.383-0.299-0.627-0.432
			c-0.104-0.089-0.157-0.161-0.157-0.216c0-0.078,0.029-0.133,0.087-0.166c0.36-0.377,0.628-0.77,0.802-1.179
			c0.221-0.398,0.389-0.88,0.505-1.444c0.174-0.708,0.273-1.682,0.296-2.922h-1.29c-0.14,0-0.209-0.094-0.209-0.282v-0.515
			c0-0.188,0.069-0.282,0.209-0.282h4.462v-2.059h-2.771v0.863c0,0.144-0.099,0.216-0.296,0.216h-0.697
			c-0.186,0-0.279-0.072-0.279-0.216v-5.844c0-0.122,0.093-0.183,0.279-0.183c0.883,0,1.325,0.061,1.325,0.183
			c0,0.155-0.052,0.243-0.157,0.266c-0.116,0.011-0.174,0.122-0.174,0.332v3.337h2.771V459.8
			C275.235,459.667,275.334,459.601,275.532,459.601z M281.72,459.418l1.307,0.581c0.104,0.077,0.157,0.149,0.157,0.216
			c0,0.122-0.11,0.183-0.331,0.183c-0.198,0-0.343,0.044-0.436,0.133c-0.116,0.155-0.233,0.294-0.349,0.415h3.713
			c0.127,0,0.227,0.033,0.296,0.1c0.267,0.299,0.401,0.487,0.401,0.564c-0.372,0.809-0.721,1.428-1.046,1.859
			c-0.396,0.564-0.796,1.023-1.203,1.378s-0.93,0.708-1.569,1.063c-0.686,0.376-1.453,0.692-2.301,0.946
			c-0.558,0.199-1.29,0.377-2.196,0.531c-0.163,0-0.279-0.055-0.349-0.166c-0.151-0.199-0.302-0.398-0.453-0.598
			c-0.07-0.066-0.105-0.121-0.105-0.166c0-0.044,0.041-0.077,0.122-0.1c0.558-0.088,1.11-0.199,1.656-0.332
			c0.337-0.077,0.651-0.16,0.941-0.249c-0.059-0.1-0.128-0.21-0.209-0.332c-0.255-0.321-0.581-0.647-0.976-0.979
			c0-0.077,0.302-0.26,0.906-0.548c0.407,0.376,0.738,0.72,0.994,1.029c0.128,0.144,0.238,0.288,0.332,0.432
			c0.197-0.089,0.372-0.171,0.523-0.249c0.244-0.121,0.482-0.254,0.714-0.398c-0.093-0.144-0.215-0.287-0.366-0.432
			c-0.279-0.343-0.657-0.691-1.133-1.046c0-0.066,0.296-0.243,0.889-0.531c0.477,0.388,0.866,0.741,1.168,1.063
			c0.104,0.11,0.203,0.222,0.296,0.332c0.046-0.033,0.093-0.071,0.139-0.116c0.43-0.387,0.796-0.824,1.098-1.312
			c0.14-0.188,0.273-0.421,0.401-0.697h-3.817c-0.151,0.133-0.32,0.261-0.505,0.382c-0.36,0.255-0.727,0.492-1.098,0.714
			c-0.36,0.199-0.651,0.349-0.872,0.448c-0.116,0-0.209-0.055-0.279-0.166c-0.151-0.232-0.326-0.432-0.523-0.598
			c-0.128-0.077-0.192-0.139-0.192-0.183c0-0.011,0.023-0.027,0.07-0.05c0.511-0.177,0.93-0.359,1.255-0.548
			c0.465-0.243,0.93-0.559,1.395-0.946c0.325-0.243,0.581-0.481,0.767-0.714c0.232-0.243,0.436-0.515,0.61-0.813
			C281.621,459.451,281.673,459.418,281.72,459.418z M277.554,468.051h6.066v-0.415c0-0.321-0.023-0.569-0.07-0.747
			c-0.046-0.121-0.07-0.221-0.07-0.299c0-0.088,0.11-0.133,0.332-0.133l1.412,0.166c0.128,0.056,0.192,0.105,0.192,0.149
			c0,0.11-0.064,0.166-0.192,0.166c-0.244,0.089-0.366,0.343-0.366,0.764v0.349h1.691c0.139,0,0.209,0.083,0.209,0.249v0.531
			c0,0.177-0.07,0.266-0.209,0.266h-1.691v4.781c0,0.808-0.622,1.212-1.865,1.212h-1.272c-0.093,0-0.14-0.1-0.14-0.299
			c-0.046-0.222-0.157-0.481-0.331-0.78c0-0.089,0.046-0.133,0.139-0.133c0.535,0.089,1.022,0.133,1.464,0.133
			c0.511,0,0.767-0.194,0.767-0.581v-4.333h-6.066c-0.151,0-0.227-0.089-0.227-0.266V468.3
			C277.327,468.134,277.403,468.051,277.554,468.051z M279.228,469.977c0.035,0,0.087,0.027,0.157,0.083
			c0.686,0.476,1.389,1.079,2.109,1.81c0.058,0.056,0.087,0.133,0.087,0.232c0,0.066-0.018,0.122-0.052,0.166l-0.383,0.531
			c-0.128,0.066-0.233,0.1-0.314,0.1c-0.058,0-0.122-0.056-0.192-0.166c-0.674-0.652-1.325-1.195-1.952-1.627
			c-0.104-0.055-0.157-0.121-0.157-0.199c0-0.066,0.017-0.139,0.052-0.216l0.436-0.647
			C279.099,469.999,279.169,469.977,279.228,469.977z"/>
		<path fill="#43668B" d="M288.85,467.254h2.999c0.174,0,0.261,0.061,0.261,0.183v4.134c0.012,0.421,0.07,0.736,0.174,0.946
			c0.093,0.232,0.232,0.403,0.418,0.515c0.232,0.154,0.511,0.266,0.836,0.332c0.442,0.088,0.918,0.133,1.43,0.133h3.905
			c1.521,0,3.313-0.16,5.369-0.481c0.104-0.033,0.203-0.05,0.296-0.05c0.081,0,0.122,0.021,0.122,0.066
			c-0.14,0.453-0.244,0.913-0.314,1.378c-0.022,0.177-0.127,0.266-0.313,0.266h-9.065c-0.395,0-0.779-0.028-1.15-0.083
			c-0.36-0.078-0.721-0.172-1.081-0.282c-0.313-0.144-0.604-0.321-0.872-0.531c-0.186-0.177-0.389-0.493-0.61-0.946l-0.035-0.066
			c-0.081,0-0.128,0.017-0.139,0.05c-1.15,0.974-1.778,1.621-1.883,1.942c-0.035,0.088-0.087,0.133-0.157,0.133
			s-0.296-0.288-0.68-0.863c-0.059-0.1-0.087-0.211-0.087-0.332c0.674-0.332,1.505-0.913,2.493-1.743
			c0.058-0.056,0.087-0.183,0.087-0.382V468.3h-2.005c-0.151,0-0.227-0.083-0.227-0.249v-0.548
			C288.623,467.337,288.699,467.254,288.85,467.254z M289.408,463.137c0.686,0.299,1.243,0.576,1.673,0.83
			c0.523,0.332,0.964,0.625,1.325,0.88c0,0.022-0.035,0.072-0.104,0.149c-0.337,0.487-0.512,0.73-0.523,0.73
			c-0.57-0.42-1.168-0.803-1.795-1.146c-0.512-0.276-0.936-0.476-1.272-0.598c0-0.056,0.18-0.304,0.54-0.747
			C289.309,463.17,289.361,463.137,289.408,463.137z M289.809,459.733c0.639,0.288,1.162,0.548,1.569,0.78
			c0.476,0.311,0.889,0.581,1.237,0.813c0,0.011-0.029,0.062-0.087,0.149c-0.349,0.487-0.529,0.73-0.541,0.73
			c-0.523-0.387-1.081-0.741-1.673-1.063c-0.477-0.254-0.877-0.438-1.203-0.548c0-0.056,0.186-0.304,0.558-0.747
			C289.727,459.772,289.773,459.733,289.809,459.733z M293.87,460.016h7.67c0.081,0.012,0.169,0.056,0.261,0.133
			c0.198,0.299,0.297,0.498,0.297,0.598c-0.291,0.809-0.477,1.566-0.558,2.274c-0.093,0.642-0.14,1.278-0.14,1.909
			c0,1.793,0.15,3.193,0.453,4.2c0.303,0.819,0.564,1.229,0.785,1.229c0.174,0,0.296-0.066,0.365-0.199
			c0.128-0.144,0.268-0.575,0.418-1.295c0.047-0.056,0.117-0.083,0.21-0.083c0.069,0,0.122,0.033,0.157,0.1
			c0.209,0.178,0.418,0.326,0.627,0.448c0.082,0.033,0.122,0.11,0.122,0.232c-0.349,0.996-0.737,1.727-1.168,2.191
			c-0.198,0.232-0.441,0.349-0.731,0.349c-0.396,0-0.791-0.315-1.186-0.946c-0.453-0.664-0.779-1.527-0.977-2.59
			c-0.221-1.162-0.331-2.374-0.331-3.636c0-1.04,0.203-2.33,0.61-3.868h-3.748v4.25h2.371c0.127,0,0.191,0.089,0.191,0.266v0.531
			c0,0.188-0.064,0.282-0.191,0.282h-2.371v6.026c0,0.133-0.099,0.199-0.296,0.199h-0.697c-0.186,0-0.279-0.066-0.279-0.199v-6.026
			h-2.493c-0.151,0-0.227-0.094-0.227-0.282v-0.531c0-0.177,0.076-0.266,0.227-0.266h2.493v-4.25h-1.865
			c-0.151,0-0.227-0.083-0.227-0.249v-0.531C293.644,460.104,293.719,460.016,293.87,460.016z"/>
		<path fill="#43668B" d="M306.561,467.636h3.138c0.175,0,0.261,0.072,0.261,0.216v3.901c0.012,0.388,0.07,0.675,0.175,0.863
			c0.093,0.21,0.232,0.365,0.419,0.465c0.232,0.144,0.511,0.243,0.836,0.299c0.441,0.077,0.918,0.116,1.43,0.116h3.957
			c1.545,0,3.37-0.16,5.474-0.481c0.093-0.033,0.18-0.05,0.261-0.05c0.094,0,0.141,0.021,0.141,0.066
			c-0.141,0.453-0.244,0.913-0.314,1.378c-0.023,0.177-0.128,0.266-0.314,0.266h-9.203c-0.395,0-0.779-0.028-1.15-0.083
			c-0.36-0.066-0.721-0.149-1.081-0.249c-0.313-0.11-0.604-0.271-0.872-0.481c-0.186-0.155-0.389-0.432-0.609-0.83l-0.035-0.066
			c-0.081,0-0.128,0.011-0.139,0.033c-1.15,0.951-1.779,1.588-1.883,1.909c-0.035,0.077-0.088,0.116-0.157,0.116
			s-0.296-0.288-0.68-0.863c-0.059-0.1-0.087-0.216-0.087-0.349c0.674-0.31,1.504-0.863,2.492-1.66
			c0.059-0.056,0.088-0.188,0.088-0.398v-3.038h-2.145c-0.151,0-0.227-0.094-0.227-0.282v-0.515
			C306.334,467.73,306.409,467.636,306.561,467.636z M307.17,463.187c0.663,0.354,1.203,0.681,1.621,0.979
			c0.488,0.377,0.9,0.72,1.238,1.029c0,0.012-0.029,0.056-0.088,0.133c-0.336,0.477-0.517,0.714-0.539,0.714
			c-0.535-0.476-1.105-0.913-1.709-1.312c-0.488-0.31-0.895-0.537-1.221-0.681c0-0.056,0.187-0.304,0.559-0.747
			C307.089,463.226,307.136,463.187,307.17,463.187z M307.729,459.601c0.604,0.321,1.104,0.614,1.499,0.88
			c0.453,0.344,0.843,0.653,1.168,0.93c0,0.012-0.029,0.056-0.087,0.133c-0.35,0.487-0.529,0.73-0.541,0.73
			c-0.5-0.432-1.028-0.83-1.586-1.195c-0.453-0.287-0.837-0.492-1.15-0.614c0-0.056,0.186-0.304,0.558-0.747
			C307.646,459.64,307.693,459.601,307.729,459.601z M311.563,460.945h4.533v-1.345c0-0.122,0.098-0.183,0.296-0.183
			c0.884,0,1.325,0.061,1.325,0.183c0,0.155-0.064,0.238-0.191,0.249c-0.117,0.022-0.175,0.145-0.175,0.365v0.73h4.741
			c0.15,0,0.227,0.083,0.227,0.249v0.531c0,0.177-0.076,0.266-0.227,0.266h-4.741v1.328h3.695c0.187,0,0.278,0.072,0.278,0.216
			v3.785c0,0.122-0.092,0.183-0.278,0.183h-3.155c0.244,0.365,0.5,0.697,0.768,0.996c0.441,0.476,0.883,0.853,1.324,1.129
			c0.604,0.454,1.331,0.825,2.18,1.112c0.104,0.022,0.156,0.056,0.156,0.1c0,0.066-0.035,0.133-0.104,0.199
			c-0.268,0.199-0.499,0.398-0.697,0.598c-0.058,0.078-0.122,0.116-0.192,0.116c-0.639-0.232-1.167-0.503-1.586-0.813
			c-0.592-0.376-1.139-0.836-1.639-1.378c-0.232-0.243-0.482-0.542-0.749-0.896v3.951c0,0.144-0.087,0.216-0.262,0.216h-0.697
			c-0.198,0-0.296-0.072-0.296-0.216v-4.001c-0.047,0.056-0.094,0.105-0.14,0.149c-0.407,0.487-0.819,0.919-1.237,1.295
			c-0.488,0.398-1.029,0.764-1.621,1.096c-0.721,0.398-1.133,0.598-1.238,0.598c-0.081,0-0.162-0.071-0.244-0.216
			c-0.174-0.199-0.371-0.404-0.592-0.614c-0.105-0.1-0.158-0.171-0.158-0.216c0.803-0.287,1.477-0.581,2.023-0.88
			c0.557-0.31,1.115-0.708,1.673-1.195c0.267-0.266,0.587-0.642,0.958-1.129h-2.963c-0.197,0-0.297-0.061-0.297-0.183v-3.785
			c0-0.144,0.1-0.216,0.297-0.216h3.539v-1.328h-4.533c-0.139,0-0.209-0.089-0.209-0.266v-0.531
			C311.354,461.028,311.424,460.945,311.563,460.945z M316.096,466.457v-2.059h-2.563v2.059H316.096z M320.088,466.457v-2.059
			h-2.737v2.059H320.088z"/>
		<path fill="#43668B" d="M325.316,460.331h13.789c0.244,0,0.365,0.066,0.365,0.199v13.945c0,0.133-0.121,0.199-0.365,0.199h-0.697
			c-0.186,0-0.279-0.066-0.279-0.199v-0.78h-11.783v0.847c0,0.133-0.111,0.199-0.332,0.199h-0.697c-0.197,0-0.296-0.066-0.296-0.199
			V460.53C325.021,460.397,325.119,460.331,325.316,460.331z M326.346,472.616h11.783V461.46h-11.783V472.616z M329.204,463.851
			h6.136c0.197,0,0.297,0.066,0.297,0.199v6.906c0,0.133-0.1,0.199-0.297,0.199h-0.697c-0.174,0-0.262-0.066-0.262-0.199v-1.046
			h-4.201v0.93c0,0.122-0.086,0.183-0.261,0.183h-0.715c-0.175,0-0.261-0.061-0.261-0.183v-6.724
			C328.943,463.939,329.029,463.851,329.204,463.851z M330.18,468.831h4.201v-3.901h-4.201V468.831z"/>
		<path fill="#43668B" d="M346.287,466.839c0.059,0,0.384,0.266,0.977,0.797c0,0.11-0.07,0.183-0.209,0.216
			c-0.151,0.033-0.25,0.094-0.297,0.183c-0.36,0.487-0.727,0.913-1.098,1.278v5.645c0,0.133-0.089,0.199-0.266,0.199h-0.708
			c-0.142,0-0.212-0.066-0.212-0.199v-4.549c-0.465,0.41-1.052,0.857-1.761,1.345c-0.291-0.288-0.529-0.492-0.715-0.614
			c-0.081-0.088-0.122-0.149-0.122-0.183c0-0.022,0.023-0.05,0.069-0.083c0.965-0.542,1.813-1.189,2.546-1.942
			c0.578-0.554,1.136-1.218,1.673-1.992C346.212,466.872,346.252,466.839,346.287,466.839z M342.034,459.8h15.915
			c0.093,0,0.14,0.072,0.14,0.216v0.515c0,0.144-0.047,0.216-0.14,0.216h-5.229v1.112h3.975c0.174,0,0.261,0.066,0.261,0.199v2.523
			c0,0.133-0.087,0.199-0.261,0.199h-5.666c0.104,0.066,0.157,0.116,0.157,0.149c0,0.1-0.041,0.149-0.122,0.149
			c-0.151,0.011-0.256,0.072-0.313,0.183c-0.035,0.066-0.07,0.127-0.104,0.183h6.746c0.081,0,0.122,0.072,0.122,0.216v0.382
			c0,0.177-0.041,0.266-0.122,0.266h-7.356c-0.175,0.222-0.343,0.398-0.506,0.531h6.659c0.197,0,0.296,0.072,0.296,0.216v3.437
			c0,0.144-0.099,0.216-0.297,0.216h-4.124c-0.268,0.222-0.506,0.421-0.716,0.598h4.771c0.116,0,0.215,0.022,0.297,0.066
			c0.221,0.199,0.331,0.326,0.331,0.382c-0.384,0.476-0.745,0.847-1.083,1.112c-0.396,0.31-0.798,0.564-1.205,0.764
			c0.314,0.077,0.629,0.144,0.943,0.199c0.652,0.121,1.438,0.227,2.355,0.315c0.175,0,0.262,0.027,0.262,0.083
			c0,0.055-0.035,0.127-0.104,0.216c-0.151,0.188-0.29,0.382-0.418,0.581c-0.023,0.088-0.082,0.133-0.175,0.133
			c-1.257-0.188-2.211-0.371-2.863-0.548c-0.571-0.122-1.061-0.249-1.468-0.382c-0.082,0.021-0.157,0.044-0.228,0.066
			c-0.733,0.21-1.543,0.393-2.429,0.548c-0.594,0.122-1.368,0.227-2.321,0.315c-0.14,0-0.238-0.045-0.296-0.133
			c-0.128-0.178-0.256-0.354-0.384-0.531c-0.059-0.056-0.087-0.1-0.087-0.133s0.04-0.05,0.122-0.05
			c0.604-0.056,1.186-0.116,1.743-0.183c1.002-0.133,1.84-0.288,2.516-0.465c-0.232-0.111-0.437-0.222-0.611-0.332
			c-0.361-0.211-0.798-0.537-1.311-0.979c-0.035,0.011-0.059,0.022-0.07,0.033c-0.523,0.255-1.041,0.47-1.552,0.647
			c-0.116,0-0.204-0.033-0.262-0.1c-0.198-0.199-0.396-0.382-0.593-0.548c-0.035-0.066-0.053-0.116-0.053-0.149
			c0.488-0.133,0.896-0.266,1.221-0.398c0.453-0.154,0.93-0.382,1.431-0.681c0.187-0.11,0.42-0.26,0.699-0.448h-1.118
			c-0.175,0-0.262-0.072-0.262-0.216v-3.304c-0.232,0.188-0.511,0.41-0.835,0.664c-0.116,0-0.226-0.055-0.33-0.166
			c-0.15-0.121-0.307-0.249-0.47-0.382c-0.069-0.056-0.104-0.116-0.104-0.183c0.277-0.232,0.567-0.465,0.869-0.697
			c0.37-0.32,0.695-0.681,0.974-1.079c0.139-0.188,0.255-0.376,0.349-0.564H346l0.435,0.315c0.128,0.078,0.191,0.172,0.191,0.282
			c0,0.089-0.07,0.133-0.209,0.133c-0.197,0-0.342,0.056-0.435,0.166c-1.136,1.063-2.196,1.854-3.182,2.374
			c-0.093,0-0.168-0.039-0.227-0.116c-0.14-0.199-0.285-0.354-0.436-0.465c-0.07-0.066-0.104-0.116-0.104-0.149
			c0-0.055,0.028-0.088,0.087-0.1c0.337-0.133,0.674-0.315,1.011-0.548c0.476-0.288,0.91-0.608,1.304-0.963
			c0.302-0.299,0.568-0.608,0.8-0.93h-1.808c-0.174,0-0.261-0.066-0.261-0.199v-2.523c0-0.133,0.087-0.199,0.262-0.199h3.835v-1.112
			h-5.229c-0.094,0-0.14-0.072-0.14-0.216v-0.515C341.895,459.872,341.94,459.8,342.034,459.8z M347.264,463.917v-1.195h-2.859
			v1.195H347.264z M351.465,461.858v-1.112h-2.946v1.112H351.465z M351.465,463.917v-1.195h-2.946v1.195H351.465z M350.331,468.366
			h4.969v-0.73h-4.969V468.366z M355.3,469.91v-0.73h-4.969v0.73H355.3z M350.924,472.168c0.197,0.133,0.384,0.249,0.558,0.349
			c0.407,0.243,0.924,0.476,1.552,0.697c0.197-0.077,0.378-0.149,0.54-0.216c0.465-0.222,0.849-0.465,1.151-0.73
			c0.046-0.033,0.093-0.066,0.139-0.1H350.924z M355.718,463.917v-1.195h-2.998v1.195H355.718z"/>
		<path fill="#43668B" d="M367.396,474.608l-0.749,0.78c-0.919-0.809-1.703-1.771-2.354-2.889c-0.965-1.638-1.447-3.354-1.447-5.146
			s0.482-3.508,1.447-5.146c0.65-1.117,1.435-2.08,2.354-2.889l0.749,0.78c-0.837,0.73-1.546,1.6-2.127,2.606
			c-0.871,1.494-1.307,3.044-1.307,4.648c0,1.605,0.436,3.154,1.307,4.648C365.851,473.009,366.56,473.878,367.396,474.608z"/>
		<path fill="#43668B" d="M375.921,469.097c0,1.405-0.384,2.507-1.151,3.304c-0.697,0.741-1.58,1.112-2.649,1.112
			c-1.58,0-2.719-0.836-3.416-2.507l1.098-0.481c0.221,0.554,0.541,1.002,0.959,1.345c0.418,0.354,0.871,0.531,1.359,0.531
			c0.732,0,1.325-0.266,1.778-0.797c0.499-0.586,0.749-1.422,0.749-2.507c0-2.114-0.714-3.171-2.144-3.171
			c-1.022,0-1.755,0.515-2.196,1.544h-1.168v-6.475h6.275v1.129h-5.021v3.636c0.465-0.631,1.168-0.946,2.109-0.946
			c1.046,0,1.877,0.388,2.492,1.162C375.612,466.75,375.921,467.791,375.921,469.097z"/>
		<path fill="#43668B" d="M382.563,460.464c0.93,0.31,1.395,0.509,1.395,0.598c0,0.122-0.075,0.21-0.227,0.266
			c-0.151,0-0.262,0.072-0.331,0.216c-0.313,0.896-0.68,1.716-1.099,2.457c-0.406,0.709-0.848,1.328-1.324,1.859
			c-0.651,0.664-1.441,1.284-2.371,1.859c-0.081,0.045-0.163,0.066-0.244,0.066c-0.128,0-0.232-0.066-0.313-0.199
			c-0.128-0.177-0.273-0.326-0.436-0.448c-0.094-0.056-0.14-0.133-0.14-0.232c0-0.033,0.035-0.066,0.104-0.1
			c0.349-0.11,0.691-0.293,1.028-0.548c0.593-0.365,1.116-0.803,1.569-1.312c0.581-0.608,1.08-1.399,1.499-2.374
			c0.29-0.598,0.511-1.25,0.662-1.959C382.371,460.514,382.446,460.464,382.563,460.464z M385.753,460.215h3.277
			c0.115,0,0.203,0.066,0.261,0.199c0.5,1.849,1.005,3.148,1.517,3.901c0.616,1.151,1.621,1.97,3.016,2.457
			c0.151,0.033,0.227,0.128,0.227,0.282c0,0.056-0.04,0.116-0.122,0.183c-0.221,0.199-0.424,0.388-0.609,0.564
			c-0.082,0.122-0.181,0.183-0.297,0.183c-0.976-0.509-1.767-1.084-2.37-1.727v0.05c-0.023,2.313-0.105,3.979-0.244,4.997
			c-0.14,1.206-0.331,2.103-0.575,2.689c-0.244,0.642-0.878,0.963-1.9,0.963c-1,0-1.517-0.127-1.552-0.382
			c-0.069-0.266-0.278-0.581-0.627-0.946v-0.133c0.79,0.088,1.517,0.133,2.179,0.133c0.488,0,0.802-0.222,0.941-0.664
			c0.174-0.354,0.308-1.035,0.4-2.042c0.105-0.786,0.181-2.053,0.227-3.802h-4.793c-0.07,1.428-0.216,2.469-0.437,3.121
			c-0.302,0.963-0.714,1.766-1.237,2.407c-0.465,0.498-1.022,0.93-1.673,1.295c-0.582,0.365-1.349,0.702-2.302,1.013
			c-0.313-0.321-0.587-0.614-0.819-0.88c0.488-0.11,1.063-0.338,1.727-0.681c0.755-0.377,1.359-0.791,1.813-1.245
			c0.581-0.653,0.987-1.378,1.22-2.175c0.232-0.652,0.384-1.604,0.454-2.855h-2.284c-0.14,0-0.209-0.094-0.209-0.282v-0.531
			c0-0.177,0.069-0.266,0.209-0.266h9.257c-0.244-0.276-0.46-0.564-0.646-0.863c-0.477-0.797-0.993-2.103-1.552-3.918h-2.475
			c-0.128,0-0.192-0.083-0.192-0.249v-0.548C385.561,460.298,385.625,460.215,385.753,460.215z"/>
		<path fill="#43668B" d="M399.088,459.601l1.168,0.548c0.104,0.078,0.156,0.139,0.156,0.183c0,0.133-0.099,0.199-0.296,0.199
			c-0.14,0-0.25,0.05-0.331,0.149c0.395,0.543,0.72,0.93,0.976,1.162c0.396,0.388,0.878,0.753,1.447,1.096
			c0,0.111-0.035,0.188-0.104,0.232c-0.163,0.133-0.384,0.321-0.663,0.564c-0.023,0-0.058-0.017-0.104-0.05
			c-0.325-0.188-0.639-0.432-0.941-0.73c-0.337-0.354-0.715-0.808-1.133-1.361c-0.163,0.276-0.319,0.521-0.471,0.73
			c-0.232,0.365-0.517,0.736-0.854,1.112c-0.325,0.377-0.656,0.725-0.993,1.046c-0.047,0.044-0.087,0.077-0.122,0.1h4.689
			c0.093,0,0.14,0.066,0.14,0.199v0.531c0,0.177-0.047,0.266-0.14,0.266h-1.674v2.059h2.109c0.081,0,0.122,0.072,0.122,0.216v0.515
			c0,0.188-0.041,0.282-0.122,0.282h-2.109v4.283c0.616-0.145,1.209-0.305,1.778-0.481c0.035-0.022,0.075-0.033,0.122-0.033
			c0.093,0,0.14,0.066,0.14,0.199c0,0.521-0.023,0.813-0.07,0.88c-1.801,0.465-3.62,0.88-5.456,1.245
			c-0.163,0.31-0.296,0.465-0.4,0.465c-0.105,0-0.314-0.442-0.628-1.328c0.825-0.11,1.824-0.305,2.998-0.581
			c0.116-0.022,0.227-0.05,0.331-0.083v-4.565h-2.51c-0.081,0-0.122-0.094-0.122-0.282v-0.515c0-0.144,0.041-0.216,0.122-0.216h2.51
			v-2.059h-1.795c-0.094,0-0.14-0.089-0.14-0.266v-0.531c0-0.044,0.006-0.083,0.018-0.116c-0.232,0.211-0.431,0.365-0.593,0.465
			c-0.093,0-0.175-0.05-0.244-0.149c-0.14-0.222-0.303-0.409-0.488-0.564c-0.104-0.056-0.156-0.104-0.156-0.149
			c0-0.033,0.017-0.061,0.052-0.083c0.453-0.266,0.831-0.531,1.133-0.797c0.419-0.365,0.837-0.83,1.256-1.395
			c0.29-0.354,0.517-0.702,0.68-1.046c0.209-0.365,0.395-0.764,0.558-1.195C398.988,459.65,399.041,459.601,399.088,459.601z
			 M396.577,469.694c0.349,0.498,0.634,0.958,0.854,1.378c0.209,0.377,0.384,0.786,0.522,1.229c0,0.033-0.366,0.139-1.098,0.315
			c-0.059-0.266-0.187-0.598-0.384-0.996c-0.209-0.465-0.482-0.93-0.819-1.395C395.653,470.159,395.961,469.982,396.577,469.694z
			 M401.44,469.562l0.837,0.349c0.151,0.056,0.227,0.122,0.227,0.199c0,0.056-0.041,0.094-0.122,0.116
			c-0.093,0-0.151,0.044-0.174,0.133c-0.256,0.697-0.512,1.234-0.768,1.61c-0.058,0.089-0.099,0.133-0.122,0.133
			c-0.069,0-0.15-0.033-0.244-0.1c-0.197-0.088-0.383-0.172-0.558-0.249c-0.069-0.033-0.104-0.056-0.104-0.066
			c0-0.022,0.012-0.05,0.035-0.083c0.232-0.343,0.406-0.637,0.522-0.88c0.175-0.343,0.303-0.681,0.384-1.013
			C401.377,469.611,401.406,469.562,401.44,469.562z M403.41,465.793h7.095c0.198,0,0.297,0.061,0.297,0.183v4.798
			c0,0.122-0.099,0.183-0.297,0.183h-2.998v0.93h3.364c0.081,0,0.122,0.072,0.122,0.216v0.515c0,0.188-0.041,0.282-0.122,0.282
			h-3.364v0.797h4.132c0.081,0,0.122,0.061,0.122,0.183v0.548c0,0.166-0.041,0.249-0.122,0.249h-9.779
			c-0.094,0-0.14-0.083-0.14-0.249v-0.548c0-0.122,0.046-0.183,0.14-0.183h4.462v-0.797h-3.434c-0.081,0-0.122-0.094-0.122-0.282
			v-0.515c0-0.144,0.041-0.216,0.122-0.216h3.434v-0.93h-2.912c-0.197,0-0.295-0.061-0.295-0.183v-4.798
			C403.114,465.854,403.213,465.793,403.41,465.793z M406.479,459.601c0.883,0,1.325,0.066,1.325,0.199
			c0,0.155-0.064,0.243-0.192,0.266c-0.116,0.011-0.174,0.122-0.174,0.332v0.614h3.434c0.081,0,0.122,0.061,0.122,0.183v0.531
			c0,0.177-0.041,0.266-0.122,0.266h-1.621l0.837,0.432c0.104,0.056,0.157,0.11,0.157,0.166c0,0.066-0.053,0.105-0.157,0.116
			c-0.163,0.012-0.262,0.061-0.297,0.149c-0.15,0.332-0.365,0.708-0.645,1.129h1.987c0.093,0,0.14,0.066,0.14,0.199v0.531
			c0,0.188-0.047,0.282-0.14,0.282h-8.42c-0.093,0-0.139-0.094-0.139-0.282v-0.531c0-0.133,0.046-0.199,0.139-0.199h2.162
			c-0.035-0.089-0.076-0.183-0.122-0.282c-0.187-0.409-0.425-0.824-0.715-1.245c0-0.066,0.256-0.222,0.767-0.465h-2.021
			c-0.094,0-0.14-0.089-0.14-0.266v-0.531c0-0.122,0.046-0.183,0.14-0.183h3.416V459.8
			C406.199,459.667,406.293,459.601,406.479,459.601z M404.3,467.918h2.021v-1.146H404.3V467.918z M406.321,469.977v-1.146H404.3
			v1.146H406.321z M406.008,463.983h1.761c0.232-0.288,0.418-0.569,0.558-0.847c0.197-0.42,0.36-0.803,0.488-1.146h-3.835
			c0.278,0.421,0.506,0.808,0.68,1.162C405.799,463.43,405.915,463.707,406.008,463.983z M407.507,466.772v1.146h2.109v-1.146
			H407.507z M409.616,469.977v-1.146h-2.109v1.146H409.616z"/>
		<path fill="#43668B" d="M414.828,462.938h6.188c-0.093-0.631-0.15-1.295-0.174-1.992h-2.72c-0.15,0-0.227-0.088-0.227-0.266
			v-0.531c0-0.188,0.076-0.282,0.227-0.282h3.539c0.197,0,0.296,0.072,0.296,0.216c0,1.052,0.076,2.004,0.227,2.855h5.7
			c0.221,0,0.332,0.083,0.332,0.249v10.393c0,0.421-0.256,0.753-0.768,0.996c-0.477,0.188-1.098,0.315-1.865,0.382
			c-0.14,0-0.221-0.072-0.244-0.216c-0.012-0.232-0.14-0.581-0.383-1.046c0-0.056,0.052-0.083,0.156-0.083
			c0.895,0,1.418-0.05,1.569-0.149c0.186-0.111,0.278-0.277,0.278-0.498v-3.038c-0.023,0.011-0.046,0.022-0.069,0.033
			c-0.209,0.177-0.413,0.365-0.61,0.564c-0.093,0.077-0.215,0.116-0.366,0.116c-0.453-0.177-0.981-0.548-1.586-1.112
			c-0.837-0.753-1.459-1.521-1.865-2.308c-0.337-0.575-0.622-1.195-0.854-1.859c-0.139,0.288-0.284,0.543-0.436,0.764
			c-0.43,0.753-0.871,1.417-1.324,1.992c-0.523,0.609-1.099,1.185-1.727,1.727c-0.778,0.62-1.22,0.93-1.324,0.93
			c-0.094,0-0.181-0.083-0.262-0.249c-0.186-0.21-0.396-0.437-0.628-0.681c-0.034-0.033-0.069-0.061-0.104-0.083v5.13
			c0,0.133-0.093,0.199-0.278,0.199h-0.697c-0.175,0-0.262-0.066-0.262-0.199v-11.704
			C414.566,463.021,414.653,462.938,414.828,462.938z M415.804,469.595c0.825-0.442,1.522-0.896,2.092-1.361
			c0.593-0.521,1.191-1.179,1.796-1.976c0.325-0.509,0.737-1.268,1.237-2.274h-5.125V469.595z M422.41,463.983
			c0.244,0.996,0.576,1.843,0.994,2.54c0.418,0.73,0.993,1.4,1.726,2.009c0.512,0.409,1.087,0.764,1.726,1.063
			c0.047,0.022,0.081,0.044,0.104,0.066v-5.678H422.41z"/>
		<path fill="#43668B" d="M435.328,467.354c0,1.793-0.482,3.509-1.447,5.146c-0.65,1.117-1.435,2.08-2.353,2.889l-0.75-0.78
			c0.837-0.73,1.546-1.6,2.127-2.606c0.871-1.494,1.308-3.043,1.308-4.648c0-1.604-0.437-3.154-1.308-4.648
			c-0.581-1.007-1.29-1.876-2.127-2.606l0.75-0.78c0.918,0.809,1.702,1.771,2.353,2.889
			C434.846,463.846,435.328,465.561,435.328,467.354z"/>
	</g>
</g>
<g id="圖層_2">
</g>
</svg>
