<?xml version="1.0" encoding="utf-8"?>
<!-- Generator: Adobe Illustrator 16.0.0, SVG Export Plug-In . SVG Version: 6.00 Build 0)  -->
<!DOCTYPE svg PUBLIC "-//W3C//DTD SVG 1.1//EN" "http://www.w3.org/Graphics/SVG/1.1/DTD/svg11.dtd">
<svg version="1.1" id="圖層_1" xmlns="http://www.w3.org/2000/svg" xmlns:xlink="http://www.w3.org/1999/xlink" x="0px" y="0px"
	 width="595.28px" height="841.89px" viewBox="0 0 595.28 841.89" enable-background="new 0 0 595.28 841.89" xml:space="preserve">
<rect x="37.021" y="12" fill="#FFFFFF" width="526" height="816"/>
<g>
	<rect x="165.521" y="271.182" fill="#43668B" width="268.999" height="36"/>
	<text transform="matrix(1.05 0 0 1 247.521 295.1973)" fill="#FFFFFF" font-family="'DFHei-W5-WIN-BF'" font-size="20">地區性刊登</text>
</g>
<g>
	<circle fill="#FFFFFF" stroke="#43668B" stroke-width="2" stroke-miterlimit="10" cx="154.727" cy="379.029" r="45"/>
	<path opacity="0.2" fill="#43668B" d="M111.003,387.109c2.156,12.336,9.326,22.945,19.343,29.639l24.97-37.436L111.003,387.109z"/>
	<text transform="matrix(1.05 0 0 1 133.7271 385.0439)" fill="#43668B" font-family="'DFHei-W5-WIN-BF'" font-size="20">月繳</text>
</g>
<g>
	<circle fill="#FFFFFF" stroke="#43668B" stroke-width="2" stroke-miterlimit="10" cx="425.26" cy="379.029" r="45"/>
	<text transform="matrix(1.05 0 0 1 404.2617 385.0439)" fill="#43668B" font-family="'DFHei-W5-WIN-BF'" font-size="20">年繳</text>
	<circle opacity="0.2" fill="#43668B" cx="425.26" cy="379.029" r="45"/>
</g>
<g>
	<path fill="#FFFFFF" stroke="#43668B" stroke-width="2" stroke-miterlimit="10" d="M333.593,379.028
		c0,24.853-20.148,44.999-44.998,44.999c-24.853,0-45-20.146-45-44.999s20.147-45,45-45
		C313.444,334.028,333.593,354.176,333.593,379.028z"/>
	<text transform="matrix(1.05 0 0 1 267.5947 385.0435)" fill="#43668B" font-family="'DFHei-W5-WIN-BF'" font-size="20">季繳</text>
	<path opacity="0.2" fill="#43668B" d="M243.594,379.028L243.594,379.028c0,24.854,20.147,45.001,45,45.001
		c12.424,0,23.674-5.037,31.818-13.18l-31.818-31.82L243.594,379.028z"/>
</g>
<g>
	<text transform="matrix(1.05 0 0 1 120.73 452.1934)" fill="#43668B" font-family="'DFHei-W5-WIN-BF'" font-size="20">12.000</text>
</g>
<g>
	<text transform="matrix(1.05 0 0 1 258.73 452.1934)" fill="#43668B" font-family="'DFHei-W5-WIN-BF'" font-size="20">30.600</text>
</g>
<g>
	<text transform="matrix(1.05 0 0 1 387.3965 452.1934)" fill="#43668B" font-family="'DFHei-W5-WIN-BF'" font-size="20">100.800</text>
</g>
<g>
	<rect x="164.122" y="56.165" fill="#43668B" width="268.999" height="36"/>
	<text transform="matrix(1.05 0 0 1 246.1216 80.1802)" fill="#FFFFFF" font-family="'DFHei-W5-WIN-BF'" font-size="20">全國性刊登</text>
</g>
<g>
	<circle fill="#FFFFFF" stroke="#43668B" stroke-width="2" stroke-miterlimit="10" cx="154.727" cy="159.073" r="45"/>
	<path opacity="0.2" fill="#43668B" d="M111.003,167.153c2.156,12.336,9.326,22.945,19.343,29.639l24.97-37.436L111.003,167.153z"/>
	<text transform="matrix(1.05 0 0 1 133.7271 165.0874)" fill="#43668B" font-family="'DFHei-W5-WIN-BF'" font-size="20">月繳</text>
</g>
<g>
	<circle fill="#FFFFFF" stroke="#43668B" stroke-width="2" stroke-miterlimit="10" cx="425.26" cy="159.073" r="45"/>
	<text transform="matrix(1.05 0 0 1 404.2617 165.0874)" fill="#43668B" font-family="'DFHei-W5-WIN-BF'" font-size="20">年繳</text>
	<circle opacity="0.2" fill="#43668B" cx="425.26" cy="159.073" r="45"/>
</g>
<g>
	<path fill="#FFFFFF" stroke="#43668B" stroke-width="2" stroke-miterlimit="10" d="M333.593,159.072
		c0,24.853-20.148,44.999-44.998,44.999c-24.853,0-45-20.146-45-44.999s20.147-45,45-45
		C313.444,114.072,333.593,134.219,333.593,159.072z"/>
	<text transform="matrix(1.05 0 0 1 267.5947 165.0869)" fill="#43668B" font-family="'DFHei-W5-WIN-BF'" font-size="20">季繳</text>
	<path opacity="0.2" fill="#43668B" d="M243.594,159.072L243.594,159.072c0,24.854,20.147,45.001,45,45.001
		c12.424,0,23.674-5.037,31.818-13.18l-31.818-31.82L243.594,159.072z"/>
</g>
<g>
	<text transform="matrix(1.05 0 0 1 120.73 232.2368)" fill="#43668B" font-family="'DFHei-W5-WIN-BF'" font-size="20">30.000</text>
</g>
<g>
	<text transform="matrix(1.05 0 0 1 258.73 232.2368)" fill="#43668B" font-family="'DFHei-W5-WIN-BF'" font-size="20">76.500</text>
</g>
<g>
	<text transform="matrix(1.05 0 0 1 387.3965 232.2368)" fill="#43668B" font-family="'DFHei-W5-WIN-BF'" font-size="20">252.000</text>
</g>
<g>
	<rect x="161.795" y="497.359" fill="#43668B" width="269" height="36"/>
	<text transform="matrix(1.05 0 0 1 254.2954 523.5586)" fill="#FFFFFF" font-family="'DFHei-W5-WIN-BF'" font-size="20">刊登地區</text>
</g>
<circle fill="#FFFFFF" stroke="#43668B" stroke-width="3" stroke-miterlimit="10" cx="154.67" cy="612.811" r="52"/>
<circle fill="#FFFFFF" stroke="#43668B" stroke-width="3" stroke-miterlimit="10" cx="296.295" cy="612.811" r="52"/>
<circle fill="#FFFFFF" stroke="#43668B" stroke-width="3" stroke-miterlimit="10" cx="440.608" cy="612.811" r="52"/>
<circle fill="#FFFFFF" stroke="#43668B" stroke-width="3" stroke-miterlimit="10" cx="440.608" cy="733.726" r="52.001"/>
<circle fill="#FFFFFF" stroke="#43668B" stroke-width="3" stroke-miterlimit="10" cx="296.295" cy="733.726" r="52"/>
<circle fill="#FFFFFF" stroke="#43668B" stroke-width="3" stroke-miterlimit="10" cx="154.67" cy="733.726" r="52"/>
<text transform="matrix(1.05 0 0 1 107.4204 618.2246)" fill="#43668B" font-family="'DFHei-W5-WINP-BF'" font-size="18">北、北、基</text>
<text transform="matrix(1.05 0 0 1 249.0454 618.2246)" fill="#43668B" font-family="'DFHei-W5-WINP-BF'" font-size="18">桃、竹、苗</text>
<text transform="matrix(1.05 0 0 1 107.4204 739.1387)" fill="#43668B" font-family="'DFHei-W5-WINP-BF'" font-size="18">雲、嘉、南</text>
<text transform="matrix(1.05 0 0 1 249.0449 739.1387)" fill="#43668B" font-family="'DFHei-W5-WINP-BF'" font-size="18">高雄、屏東</text>
<text transform="matrix(1.05 0 0 1 393.3584 739.1387)" fill="#43668B" font-family="'DFHei-W5-WINP-BF'" font-size="18">花蓮、台東</text>
<text transform="matrix(1.05 0 0 1 394.5576 618.2246)" fill="#43668B" font-family="'DFHei-W5-WINP-BF'" font-size="18">中、彰、投</text>
</svg>
