<?xml version="1.0" encoding="utf-8"?>
<!-- Generator: Adobe Illustrator 16.0.0, SVG Export Plug-In . SVG Version: 6.00 Build 0)  -->
<!DOCTYPE svg PUBLIC "-//W3C//DTD SVG 1.1//EN" "http://www.w3.org/Graphics/SVG/1.1/DTD/svg11.dtd">
<svg version="1.1" id="圖層_1" xmlns="http://www.w3.org/2000/svg" xmlns:xlink="http://www.w3.org/1999/xlink" x="0px" y="0px"
	 width="841.89px" height="595.28px" viewBox="0 0 841.89 595.28" enable-background="new 0 0 841.89 595.28" xml:space="preserve">
<rect x="24.463" y="14.561" fill="#FFFFFF" width="791.96" height="272.388"/>
<text transform="matrix(1.05 0 0 1 346.354 64.561)" fill="#43668B" font-family="'DFHei-W5-WIN-BF'" font-size="23">開通方案</text>
<g>
	<g>
		<rect x="63.823" y="125.547" fill="#43668B" width="142.153" height="36"/>
		<text transform="matrix(1.05 0 0 1 95.3232 149.563)" fill="#FFFFFF" font-family="'DFHei-W5-WIN-BF'" font-size="20">購買帳號</text>
	</g>
	<text transform="matrix(1.05 0 0 1 78.1992 207.8198)"><tspan x="0" y="0" fill="#43668B" font-family="'DFHei-W5-WINP-BF'" font-size="18">刊登放款文案</tspan><tspan x="-36" y="21.6" fill="#43668B" font-family="'DFHei-W5-WINP-BF'" font-size="18">可查看借款人聯絡資訊</tspan></text>
</g>
<g>
	<g>
		<rect x="323.58" y="125.547" fill="#43668B" width="142.147" height="36"/>
		<text transform="matrix(1.05 0 0 1 355.9067 149.563)" fill="#FFFFFF" font-family="'DFHei-W5-WIN-BF'" font-size="20">購買廣告</text>
	</g>
	<text transform="matrix(1.05 0 0 1 309.604 205.8042)"><tspan x="0" y="0" fill="#43668B" font-family="'DFHei-W5-WINP-BF'" font-size="18">分為全國、地區看板</tspan><tspan x="-9" y="21.6" fill="#43668B" font-family="'DFHei-W5-WINP-BF'" font-size="18">全國看板顯示於首頁上</tspan></text>
</g>
<g>
	<g>
		<rect x="583.204" y="125.547" fill="#43668B" width="196.436" height="36"/>
		<text transform="matrix(1.05 0 0 1 610.9844 149.563)"><tspan x="0" y="0" fill="#FFFFFF" font-family="'DFHei-W5-WIN-BF'" font-size="20">帳號</tspan><tspan x="40" y="0" fill="#FFFFFF" font-family="'DFHei-W5-WINP-BF'" font-size="18">、廣告同時買</tspan></text>
	</g>
	<text transform="matrix(1.05 0 0 1 596.3691 206.8042)"><tspan x="0" y="0" fill="#43668B" font-family="'DFHei-W5-WINP-BF'" font-size="18">同時購買價格更划算</tspan><tspan x="16.488" y="21.6" fill="#43668B" font-family="'DFHei-W5-WINP-BF'" font-size="18">升級為V I P用戶</tspan><tspan x="-9.352" y="43.2" fill="#43668B" font-family="'DFHei-W5-WINP-BF'" font-size="18">LINE通知最新借款需求</tspan></text>
</g>
</svg>
