<?xml version="1.0" encoding="utf-8"?>
<!-- Generator: Adobe Illustrator 16.0.0, SVG Export Plug-In . SVG Version: 6.00 Build 0)  -->
<!DOCTYPE svg PUBLIC "-//W3C//DTD SVG 1.1//EN" "http://www.w3.org/Graphics/SVG/1.1/DTD/svg11.dtd">
<svg version="1.1" id="圖層_1" xmlns="http://www.w3.org/2000/svg" xmlns:xlink="http://www.w3.org/1999/xlink" x="0px" y="0px"
	 width="841.891px" height="595.28px" viewBox="0 0 841.891 595.28" enable-background="new 0 0 841.891 595.28"
	 xml:space="preserve">
<g>
	<path fill="#0D3E59" d="M542.086,383.451c0,21.759-17.643,39.388-39.398,39.388H297.935c-21.758,0-39.4-17.629-39.4-39.388V178.698
		c0-21.76,17.643-39.404,39.4-39.404h204.753c21.756,0,39.398,17.645,39.398,39.404V383.451z"/>
	<g>
		<path fill="#FFFFFF" d="M400.299,242.394v77.551h-36.025h-0.229v-77.551h0.229v-34.74c-12.006,0.209-20.117,2.348-24.254,6.498
			c-4.492,5.064-6.739,15.455-6.739,31.182v77.153c0,12.073,2.313,20.421,6.955,25.055c4.634,4.647,12.362,6.968,23.178,6.968
			h27.401c10.815,0,18.477-2.246,22.969-6.753c4.783-4.909,7.157-13.404,7.157-25.491v-79.871h31.827v104.32h30.779V240.489
			c0-12.779-2.12-21.496-6.337-26.137c-4.353-4.48-12.651-6.732-24.865-6.732h-74.605l0.396,34.773H400.299z"/>
		<path fill="#FFFFFF" d="M437.137,292.704c0,12.678-7.264,19.027-21.785,19.027h-29.548v-12.086h29.548
			c3.994,0,6.745-0.519,8.26-1.548c1.593-1.022,2.4-2.824,2.4-5.394c0-4.547-2.993-6.813-8.979-6.813h-11.966
			c-14.44,0-21.658-5.912-21.658-17.743c0-6.605,2.429-11.4,7.298-14.4c3.511-2.227,7.896-3.344,13.163-3.344h29.675v12.087H403.87
			c-6.142,0-9.215,1.891-9.215,5.657c0,2.744,1.196,4.5,3.592,5.267c1.036,0.262,3.302,0.383,6.82,0.383h11.966
			c6.141,0,11.051,1.628,14.723,4.89C435.334,281.949,437.137,286.624,437.137,292.704z"/>
	</g>
</g>
</svg>
