<?xml version="1.0" encoding="utf-8"?>
<!-- Generator: Adobe Illustrator 16.0.0, SVG Export Plug-In . SVG Version: 6.00 Build 0)  -->
<!DOCTYPE svg PUBLIC "-//W3C//DTD SVG 1.1//EN" "http://www.w3.org/Graphics/SVG/1.1/DTD/svg11.dtd">
<svg version="1.1" id="圖層_1" xmlns="http://www.w3.org/2000/svg" xmlns:xlink="http://www.w3.org/1999/xlink" x="0px" y="0px"
	 width="595.28px" height="841.89px" viewBox="0 0 595.28 841.89" enable-background="new 0 0 595.28 841.89" xml:space="preserve">
<rect x="-0.34" y="-0.851" fill="#FFFFFF" width="595.28" height="841.891"/>
<g>
	<g>
		<rect x="162.8" y="63" fill="#43668B" width="269" height="36"/>
	</g>
	<g>
		<path fill="#FFFFFF" d="M253.957,74.668h6.87c0.232,0,0.349,0.072,0.349,0.215v6.27c0,0.208-0.116,0.313-0.349,0.313h-5.722
			v10.449c0,0.169-0.109,0.254-0.328,0.254h-0.82c-0.232,0-0.349-0.085-0.349-0.254V74.883
			C253.608,74.74,253.724,74.668,253.957,74.668z M255.105,77.461h4.573V75.82h-4.573V77.461z M255.105,80.293h4.573v-1.641h-4.573
			V80.293z M257.668,83.027h9.064c0.109,0,0.164,0.072,0.164,0.215v0.645c0,0.195-0.055,0.293-0.164,0.293h-1.887v2.344h2.871
			c0.123,0,0.185,0.078,0.185,0.234v0.625c0,0.208-0.062,0.313-0.185,0.313h-2.871v3.984c0,0.156-0.103,0.234-0.308,0.234h-0.82
			c-0.178,0-0.267-0.078-0.267-0.234v-3.984h-2.611c-0.055,0.378-0.136,0.736-0.245,1.074c-0.231,0.768-0.702,1.445-1.41,2.031
			c-0.451,0.403-1.073,0.807-1.866,1.211c-0.15,0-0.273-0.046-0.369-0.137c-0.178-0.234-0.362-0.443-0.554-0.625
			c-0.096-0.091-0.144-0.183-0.144-0.273c1.531-0.729,2.522-1.602,2.974-2.617c0.082-0.208,0.144-0.43,0.185-0.664h-2.728
			c-0.109,0-0.164-0.104-0.164-0.313v-0.625c0-0.156,0.055-0.234,0.164-0.234h2.912c0.014-0.221,0.021-0.436,0.021-0.645V84.18
			h-1.948c-0.109,0-0.164-0.098-0.164-0.293v-0.645C257.504,83.099,257.559,83.027,257.668,83.027z M263.452,86.523V84.18h-2.44
			v1.68c0,0.234-0.007,0.456-0.021,0.664H263.452z M263.452,74.668h6.645c0.287,0,0.431,0.072,0.431,0.215v15.176
			c0,0.625-0.342,1.12-1.025,1.484c-0.615,0.273-1.422,0.456-2.42,0.547c-0.164,0-0.26-0.085-0.287-0.254
			c-0.014-0.273-0.164-0.684-0.451-1.23c0-0.078,0.062-0.117,0.185-0.117c1.203,0,1.907-0.085,2.112-0.254
			c0.273-0.156,0.41-0.404,0.41-0.742v-8.105h-5.599c-0.219,0-0.328-0.11-0.328-0.332v-6.172
			C263.124,74.74,263.233,74.668,263.452,74.668z M264.621,77.461h4.43V75.82h-4.43V77.461z M264.621,80.195h4.43v-1.543h-4.43
			V80.195z"/>
		<path fill="#FFFFFF" d="M274.054,83.242h3.773c0.205,0,0.308,0.078,0.308,0.234v5.176c0.014,0.456,0.096,0.807,0.246,1.055
			c0.109,0.234,0.28,0.417,0.513,0.547c0.314,0.182,0.677,0.306,1.087,0.371c0.561,0.078,1.176,0.117,1.846,0.117h4.471
			c1.736,0,3.787-0.183,6.152-0.547c0.096-0.052,0.198-0.078,0.308-0.078c0.096,0,0.144,0.026,0.144,0.078
			c-0.164,0.534-0.287,1.074-0.369,1.621c-0.027,0.234-0.15,0.352-0.369,0.352h-10.336c-0.492,0-0.971-0.039-1.436-0.117
			c-0.479-0.065-0.943-0.169-1.395-0.313c-0.383-0.144-0.752-0.332-1.107-0.566c-0.219-0.208-0.465-0.56-0.738-1.055l-0.082-0.078
			c-0.082,0-0.13,0.02-0.144,0.059c-1.395,1.028-2.16,1.725-2.297,2.09c-0.041,0.091-0.103,0.137-0.185,0.137
			s-0.349-0.339-0.8-1.016c-0.068-0.117-0.103-0.254-0.103-0.41c0.807-0.339,1.812-0.951,3.015-1.836
			c0.082-0.052,0.123-0.188,0.123-0.41v-4.141h-2.625c-0.178,0-0.267-0.11-0.267-0.332v-0.625
			C273.788,83.347,273.876,83.242,274.054,83.242z M274.875,78.555c0.766,0.378,1.395,0.729,1.887,1.055
			c0.574,0.391,1.06,0.749,1.456,1.074c0,0.013-0.034,0.065-0.103,0.156c-0.396,0.56-0.602,0.84-0.615,0.84
			c-0.643-0.508-1.319-0.963-2.03-1.367c-0.574-0.352-1.046-0.592-1.415-0.723c0-0.078,0.212-0.371,0.636-0.879
			C274.758,78.607,274.82,78.555,274.875,78.555z M275.346,74.414c0.738,0.339,1.34,0.651,1.805,0.938
			c0.547,0.339,1.019,0.658,1.415,0.957c0,0.013-0.034,0.065-0.103,0.156c-0.41,0.573-0.622,0.859-0.636,0.859
			c-0.602-0.456-1.244-0.872-1.928-1.25c-0.547-0.299-1.005-0.508-1.374-0.625c0-0.078,0.219-0.371,0.656-0.879
			C275.25,74.466,275.305,74.414,275.346,74.414z M280.515,74.59h9.615c0.192,0,0.315,0.026,0.37,0.078
			c0.301,0.195,0.452,0.345,0.452,0.449l-4.15,2.715c0.342,0.144,0.65,0.28,0.925,0.41c0,0.026-0.034,0.078-0.103,0.156
			c-0.096,0.144-0.178,0.254-0.247,0.332h3.657c0.26,0,0.39,0.124,0.39,0.371v9.453c0,0.391-0.271,0.696-0.812,0.918
			c-0.512,0.169-1.178,0.286-1.998,0.352c-0.15,0-0.232-0.072-0.246-0.215c-0.027-0.273-0.191-0.677-0.492-1.211
			c0-0.039,0.062-0.059,0.185-0.059c0.93,0,1.483-0.045,1.661-0.137c0.205-0.078,0.308-0.228,0.308-0.449v-1.445h-3.507v3.359
			c0,0.143-0.116,0.215-0.349,0.215h-0.8c-0.232,0-0.349-0.072-0.349-0.215v-3.359h-3.281v3.203c0,0.156-0.111,0.234-0.333,0.234
			h-0.833c-0.153,0-0.229-0.078-0.229-0.234V79.023c0-0.195,0.075-0.293,0.226-0.293h5.383c-0.589-0.273-1.185-0.514-1.788-0.723
			c-0.808-0.299-1.479-0.508-2.013-0.625c0-0.065,0.191-0.332,0.575-0.801c0.055-0.078,0.109-0.117,0.165-0.117
			c1.027,0.287,1.876,0.56,2.547,0.82l2.466-1.543h-7.396c-0.165,0-0.247-0.098-0.247-0.293v-0.625
			C280.268,74.668,280.35,74.59,280.515,74.59z M281.745,81.914h3.281v-1.953h-3.281V81.914z M281.745,85.117h3.281v-2.012h-3.281
			V85.117z M286.523,79.961v1.953h3.507v-1.953H286.523z M286.523,83.105v2.012h3.507v-2.012H286.523z"/>
		<path fill="#FFFFFF" d="M295.136,77.324h2.707v-2.988c0-0.156,0.103-0.234,0.308-0.234c1.052,0,1.58,0.078,1.58,0.234
			c0,0.183-0.068,0.287-0.205,0.313c-0.15,0.013-0.227,0.144-0.227,0.391v2.285h2.729c0.26,0,0.389,0.098,0.389,0.293v9.18
			c0,0.378-0.184,0.671-0.553,0.879c-0.328,0.169-0.766,0.287-1.313,0.352c-0.15,0-0.24-0.078-0.268-0.234
			c-0.027-0.286-0.191-0.709-0.492-1.27c0-0.039,0.027-0.059,0.082-0.059c0.52,0,0.82-0.039,0.902-0.117
			c0.109-0.078,0.164-0.215,0.164-0.41v-7.383h-1.641v13.457c0,0.156-0.109,0.234-0.328,0.234h-0.82
			c-0.205,0-0.308-0.078-0.308-0.234V78.555h-1.559v9.238c0,0.156-0.109,0.234-0.328,0.234h-0.82c-0.232,0-0.349-0.078-0.349-0.234
			V77.617C294.788,77.422,294.904,77.324,295.136,77.324z M305.719,75.898v1.563h6.541c0.178,0,0.268,0.111,0.268,0.332v0.605
			c0,0.222-0.09,0.332-0.268,0.332h-6.541v1.563h6.541c0.178,0,0.268,0.104,0.268,0.313v0.625c0,0.195-0.09,0.293-0.268,0.293
			h-6.541v1.426h7.875c0.15,0,0.225,0.098,0.225,0.293v0.645c0,0.195-0.074,0.293-0.225,0.293h-4.861
			c0.205,0.82,0.432,1.537,0.678,2.148c0.123,0.3,0.252,0.586,0.389,0.859c0.369-0.156,0.691-0.319,0.965-0.488
			c0.52-0.286,1.039-0.677,1.559-1.172c0.082-0.052,0.15-0.078,0.205-0.078c0.861,0.677,1.291,1.062,1.291,1.152
			c0,0.091-0.082,0.137-0.246,0.137c-0.301,0-0.465,0.033-0.492,0.098c-0.807,0.612-1.646,1.12-2.521,1.523
			c0.055,0.078,0.115,0.15,0.184,0.215c0.588,0.794,1.266,1.406,2.031,1.836c0.369,0.234,0.717,0.397,1.045,0.488
			c0.109,0.065,0.164,0.117,0.164,0.156c0,0.143-0.041,0.241-0.123,0.293c-0.219,0.26-0.424,0.501-0.615,0.723
			c-0.055,0.117-0.137,0.176-0.246,0.176c-0.068,0-0.32-0.124-0.758-0.371c-1.107-0.716-1.99-1.504-2.646-2.363
			c-0.506-0.69-0.957-1.484-1.354-2.383c-0.342-0.833-0.643-1.816-0.902-2.949h-1.783v5.664c1.012-0.208,1.961-0.443,2.85-0.703
			c0.027-0.026,0.063-0.039,0.104-0.039c0.096,0,0.143,0.052,0.143,0.156c0,0.664-0.027,1.035-0.082,1.113
			c-1.723,0.456-3.473,0.866-5.25,1.23c-0.191,0.377-0.355,0.566-0.492,0.566c-0.123,0-0.389-0.547-0.799-1.641
			c0.602-0.078,1.285-0.208,2.051-0.391V84.18h-1.148c-0.178,0-0.268-0.098-0.268-0.293v-0.645c0-0.195,0.09-0.293,0.268-0.293
			h1.291v-7.988c0-0.195,0.109-0.293,0.328-0.293h8.225c0.15,0,0.225,0.098,0.225,0.293v0.645c0,0.195-0.074,0.293-0.225,0.293
			H305.719z"/>
		<path fill="#FFFFFF" d="M315.787,81.68h6.973c0.109,0,0.164,0.078,0.164,0.234v0.625c0,0.222-0.055,0.332-0.164,0.332h-3.609
			c-0.246,0.651-0.512,1.276-0.799,1.875h3.506c0.178,0,0.268,0.072,0.268,0.215c-0.041,1.94-0.145,3.327-0.309,4.16
			c-0.164,1.016-0.416,1.764-0.758,2.246c-0.287,0.534-1.08,0.801-2.379,0.801c-0.916,0-1.389-0.137-1.416-0.41
			c-0.068-0.3-0.26-0.658-0.574-1.074v-0.156c0.725,0.143,1.389,0.215,1.99,0.215c0.684,0,1.121-0.169,1.313-0.508
			c0.219-0.287,0.402-0.827,0.553-1.621c0.123-0.586,0.219-1.491,0.287-2.715h-3.014c-0.178,0.352-0.35,0.684-0.514,0.996
			c-0.027,0.078-0.061,0.117-0.102,0.117c-0.943-0.208-1.416-0.345-1.416-0.41c0.561-0.807,0.979-1.497,1.252-2.07
			c0.246-0.442,0.479-0.996,0.697-1.66h-1.949c-0.109,0-0.164-0.11-0.164-0.332v-0.625C315.623,81.758,315.678,81.68,315.787,81.68z
			 M316.977,74.961h4.965c0.23,0,0.348,0.078,0.348,0.234v4.844c0,0.169-0.117,0.254-0.348,0.254h-4.965
			c-0.232,0-0.348-0.084-0.348-0.254v-4.844C316.629,75.039,316.744,74.961,316.977,74.961z M320.895,79.102v-2.949h-2.871v2.949
			H320.895z M327.621,74.023c1.039,0,1.559,0.078,1.559,0.234c0,0.183-0.076,0.287-0.227,0.313
			c-0.137,0.013-0.205,0.144-0.205,0.391v0.488h5.168c0.109,0,0.164,0.078,0.164,0.234v0.625c0,0.195-0.055,0.293-0.164,0.293
			h-5.168v1.426h5.496c0.232,0,0.35,0.072,0.35,0.215v2.91c0,0.156-0.115,0.234-0.344,0.234h-0.809
			c-0.162,0-0.242-0.078-0.242-0.234V79.18h-8.121v2.734l2.275-0.391v-1.641c0-0.143,0.084-0.215,0.25-0.215
			c0.928,0.065,1.391,0.163,1.391,0.293c0,0.091-0.082,0.202-0.246,0.332v0.996l3.445-0.605c0.109,0,0.164,0.072,0.164,0.215v0.625
			c0,0.208-0.055,0.313-0.164,0.313l-3.445,0.625v0.859c0,0.156,0.055,0.234,0.164,0.234h3.713c0.273,0,0.539-0.436,0.799-1.309
			l1.252,0.703c-0.479,1.25-1.053,1.875-1.723,1.875h-4.518c-0.721,0-1.082-0.286-1.082-0.859v-1.27l-2.271,0.41
			c0,1.849-0.102,3.327-0.303,4.434c-0.15,0.925-0.414,1.855-0.793,2.793c-0.201,0.547-0.488,1.074-0.857,1.582
			c-0.109,0-0.184-0.013-0.225-0.039c-0.232-0.183-0.486-0.345-0.76-0.488c-0.068-0.065-0.102-0.144-0.102-0.234
			c0.342-0.469,0.643-1.107,0.902-1.914c0.273-0.846,0.457-1.738,0.553-2.676c0.123-0.977,0.186-2.155,0.186-3.535v-4.785
			c0-0.143,0.088-0.215,0.264-0.215h3.324v-3.77C327.271,74.102,327.389,74.023,327.621,74.023z M327.045,85.82
			c1.137,0.117,1.703,0.195,1.703,0.234c0,0.144-0.055,0.228-0.164,0.254c-0.15,0.104-0.225,0.28-0.225,0.527v0.625
			c0,0.391-0.055,0.827-0.162,1.309c-0.068,0.508-0.242,0.957-0.525,1.348c-0.27,0.403-0.615,0.768-1.035,1.094
			c-0.342,0.26-0.855,0.553-1.539,0.879c-0.068,0-0.137-0.059-0.205-0.176c-0.205-0.195-0.416-0.365-0.635-0.508
			c-0.096-0.065-0.145-0.124-0.145-0.176c0.711-0.326,1.197-0.586,1.457-0.781c0.314-0.234,0.566-0.482,0.758-0.742
			c0.219-0.287,0.391-0.651,0.514-1.094c0.082-0.364,0.123-0.749,0.123-1.152v-1.406C326.965,85.898,326.992,85.82,327.045,85.82z
			 M330.311,85.684c0.928,0.065,1.391,0.163,1.391,0.293c0,0.091-0.082,0.202-0.246,0.332v3.984c0,0.156,0.055,0.234,0.164,0.234
			h1.334c0.328,0,0.648-0.599,0.963-1.797l1.23,0.684c-0.506,1.563-1.135,2.344-1.887,2.344h-2.117
			c-0.721,0-1.082-0.287-1.082-0.859v-5C330.061,85.755,330.145,85.684,330.311,85.684z"/>
	</g>
	<g>
		<g>
			<circle fill="#FFFFFF" cx="157.255" cy="193.84" r="45"/>
			<path fill="#43668B" d="M157.255,239.84c-25.364,0-46-20.635-46-46s20.636-46,46-46s46,20.636,46,46
				S182.62,239.84,157.255,239.84z M157.255,149.84c-24.262,0-44,19.738-44,44c0,24.261,19.738,44,44,44s44-19.738,44-44
				C201.255,169.579,181.517,149.84,157.255,149.84z"/>
		</g>
		<g opacity="0.2">
			<path fill="#43668B" d="M113.532,201.92c2.156,12.336,9.326,22.945,19.343,29.64l24.97-37.437L113.532,201.92z"/>
		</g>
		<g>
			<path fill="#43668B" d="M141.178,185.246h11.956c0.287,0,0.431,0.098,0.431,0.293v15.39c0,0.651-0.383,1.152-1.148,1.504
				c-0.697,0.286-1.606,0.475-2.728,0.566c-0.164,0-0.26-0.085-0.287-0.254c-0.014-0.3-0.191-0.742-0.533-1.328
				c0-0.065,0.082-0.098,0.246-0.098c1.381,0,2.194-0.078,2.44-0.234c0.301-0.169,0.451-0.423,0.451-0.762v-3.75h-9.967
				c-0.082,0.339-0.164,0.651-0.246,0.938c-0.246,1.146-0.745,2.285-1.497,3.418c-0.383,0.69-0.937,1.354-1.661,1.992
				c-0.109,0-0.191-0.013-0.246-0.039c-0.246-0.222-0.513-0.41-0.8-0.566c-0.082-0.065-0.123-0.15-0.123-0.254
				c0.684-0.586,1.292-1.38,1.825-2.383c0.547-1.055,0.943-2.155,1.189-3.301c0.232-1.2,0.349-2.667,0.349-4.402v-6.437
				C140.829,185.344,140.945,185.246,141.178,185.246z M142.224,195.246h9.782v-3.926h-9.618v0.628
				C142.388,193.191,142.333,194.291,142.224,195.246z M142.388,189.992h9.618v-3.516h-9.618V189.992z"/>
			<path fill="#43668B" d="M159.204,196.398l1.415,0.371c0.096,0.026,0.144,0.091,0.144,0.195c0,0.091-0.13,0.215-0.39,0.371
				c-0.232,1.185-0.424,2.058-0.574,2.617c-0.164,0.521-0.362,1.028-0.595,1.523c-0.15,0-0.273-0.039-0.369-0.117
				c-0.219-0.104-0.465-0.183-0.738-0.234c-0.068-0.052-0.103-0.111-0.103-0.176c0.082-0.156,0.15-0.319,0.205-0.488
				c0.191-0.404,0.362-0.84,0.513-1.309c0.109-0.43,0.212-0.963,0.308-1.602c0.068-0.338,0.103-0.696,0.103-1.074
				C159.122,196.425,159.149,196.398,159.204,196.398z M161.622,184.543l1.533,0.801c0.068,0.117,0.102,0.183,0.102,0.195
				c0,0.117-0.109,0.176-0.327,0.176c-0.3,0-0.49,0.078-0.572,0.234c-0.695,1.003-1.35,1.914-1.964,2.734
				c0.451,0.313,0.915,0.664,1.392,1.055c0.45-0.703,0.824-1.341,1.124-1.914c0.886,0.703,1.329,1.087,1.329,1.152
				c0,0.078-0.062,0.117-0.184,0.117c-0.245,0-0.402,0.046-0.47,0.137c-0.873,1.472-1.738,2.813-2.596,4.023
				c0.722-0.091,1.54-0.188,2.453-0.293c-0.123-0.43-0.266-0.846-0.429-1.25c0-0.078,0.299-0.254,0.899-0.527
				c0.259,0.638,0.47,1.23,0.633,1.777c0.164,0.495,0.306,1.022,0.429,1.582c0,0.013-0.055,0.039-0.164,0.078h2.187v-1.348
				c0-0.104,0.116-0.156,0.349-0.156c0.861,0,1.292,0.052,1.292,0.156c0,0.169-0.048,0.261-0.144,0.273
				c-0.109,0.013-0.164,0.13-0.164,0.352v0.723h2.543c0.109,0,0.164,0.072,0.164,0.215v0.645c0,0.144-0.055,0.215-0.164,0.215
				h-3.712c-0.014,0.482-0.034,0.905-0.062,1.27h3.343c0.109,0,0.164,0.098,0.164,0.293c-0.014,1.472-0.082,2.526-0.205,3.164
				c-0.123,0.768-0.301,1.341-0.533,1.719c-0.219,0.403-0.793,0.605-1.723,0.605c-0.451,0-0.684-0.117-0.697-0.352
				c-0.027-0.248-0.123-0.554-0.287-0.918v-0.137c0.369,0.039,0.697,0.059,0.984,0.059c0.438,0,0.718-0.124,0.841-0.371
				c0.15-0.222,0.267-0.625,0.349-1.211c0.082-0.391,0.137-0.983,0.164-1.777h-2.481c-0.014,0.156-0.034,0.306-0.062,0.449
				c-0.123,0.847-0.308,1.549-0.554,2.109c-0.205,0.469-0.451,0.859-0.738,1.172c-0.273,0.325-0.622,0.625-1.046,0.898
				c-0.328-0.326-0.629-0.612-0.902-0.859c0.205-0.117,0.444-0.319,0.718-0.605c0.301-0.339,0.547-0.716,0.738-1.133
				c0.232-0.56,0.403-1.185,0.513-1.875c0.082-0.573,0.144-1.406,0.185-2.5h-1.148c-0.123,0-0.185-0.071-0.185-0.215v-0.645
				c0-0.104,0.014-0.156,0.041-0.156c-0.191,0.052-0.417,0.104-0.677,0.156c-0.041-0.286-0.116-0.625-0.226-1.016l-1.333,0.352v8.32
				c0,0.169-0.115,0.254-0.344,0.254h-0.808c-0.162,0-0.243-0.085-0.243-0.254v-7.93l-1.887,0.508
				c-0.328,0.313-0.52,0.469-0.574,0.469s-0.185-0.566-0.39-1.699c0-0.078,0.39-0.182,1.169-0.313
				c0.848-1.198,1.517-2.188,2.009-2.969c-0.669-0.43-1.175-0.735-1.517-0.918c-0.547-0.286-1.128-0.534-1.743-0.742
				c0-0.104,0.267-0.423,0.8-0.957c0.055-0.078,0.116-0.117,0.185-0.117c0.137,0.078,0.26,0.15,0.369,0.215
				c0.41-0.534,0.772-1.055,1.087-1.563C161.001,185.617,161.39,184.973,161.622,184.543z M164.064,196.34
				c0.041,0,0.068,0.02,0.082,0.059c0.246,0.664,0.547,1.738,0.902,3.223c0,0.104-0.355,0.202-1.066,0.293
				c-0.137,0-0.205-0.046-0.205-0.137c-0.15-0.989-0.383-2.038-0.697-3.145C163.08,196.542,163.408,196.444,164.064,196.34z
				 M166.997,184.68l1.333,0.371c0.109,0.013,0.164,0.078,0.164,0.195c0,0.065-0.116,0.163-0.349,0.293
				c-0.164,0.521-0.287,0.886-0.369,1.094h2.194c0.219,0,0.328,0.085,0.328,0.254v5.684c0,0.169-0.109,0.254-0.328,0.254h-4.696
				c-0.205,0-0.308-0.084-0.308-0.254v-5.684c0-0.169,0.103-0.254,0.308-0.254h1.046c0.137-0.182,0.246-0.384,0.328-0.605
				c0.082-0.208,0.15-0.456,0.205-0.742c0.041-0.169,0.062-0.345,0.062-0.527C166.915,184.706,166.942,184.68,166.997,184.68z
				 M166.259,189.211h2.707v-1.543h-2.707V189.211z M168.966,191.809v-1.563h-2.707v1.563H168.966z M173.067,184.68l1.292,0.469
				c0.137,0.104,0.205,0.189,0.205,0.254c0,0.104-0.055,0.176-0.164,0.215c-0.15,0-0.239,0.111-0.267,0.332
				c-0.273,1.406-0.52,2.494-0.738,3.262h3.876c0.096,0,0.144,0.085,0.144,0.254v0.605c0,0.222-0.048,0.332-0.144,0.332h-0.882
				c-0.014,0.052-0.021,0.098-0.021,0.137c-0.027,1.433-0.103,2.663-0.226,3.691c-0.068,0.781-0.191,1.556-0.369,2.324
				c-0.15,0.781-0.335,1.445-0.554,1.992c-0.096,0.234-0.185,0.449-0.267,0.645c0.26,0.417,0.547,0.794,0.861,1.133
				c0.41,0.469,0.937,0.879,1.579,1.23c0.068,0.052,0.103,0.104,0.103,0.156c0,0.091-0.034,0.169-0.103,0.234
				c-0.232,0.195-0.479,0.43-0.738,0.703c-0.096,0.117-0.164,0.176-0.205,0.176c-0.027,0-0.096-0.059-0.205-0.176
				c-0.314-0.234-0.649-0.515-1.005-0.84c-0.369-0.391-0.711-0.808-1.025-1.25c-0.301,0.43-0.636,0.807-1.005,1.133
				c-0.451,0.495-1.019,0.924-1.702,1.289c-0.082,0-0.157-0.059-0.226-0.176c-0.164-0.195-0.376-0.404-0.636-0.625
				c-0.082-0.078-0.123-0.124-0.123-0.137c0-0.065,0.021-0.098,0.062-0.098c0.656-0.378,1.114-0.684,1.374-0.918
				c0.355-0.313,0.711-0.71,1.066-1.191c0.15-0.195,0.28-0.41,0.39-0.645c-0.15-0.313-0.28-0.625-0.39-0.938
				c-0.314-0.781-0.54-1.595-0.677-2.441c-0.164-0.69-0.314-1.543-0.451-2.559c-0.164,0.287-0.321,0.554-0.472,0.801
				c-0.15,0-0.287-0.02-0.41-0.059c-0.26-0.104-0.513-0.195-0.759-0.273c-0.082-0.039-0.123-0.078-0.123-0.117
				c0-0.104,0.021-0.182,0.062-0.234c0.547-0.82,1.032-1.836,1.456-3.047c0.273-0.69,0.499-1.432,0.677-2.227
				c0.219-0.833,0.424-1.901,0.615-3.203C172.985,184.751,173.026,184.68,173.067,184.68z M172.514,191.867
				c0.137-0.026,0.273-0.045,0.41-0.059c0.082,1.016,0.198,1.888,0.349,2.617c0.164,0.925,0.376,1.777,0.636,2.559
				c0.068,0.208,0.144,0.397,0.226,0.566c0.178-0.469,0.314-0.957,0.41-1.465c0.15-0.612,0.239-1.289,0.267-2.031
				c0.096-0.781,0.144-1.999,0.144-3.652h-1.928C172.862,190.91,172.691,191.398,172.514,191.867z"/>
		</g>
	</g>
	<g>
		<g>
			<circle fill="#FFFFFF" cx="427.79" cy="193.84" r="45"/>
			<path fill="#43668B" d="M427.79,239.84c-25.364,0-46-20.635-46-46s20.636-46,46-46s46,20.636,46,46S453.154,239.84,427.79,239.84
				z M427.79,149.84c-24.262,0-44,19.738-44,44c0,24.261,19.738,44,44,44s44-19.738,44-44
				C471.79,169.579,452.052,149.84,427.79,149.84z"/>
		</g>
		<g>
			<path fill="#43668B" d="M413.168,184.758c1.094,0.534,1.641,0.847,1.641,0.938c0,0.117-0.048,0.176-0.144,0.176
				c-0.205,0.026-0.342,0.104-0.41,0.234c-0.164,0.273-0.321,0.534-0.472,0.781h11.956c0.164,0,0.246,0.098,0.246,0.293v0.645
				c0,0.195-0.082,0.293-0.246,0.293h-5.599v3.359h5.024c0.15,0,0.226,0.111,0.226,0.332v0.605c0,0.222-0.075,0.332-0.226,0.332
				h-5.024v4.375h6.316c0.178,0,0.267,0.072,0.267,0.215v0.781c0,0.222-0.089,0.332-0.267,0.332h-6.316v4.219
				c0,0.156-0.13,0.234-0.39,0.234h-0.82c-0.232,0-0.349-0.078-0.349-0.234v-4.219h-10.397c-0.178,0-0.267-0.11-0.267-0.332v-0.781
				c0-0.143,0.089-0.215,0.267-0.215h3.855v-5.313c0-0.221,0.103-0.332,0.308-0.332h6.234v-3.359h-5.64
				c-0.328,0.417-0.643,0.769-0.943,1.055c-0.41,0.43-1.107,1.048-2.092,1.855c-0.15,0-0.287-0.065-0.41-0.195
				c-0.191-0.143-0.396-0.293-0.615-0.449c-0.096-0.065-0.144-0.137-0.144-0.215c0.52-0.417,1.039-0.859,1.559-1.328
				c0.684-0.599,1.271-1.263,1.764-1.992c0.451-0.664,0.793-1.309,1.025-1.934C413.1,184.81,413.127,184.758,413.168,184.758z
				 M413.517,192.746v4.375h5.065v-4.375H413.517z"/>
			<path fill="#43668B" d="M429.738,196.398l1.415,0.371c0.096,0.026,0.144,0.091,0.144,0.195c0,0.091-0.13,0.215-0.39,0.371
				c-0.232,1.185-0.424,2.058-0.574,2.617c-0.164,0.521-0.362,1.028-0.595,1.523c-0.15,0-0.273-0.039-0.369-0.117
				c-0.219-0.104-0.465-0.183-0.738-0.234c-0.068-0.052-0.103-0.111-0.103-0.176c0.082-0.156,0.15-0.319,0.205-0.488
				c0.191-0.404,0.362-0.84,0.513-1.309c0.109-0.43,0.212-0.963,0.308-1.602c0.068-0.338,0.103-0.696,0.103-1.074
				C429.656,196.425,429.684,196.398,429.738,196.398z M432.156,184.543l1.533,0.801c0.067,0.117,0.102,0.183,0.102,0.195
				c0,0.117-0.109,0.176-0.327,0.176c-0.3,0-0.49,0.078-0.572,0.234c-0.694,1.003-1.35,1.914-1.964,2.734
				c0.451,0.313,0.915,0.664,1.392,1.055c0.45-0.703,0.824-1.341,1.124-1.914c0.886,0.703,1.328,1.087,1.328,1.152
				c0,0.078-0.061,0.117-0.184,0.117c-0.245,0-0.402,0.046-0.47,0.137c-0.872,1.472-1.737,2.813-2.596,4.023
				c0.722-0.091,1.54-0.188,2.452-0.293c-0.122-0.43-0.266-0.846-0.429-1.25c0-0.078,0.3-0.254,0.899-0.527
				c0.259,0.638,0.47,1.23,0.633,1.777c0.164,0.495,0.307,1.022,0.43,1.582c0,0.013-0.055,0.039-0.164,0.078h2.188v-1.348
				c0-0.104,0.116-0.156,0.349-0.156c0.861,0,1.292,0.052,1.292,0.156c0,0.169-0.048,0.261-0.144,0.273
				c-0.109,0.013-0.164,0.13-0.164,0.352v0.723h2.543c0.109,0,0.164,0.072,0.164,0.215v0.645c0,0.144-0.055,0.215-0.164,0.215
				h-3.712c-0.014,0.482-0.034,0.905-0.062,1.27h3.343c0.109,0,0.164,0.098,0.164,0.293c-0.014,1.472-0.082,2.526-0.205,3.164
				c-0.123,0.768-0.301,1.341-0.533,1.719c-0.219,0.403-0.793,0.605-1.723,0.605c-0.451,0-0.684-0.117-0.697-0.352
				c-0.027-0.248-0.123-0.554-0.287-0.918v-0.137c0.369,0.039,0.697,0.059,0.984,0.059c0.438,0,0.718-0.124,0.841-0.371
				c0.15-0.222,0.267-0.625,0.349-1.211c0.082-0.391,0.137-0.983,0.164-1.777h-2.481c-0.014,0.156-0.034,0.306-0.062,0.449
				c-0.123,0.847-0.308,1.549-0.554,2.109c-0.205,0.469-0.451,0.859-0.738,1.172c-0.273,0.325-0.622,0.625-1.046,0.898
				c-0.328-0.326-0.629-0.612-0.902-0.859c0.205-0.117,0.444-0.319,0.718-0.605c0.301-0.339,0.547-0.716,0.738-1.133
				c0.232-0.56,0.403-1.185,0.513-1.875c0.082-0.573,0.144-1.406,0.185-2.5h-1.148c-0.123,0-0.185-0.071-0.185-0.215v-0.645
				c0-0.104,0.014-0.156,0.041-0.156c-0.191,0.052-0.417,0.104-0.677,0.156c-0.041-0.286-0.116-0.625-0.226-1.016l-1.333,0.352v8.32
				c0,0.169-0.114,0.254-0.344,0.254h-0.808c-0.162,0-0.243-0.085-0.243-0.254v-7.93l-1.887,0.508
				c-0.328,0.313-0.52,0.469-0.574,0.469s-0.185-0.566-0.39-1.699c0-0.078,0.39-0.182,1.169-0.313
				c0.848-1.198,1.517-2.188,2.009-2.969c-0.67-0.43-1.175-0.735-1.517-0.918c-0.547-0.286-1.128-0.534-1.743-0.742
				c0-0.104,0.267-0.423,0.8-0.957c0.055-0.078,0.116-0.117,0.185-0.117c0.137,0.078,0.26,0.15,0.369,0.215
				c0.41-0.534,0.772-1.055,1.087-1.563C431.535,185.617,431.924,184.973,432.156,184.543z M434.599,196.34
				c0.041,0,0.068,0.02,0.082,0.059c0.246,0.664,0.547,1.738,0.902,3.223c0,0.104-0.355,0.202-1.066,0.293
				c-0.137,0-0.205-0.046-0.205-0.137c-0.15-0.989-0.383-2.038-0.697-3.145C433.614,196.542,433.942,196.444,434.599,196.34z
				 M437.531,184.68l1.333,0.371c0.109,0.013,0.164,0.078,0.164,0.195c0,0.065-0.116,0.163-0.349,0.293
				c-0.164,0.521-0.287,0.886-0.369,1.094h2.194c0.219,0,0.328,0.085,0.328,0.254v5.684c0,0.169-0.109,0.254-0.328,0.254h-4.696
				c-0.205,0-0.308-0.084-0.308-0.254v-5.684c0-0.169,0.103-0.254,0.308-0.254h1.046c0.137-0.182,0.246-0.384,0.328-0.605
				c0.082-0.208,0.15-0.456,0.205-0.742c0.041-0.169,0.062-0.345,0.062-0.527C437.449,184.706,437.477,184.68,437.531,184.68z
				 M436.793,189.211h2.707v-1.543h-2.707V189.211z M439.5,191.809v-1.563h-2.707v1.563H439.5z M443.602,184.68l1.292,0.469
				c0.137,0.104,0.205,0.189,0.205,0.254c0,0.104-0.055,0.176-0.164,0.215c-0.15,0-0.239,0.111-0.267,0.332
				c-0.273,1.406-0.52,2.494-0.738,3.262h3.876c0.096,0,0.144,0.085,0.144,0.254v0.605c0,0.222-0.048,0.332-0.144,0.332h-0.882
				c-0.014,0.052-0.021,0.098-0.021,0.137c-0.027,1.433-0.103,2.663-0.226,3.691c-0.068,0.781-0.191,1.556-0.369,2.324
				c-0.15,0.781-0.335,1.445-0.554,1.992c-0.096,0.234-0.185,0.449-0.267,0.645c0.26,0.417,0.547,0.794,0.861,1.133
				c0.41,0.469,0.937,0.879,1.579,1.23c0.068,0.052,0.103,0.104,0.103,0.156c0,0.091-0.034,0.169-0.103,0.234
				c-0.232,0.195-0.479,0.43-0.738,0.703c-0.096,0.117-0.164,0.176-0.205,0.176c-0.027,0-0.096-0.059-0.205-0.176
				c-0.314-0.234-0.649-0.515-1.005-0.84c-0.369-0.391-0.711-0.808-1.025-1.25c-0.301,0.43-0.636,0.807-1.005,1.133
				c-0.451,0.495-1.019,0.924-1.702,1.289c-0.082,0-0.157-0.059-0.226-0.176c-0.164-0.195-0.376-0.404-0.636-0.625
				c-0.082-0.078-0.123-0.124-0.123-0.137c0-0.065,0.021-0.098,0.062-0.098c0.656-0.378,1.114-0.684,1.374-0.918
				c0.355-0.313,0.711-0.71,1.066-1.191c0.15-0.195,0.28-0.41,0.39-0.645c-0.15-0.313-0.28-0.625-0.39-0.938
				c-0.314-0.781-0.54-1.595-0.677-2.441c-0.164-0.69-0.314-1.543-0.451-2.559c-0.164,0.287-0.321,0.554-0.472,0.801
				c-0.15,0-0.287-0.02-0.41-0.059c-0.26-0.104-0.513-0.195-0.759-0.273c-0.082-0.039-0.123-0.078-0.123-0.117
				c0-0.104,0.021-0.182,0.062-0.234c0.547-0.82,1.032-1.836,1.456-3.047c0.273-0.69,0.499-1.432,0.677-2.227
				c0.219-0.833,0.424-1.901,0.615-3.203C443.52,184.751,443.561,184.68,443.602,184.68z M443.048,191.867
				c0.137-0.026,0.273-0.045,0.41-0.059c0.082,1.016,0.198,1.888,0.349,2.617c0.164,0.925,0.376,1.777,0.636,2.559
				c0.068,0.208,0.144,0.397,0.226,0.566c0.178-0.469,0.314-0.957,0.41-1.465c0.15-0.612,0.239-1.289,0.267-2.031
				c0.096-0.781,0.144-1.999,0.144-3.652h-1.928C443.396,190.91,443.226,191.398,443.048,191.867z"/>
		</g>
		<g opacity="0.2">
			<circle fill="#43668B" cx="427.79" cy="193.84" r="45"/>
		</g>
	</g>
	<g>
		<g>
			<circle fill="#FFFFFF" cx="291.123" cy="193.84" r="45"/>
			<path fill="#43668B" d="M291.124,239.839c-25.365,0-46-20.635-46-46s20.636-46,46-46c25.364,0,46,20.636,46,46
				S316.487,239.839,291.124,239.839z M291.124,149.84c-24.262,0-44,19.738-44,44c0,24.261,19.739,44,44,44
				c24.261,0,44-19.738,44-44C335.123,169.578,315.385,149.84,291.124,149.84z"/>
		</g>
		<g>
			<path fill="#43668B" d="M287.083,185.851c-0.123,0-0.294,0.033-0.513,0.098c-0.93,0.261-2.03,0.501-3.302,0.723
				c-0.67,0.117-1.306,0.215-1.907,0.293v1.563h7.711c0.164,0,0.246,0.104,0.246,0.313v0.625c0,0.195-0.082,0.293-0.246,0.293
				h-6.952c0.766,0.508,1.463,0.912,2.092,1.211c0.875,0.443,1.928,0.847,3.158,1.211c1.012,0.326,2.037,0.566,3.076,0.723
				c0,0.091-0.068,0.156-0.205,0.195c-0.301,0.287-0.547,0.554-0.738,0.801c-0.082,0.104-0.144,0.156-0.185,0.156
				c-1.572-0.391-2.844-0.801-3.814-1.23c-1.121-0.481-2.071-0.989-2.851-1.523c-0.424-0.273-0.854-0.579-1.292-0.918v2.969
				c0,0.169-0.116,0.254-0.349,0.254h-0.8c-0.232,0-0.349-0.084-0.349-0.254v-2.813c-0.191,0.156-0.396,0.3-0.615,0.43
				c-0.711,0.495-1.442,0.938-2.194,1.328c-0.861,0.417-1.812,0.801-2.851,1.152c-1.285,0.404-2.023,0.605-2.215,0.605
				c-0.082,0-0.164-0.078-0.246-0.234c-0.178-0.221-0.396-0.456-0.656-0.703c-0.096-0.104-0.144-0.176-0.144-0.215
				c1.395-0.286,2.584-0.579,3.568-0.879c0.998-0.325,1.989-0.735,2.974-1.23c0.438-0.247,0.957-0.592,1.559-1.035h-6.891
				c-0.164,0-0.246-0.098-0.246-0.293v-0.625c0-0.208,0.082-0.313,0.246-0.313h7.711v-1.387c-0.273,0.026-0.54,0.052-0.8,0.078
				c-1.518,0.13-2.919,0.195-4.204,0.195c-0.232,0-0.369-0.084-0.41-0.254c-0.191-0.26-0.41-0.534-0.656-0.82
				c0-0.156,0.082-0.234,0.246-0.234h1.251c1.668,0,3.104-0.071,4.307-0.215c1.107-0.052,2.208-0.182,3.302-0.391
				c1.271-0.234,2.331-0.534,3.179-0.898c0.123-0.039,0.219-0.059,0.287-0.059c0.164,0,0.28,0.033,0.349,0.098
				c0.793,0.651,1.189,1.055,1.189,1.211c0,0.169-0.082,0.254-0.246,0.254L287.083,185.851z M275.948,193.976h9.68
				c0.191,0,0.314,0.033,0.369,0.098c0.301,0.234,0.451,0.417,0.451,0.547l-4.491,2.637c-0.041,0.026-0.082,0.039-0.123,0.039v0.684
				h7.403c0.096,0,0.144,0.072,0.144,0.215v0.645c0,0.195-0.048,0.293-0.144,0.293h-7.403v2.422c0,0.95-0.704,1.426-2.112,1.426
				h-1.805c-0.082,0-0.13-0.117-0.144-0.352c-0.027-0.313-0.15-0.619-0.369-0.918c0-0.104,0.027-0.156,0.082-0.156
				c0.93,0.104,1.675,0.156,2.235,0.156c0.438,0,0.656-0.228,0.656-0.684v-1.895h-8.306c-0.109,0-0.164-0.098-0.164-0.293v-0.645
				c0-0.143,0.055-0.215,0.164-0.215h8.306v-1.172c0-0.169,0.103-0.254,0.308-0.254l0.103,0.039l2.338-1.348h-7.178
				c-0.178,0-0.267-0.11-0.267-0.332v-0.605C275.681,194.087,275.77,193.976,275.948,193.976z"/>
			<path fill="#43668B" d="M293.072,196.398l1.415,0.371c0.096,0.026,0.144,0.091,0.144,0.195c0,0.091-0.13,0.215-0.39,0.371
				c-0.232,1.185-0.424,2.058-0.574,2.617c-0.164,0.521-0.362,1.028-0.595,1.523c-0.15,0-0.273-0.039-0.369-0.117
				c-0.219-0.104-0.465-0.183-0.738-0.234c-0.068-0.052-0.103-0.111-0.103-0.176c0.082-0.156,0.15-0.319,0.205-0.488
				c0.191-0.404,0.362-0.84,0.513-1.309c0.109-0.43,0.212-0.963,0.308-1.602c0.068-0.338,0.103-0.696,0.103-1.074
				C292.99,196.424,293.017,196.398,293.072,196.398z M295.489,184.542l1.533,0.801c0.068,0.117,0.102,0.183,0.102,0.195
				c0,0.117-0.109,0.176-0.327,0.176c-0.3,0-0.49,0.078-0.572,0.234c-0.695,1.003-1.35,1.914-1.964,2.734
				c0.451,0.313,0.915,0.664,1.392,1.055c0.45-0.703,0.824-1.341,1.124-1.914c0.886,0.703,1.329,1.087,1.329,1.152
				c0,0.078-0.062,0.117-0.184,0.117c-0.245,0-0.402,0.046-0.47,0.137c-0.873,1.472-1.738,2.813-2.596,4.023
				c0.722-0.091,1.54-0.188,2.453-0.293c-0.123-0.43-0.266-0.846-0.429-1.25c0-0.078,0.299-0.254,0.899-0.527
				c0.259,0.638,0.47,1.23,0.633,1.777c0.164,0.495,0.306,1.022,0.429,1.582c0,0.013-0.055,0.039-0.164,0.078h2.188v-1.348
				c0-0.104,0.115-0.156,0.348-0.156c0.861,0,1.293,0.052,1.293,0.156c0,0.169-0.049,0.261-0.145,0.273
				c-0.109,0.013-0.164,0.13-0.164,0.352v0.723h2.543c0.109,0,0.164,0.072,0.164,0.215v0.645c0,0.144-0.055,0.215-0.164,0.215
				h-3.711c-0.014,0.482-0.035,0.905-0.063,1.27h3.344c0.109,0,0.164,0.098,0.164,0.293c-0.014,1.472-0.082,2.526-0.205,3.164
				c-0.123,0.768-0.301,1.341-0.533,1.719c-0.219,0.403-0.793,0.605-1.723,0.605c-0.451,0-0.684-0.117-0.697-0.352
				c-0.027-0.248-0.123-0.554-0.287-0.918v-0.137c0.369,0.039,0.697,0.059,0.984,0.059c0.438,0,0.717-0.124,0.84-0.371
				c0.15-0.222,0.268-0.625,0.35-1.211c0.082-0.391,0.137-0.983,0.164-1.777h-2.482c-0.014,0.156-0.033,0.306-0.061,0.449
				c-0.123,0.847-0.309,1.549-0.555,2.109c-0.205,0.469-0.451,0.859-0.738,1.172c-0.273,0.325-0.622,0.625-1.045,0.898
				c-0.328-0.326-0.629-0.612-0.902-0.859c0.205-0.117,0.444-0.319,0.718-0.605c0.301-0.339,0.547-0.716,0.738-1.133
				c0.232-0.56,0.404-1.185,0.514-1.875c0.082-0.573,0.143-1.406,0.184-2.5h-1.148c-0.123,0-0.185-0.071-0.185-0.215v-0.645
				c0-0.104,0.014-0.156,0.041-0.156c-0.191,0.052-0.417,0.104-0.677,0.156c-0.041-0.286-0.116-0.625-0.226-1.016l-1.333,0.352v8.32
				c0,0.169-0.115,0.254-0.344,0.254h-0.808c-0.162,0-0.243-0.085-0.243-0.254v-7.93l-1.887,0.508
				c-0.328,0.313-0.52,0.469-0.574,0.469s-0.185-0.566-0.39-1.699c0-0.078,0.39-0.182,1.169-0.313
				c0.848-1.198,1.517-2.188,2.009-2.969c-0.669-0.43-1.175-0.735-1.517-0.918c-0.547-0.286-1.128-0.534-1.743-0.742
				c0-0.104,0.267-0.423,0.8-0.957c0.055-0.078,0.116-0.117,0.185-0.117c0.137,0.078,0.26,0.15,0.369,0.215
				c0.41-0.534,0.772-1.055,1.087-1.563C294.869,185.617,295.258,184.972,295.489,184.542z M297.932,196.339
				c0.041,0,0.068,0.02,0.082,0.059c0.246,0.664,0.547,1.738,0.902,3.223c0,0.104-0.355,0.202-1.066,0.293
				c-0.137,0-0.205-0.046-0.205-0.137c-0.15-0.989-0.383-2.038-0.697-3.145C296.948,196.542,297.276,196.444,297.932,196.339z
				 M300.865,184.679l1.332,0.371c0.109,0.013,0.164,0.078,0.164,0.195c0,0.065-0.115,0.163-0.348,0.293
				c-0.164,0.521-0.287,0.886-0.369,1.094h2.193c0.219,0,0.328,0.085,0.328,0.254v5.684c0,0.169-0.109,0.254-0.328,0.254h-4.695
				c-0.206,0-0.308-0.084-0.308-0.254v-5.684c0-0.169,0.103-0.254,0.308-0.254h1.045c0.137-0.182,0.246-0.384,0.328-0.605
				c0.082-0.208,0.15-0.456,0.205-0.742c0.041-0.169,0.063-0.345,0.063-0.527C300.783,184.706,300.811,184.679,300.865,184.679z
				 M300.127,189.21h2.707v-1.543h-2.707V189.21z M302.834,191.808v-1.563h-2.707v1.563H302.834z M306.936,184.679l1.291,0.469
				c0.137,0.104,0.205,0.189,0.205,0.254c0,0.104-0.055,0.176-0.164,0.215c-0.15,0-0.238,0.111-0.266,0.332
				c-0.273,1.406-0.52,2.494-0.738,3.262h3.875c0.096,0,0.145,0.085,0.145,0.254v0.605c0,0.222-0.049,0.332-0.145,0.332h-0.881
				c-0.014,0.052-0.021,0.098-0.021,0.137c-0.027,1.433-0.102,2.663-0.225,3.691c-0.068,0.781-0.191,1.556-0.369,2.324
				c-0.15,0.781-0.336,1.445-0.555,1.992c-0.096,0.234-0.184,0.449-0.266,0.645c0.26,0.417,0.547,0.794,0.861,1.133
				c0.41,0.469,0.936,0.879,1.578,1.23c0.068,0.052,0.104,0.104,0.104,0.156c0,0.091-0.035,0.169-0.104,0.234
				c-0.232,0.195-0.479,0.43-0.738,0.703c-0.096,0.117-0.164,0.176-0.205,0.176c-0.027,0-0.096-0.059-0.205-0.176
				c-0.314-0.234-0.648-0.515-1.004-0.84c-0.369-0.391-0.711-0.808-1.025-1.25c-0.301,0.43-0.637,0.807-1.006,1.133
				c-0.451,0.495-1.018,0.924-1.701,1.289c-0.082,0-0.158-0.059-0.227-0.176c-0.164-0.195-0.375-0.404-0.635-0.625
				c-0.082-0.078-0.123-0.124-0.123-0.137c0-0.065,0.02-0.098,0.061-0.098c0.656-0.378,1.115-0.684,1.375-0.918
				c0.355-0.313,0.711-0.71,1.066-1.191c0.15-0.195,0.279-0.41,0.389-0.645c-0.15-0.313-0.279-0.625-0.389-0.938
				c-0.314-0.781-0.541-1.595-0.678-2.441c-0.164-0.69-0.314-1.543-0.451-2.559c-0.164,0.287-0.32,0.554-0.471,0.801
				c-0.15,0-0.287-0.02-0.41-0.059c-0.26-0.104-0.514-0.195-0.76-0.273c-0.082-0.039-0.123-0.078-0.123-0.117
				c0-0.104,0.021-0.182,0.063-0.234c0.547-0.82,1.031-1.836,1.455-3.047c0.273-0.69,0.5-1.432,0.678-2.227
				c0.219-0.833,0.424-1.901,0.615-3.203C306.854,184.751,306.895,184.679,306.936,184.679z M306.381,191.867
				c0.137-0.026,0.273-0.045,0.41-0.059c0.082,1.016,0.199,1.888,0.35,2.617c0.164,0.925,0.375,1.777,0.635,2.559
				c0.068,0.208,0.145,0.397,0.227,0.566c0.178-0.469,0.314-0.957,0.41-1.465c0.15-0.612,0.238-1.289,0.266-2.031
				c0.096-0.781,0.145-1.999,0.145-3.652h-1.928C306.73,190.91,306.559,191.398,306.381,191.867z"/>
		</g>
		<g opacity="0.2">
			<path fill="#43668B" d="M246.123,193.84L246.123,193.84c0,24.854,20.147,45,45,45c12.425,0,23.675-5.037,31.82-13.18
				l-31.82-31.82L246.123,193.84z"/>
		</g>
	</g>
	<g>
		<path fill="#43668B" d="M132.795,264.173c0,1.185-0.403,2.155-1.21,2.91c-0.834,0.755-1.887,1.133-3.158,1.133
			c-2.229,0-3.623-1.094-4.184-3.281l1.333-0.469c0.369,1.628,1.319,2.441,2.851,2.441c0.902,0,1.62-0.273,2.153-0.82
			c0.479-0.508,0.718-1.146,0.718-1.914c0-0.847-0.239-1.543-0.718-2.09c-0.465-0.547-1.107-0.82-1.928-0.82h-1.6v-1.328h1.292
			c0.615,0,1.189-0.313,1.723-0.938s0.8-1.263,0.8-1.914c0-1.653-0.779-2.48-2.338-2.48c-0.588,0-1.114,0.222-1.579,0.664
			c-0.479,0.43-0.786,0.983-0.923,1.66l-1.292-0.41c0.178-0.886,0.567-1.621,1.169-2.207c0.697-0.664,1.572-0.996,2.625-0.996
			c1.189,0,2.119,0.325,2.789,0.977c0.684,0.651,1.025,1.582,1.025,2.793c0,0.651-0.178,1.282-0.533,1.895
			c-0.396,0.651-0.923,1.122-1.579,1.413c0.766,0.172,1.381,0.605,1.846,1.302C132.556,262.369,132.795,263.196,132.795,264.173z"/>
		<path fill="#43668B" d="M143.521,260.735c0,4.974-1.504,7.461-4.512,7.461s-4.512-2.487-4.512-7.461
			c0-2.422,0.335-4.238,1.005-5.449c0.738-1.315,1.907-1.973,3.507-1.973s2.769,0.657,3.507,1.973
			C143.186,256.497,143.521,258.313,143.521,260.735z M142.044,260.735c0-2.239-0.239-3.828-0.718-4.766
			c-0.479-0.898-1.251-1.348-2.317-1.348c-1.039,0-1.798,0.449-2.276,1.348c-0.479,0.95-0.718,2.539-0.718,4.766
			c0,2.253,0.232,3.841,0.697,4.766c0.479,0.925,1.244,1.387,2.297,1.387c1.066,0,1.832-0.456,2.297-1.367
			C141.798,264.57,142.044,262.975,142.044,260.735z"/>
		<path fill="#43668B" d="M148.504,268.04h-2.522v-2.383h2.522V268.04z"/>
		<path fill="#43668B" d="M164.521,260.735c0,4.974-1.504,7.461-4.512,7.461s-4.512-2.487-4.512-7.461
			c0-2.422,0.335-4.238,1.005-5.449c0.738-1.315,1.907-1.973,3.507-1.973s2.769,0.657,3.507,1.973
			C164.186,256.497,164.521,258.313,164.521,260.735z M163.044,260.735c0-2.239-0.239-3.828-0.718-4.766
			c-0.479-0.898-1.251-1.348-2.317-1.348c-1.039,0-1.798,0.449-2.276,1.348c-0.479,0.95-0.718,2.539-0.718,4.766
			c0,2.253,0.232,3.841,0.697,4.766c0.479,0.925,1.244,1.387,2.297,1.387c1.066,0,1.832-0.456,2.297-1.367
			C162.798,264.57,163.044,262.975,163.044,260.735z"/>
		<path fill="#43668B" d="M175.021,260.735c0,4.974-1.504,7.461-4.512,7.461s-4.512-2.487-4.512-7.461
			c0-2.422,0.335-4.238,1.005-5.449c0.738-1.315,1.907-1.973,3.507-1.973s2.769,0.657,3.507,1.973
			C174.686,256.497,175.021,258.313,175.021,260.735z M173.544,260.735c0-2.239-0.239-3.828-0.718-4.766
			c-0.479-0.898-1.251-1.348-2.317-1.348c-1.039,0-1.798,0.449-2.276,1.348c-0.479,0.95-0.718,2.539-0.718,4.766
			c0,2.253,0.232,3.841,0.697,4.766c0.479,0.925,1.244,1.387,2.297,1.387c1.066,0,1.832-0.456,2.297-1.367
			C173.298,264.57,173.544,262.975,173.544,260.735z"/>
		<path fill="#43668B" d="M185.521,260.735c0,4.974-1.504,7.461-4.512,7.461s-4.512-2.487-4.512-7.461
			c0-2.422,0.335-4.238,1.005-5.449c0.738-1.315,1.907-1.973,3.507-1.973s2.769,0.657,3.507,1.973
			C185.186,256.497,185.521,258.313,185.521,260.735z M184.044,260.735c0-2.239-0.239-3.828-0.718-4.766
			c-0.479-0.898-1.251-1.348-2.317-1.348c-1.039,0-1.798,0.449-2.276,1.348c-0.479,0.95-0.718,2.539-0.718,4.766
			c0,2.253,0.232,3.841,0.697,4.766c0.479,0.925,1.244,1.387,2.297,1.387c1.066,0,1.832-0.456,2.297-1.367
			C183.798,264.57,184.044,262.975,184.044,260.735z"/>
	</g>
	<g>
		<path fill="#43668B" d="M270.795,254.817c-1.846,2.058-3.042,4.114-3.589,6.172c-0.369,1.419-0.554,3.757-0.554,7.012h-1.518
			c0-2.93,0.219-5.228,0.656-6.895c0.574-2.122,1.702-4.226,3.384-6.309h-6.952v-1.328h8.572V254.817z"/>
		<path fill="#43668B" d="M281.315,263.333c0,1.237-0.355,2.324-1.066,3.262c-0.82,1.067-1.887,1.602-3.199,1.602
			c-2.898,0-4.348-2.402-4.348-7.207c0-5.13,1.449-7.695,4.348-7.695c1.859,0,3.097,0.938,3.712,2.813l-1.374,0.527
			c-0.506-1.341-1.285-2.012-2.338-2.012c-0.848,0-1.497,0.403-1.948,1.211c-0.506,0.898-0.8,2.383-0.882,4.453
			c0.779-0.977,1.764-1.465,2.953-1.465c1.313,0,2.345,0.437,3.097,1.309C280.967,260.938,281.315,262.005,281.315,263.333z
			 M279.839,263.333c0-0.989-0.198-1.771-0.595-2.344c-0.465-0.651-1.155-0.977-2.071-0.977c-1.176,0-2.174,0.618-2.994,1.855
			c0.068,1.433,0.246,2.507,0.533,3.223c0.451,1.172,1.23,1.758,2.338,1.758c0.916,0,1.627-0.378,2.133-1.133
			C279.62,265.052,279.839,264.258,279.839,263.333z"/>
		<path fill="#43668B" d="M286.504,268.04h-2.522v-2.383h2.522V268.04z"/>
		<path fill="#43668B" d="M302.254,263.001c0,1.653-0.451,2.949-1.354,3.887c-0.82,0.872-1.859,1.309-3.117,1.309
			c-1.859,0-3.199-0.983-4.02-2.949l1.292-0.566c0.26,0.651,0.636,1.179,1.128,1.582c0.492,0.417,1.025,0.625,1.6,0.625
			c0.861,0,1.559-0.313,2.092-0.938c0.588-0.69,0.882-1.673,0.882-2.949c0-2.487-0.841-3.73-2.522-3.73
			c-1.203,0-2.064,0.605-2.584,1.816h-1.374v-7.617h7.383v1.328h-5.906v4.277c0.547-0.742,1.374-1.113,2.481-1.113
			c1.23,0,2.208,0.456,2.933,1.367S302.254,261.465,302.254,263.001z"/>
		<path fill="#43668B" d="M313.021,260.735c0,4.974-1.504,7.461-4.512,7.461s-4.512-2.487-4.512-7.461
			c0-2.422,0.335-4.238,1.005-5.449c0.738-1.315,1.907-1.973,3.507-1.973s2.769,0.657,3.507,1.973
			C312.686,256.497,313.021,258.313,313.021,260.735z M311.544,260.735c0-2.239-0.239-3.828-0.718-4.766
			c-0.479-0.898-1.251-1.348-2.317-1.348c-1.039,0-1.798,0.449-2.276,1.348c-0.479,0.95-0.718,2.539-0.718,4.766
			c0,2.253,0.232,3.841,0.697,4.766c0.479,0.925,1.244,1.387,2.297,1.387c1.066,0,1.832-0.456,2.297-1.367
			C311.298,264.57,311.544,262.975,311.544,260.735z"/>
		<path fill="#43668B" d="M323.521,260.735c0,4.974-1.504,7.461-4.512,7.461s-4.512-2.487-4.512-7.461
			c0-2.422,0.335-4.238,1.005-5.449c0.738-1.315,1.907-1.973,3.507-1.973s2.769,0.657,3.507,1.973
			C323.186,256.497,323.521,258.313,323.521,260.735z M322.044,260.735c0-2.239-0.239-3.828-0.718-4.766
			c-0.479-0.898-1.251-1.348-2.317-1.348c-1.039,0-1.798,0.449-2.276,1.348c-0.479,0.95-0.718,2.539-0.718,4.766
			c0,2.253,0.232,3.841,0.697,4.766c0.479,0.925,1.244,1.387,2.297,1.387c1.066,0,1.832-0.456,2.297-1.367
			C321.798,264.57,322.044,262.975,322.044,260.735z"/>
	</g>
	<g>
		<path fill="#43668B" d="M399.236,268.001h-8.039c0.273-1.289,0.759-2.487,1.456-3.594c0.588-0.898,1.449-1.927,2.584-3.086
			c0.916-0.911,1.545-1.692,1.887-2.344c0.342-0.625,0.513-1.296,0.513-2.012c0-1.575-0.854-2.363-2.563-2.363
			c-0.697,0-1.299,0.364-1.805,1.094c-0.479,0.664-0.752,1.478-0.82,2.441l-1.313-0.469c0.15-1.315,0.567-2.37,1.251-3.164
			s1.579-1.191,2.687-1.191c1.23,0,2.208,0.319,2.933,0.957s1.087,1.536,1.087,2.695c0,0.925-0.28,1.843-0.841,2.754
			c-0.41,0.69-1.107,1.543-2.092,2.559c-1.682,1.745-2.693,3.229-3.035,4.453h6.111V268.001z"/>
		<path fill="#43668B" d="M409.921,263.001c0,1.653-0.451,2.949-1.354,3.887c-0.82,0.872-1.859,1.309-3.117,1.309
			c-1.859,0-3.199-0.983-4.02-2.949l1.292-0.566c0.26,0.651,0.636,1.179,1.128,1.582c0.492,0.417,1.025,0.625,1.6,0.625
			c0.861,0,1.559-0.313,2.092-0.938c0.588-0.69,0.882-1.673,0.882-2.949c0-2.487-0.841-3.73-2.522-3.73
			c-1.203,0-2.064,0.605-2.584,1.816h-1.374v-7.617h7.383v1.328h-5.906v4.277c0.547-0.742,1.374-1.113,2.481-1.113
			c1.23,0,2.208,0.456,2.933,1.367S409.921,261.465,409.921,263.001z"/>
		<path fill="#43668B" d="M420.236,268.001h-8.039c0.273-1.289,0.759-2.487,1.456-3.594c0.588-0.898,1.449-1.927,2.584-3.086
			c0.916-0.911,1.545-1.692,1.887-2.344c0.342-0.625,0.513-1.296,0.513-2.012c0-1.575-0.854-2.363-2.563-2.363
			c-0.697,0-1.299,0.364-1.805,1.094c-0.479,0.664-0.752,1.478-0.82,2.441l-1.313-0.469c0.15-1.315,0.567-2.37,1.251-3.164
			s1.579-1.191,2.687-1.191c1.23,0,2.208,0.319,2.933,0.957s1.087,1.536,1.087,2.695c0,0.925-0.28,1.843-0.841,2.754
			c-0.41,0.69-1.107,1.543-2.092,2.559c-1.682,1.745-2.693,3.229-3.035,4.453h6.111V268.001z"/>
		<path fill="#43668B" d="M425.671,268.04h-2.522v-2.383h2.522V268.04z"/>
		<path fill="#43668B" d="M441.688,260.735c0,4.974-1.504,7.461-4.512,7.461s-4.512-2.487-4.512-7.461
			c0-2.422,0.335-4.238,1.005-5.449c0.738-1.315,1.907-1.973,3.507-1.973s2.769,0.657,3.507,1.973
			C441.353,256.497,441.688,258.313,441.688,260.735z M440.211,260.735c0-2.239-0.239-3.828-0.718-4.766
			c-0.479-0.898-1.251-1.348-2.317-1.348c-1.039,0-1.798,0.449-2.276,1.348c-0.479,0.95-0.718,2.539-0.718,4.766
			c0,2.253,0.232,3.841,0.697,4.766c0.479,0.925,1.244,1.387,2.297,1.387c1.066,0,1.832-0.456,2.297-1.367
			C439.965,264.57,440.211,262.975,440.211,260.735z"/>
		<path fill="#43668B" d="M452.188,260.735c0,4.974-1.504,7.461-4.512,7.461s-4.512-2.487-4.512-7.461
			c0-2.422,0.335-4.238,1.005-5.449c0.738-1.315,1.907-1.973,3.507-1.973s2.769,0.657,3.507,1.973
			C451.853,256.497,452.188,258.313,452.188,260.735z M450.711,260.735c0-2.239-0.239-3.828-0.718-4.766
			c-0.479-0.898-1.251-1.348-2.317-1.348c-1.039,0-1.798,0.449-2.276,1.348c-0.479,0.95-0.718,2.539-0.718,4.766
			c0,2.253,0.232,3.841,0.697,4.766c0.479,0.925,1.244,1.387,2.297,1.387c1.066,0,1.832-0.456,2.297-1.367
			C450.465,264.57,450.711,262.975,450.711,260.735z"/>
		<path fill="#43668B" d="M462.688,260.735c0,4.974-1.504,7.461-4.512,7.461s-4.512-2.487-4.512-7.461
			c0-2.422,0.335-4.238,1.005-5.449c0.738-1.315,1.907-1.973,3.507-1.973s2.769,0.657,3.507,1.973
			C462.353,256.497,462.688,258.313,462.688,260.735z M461.211,260.735c0-2.239-0.239-3.828-0.718-4.766
			c-0.479-0.898-1.251-1.348-2.317-1.348c-1.039,0-1.798,0.449-2.276,1.348c-0.479,0.95-0.718,2.539-0.718,4.766
			c0,2.253,0.232,3.841,0.697,4.766c0.479,0.925,1.244,1.387,2.297,1.387c1.066,0,1.832-0.456,2.297-1.367
			C460.965,264.57,461.211,262.975,461.211,260.735z"/>
	</g>
</g>
</svg>
